<mxfile host="app.diagrams.net" modified="2020-10-13T09:38:44.511Z" agent="5.0 (Macintosh)" etag="U2tNz259h3YYdbN3xegN" version="13.7.9" type="github">
  <diagram name="Page-1" id="7a6c530e-6e37-e111-ec74-82921da8cc10">
    <mxGraphModel dx="1186" dy="778" grid="1" gridSize="10" guides="1" tooltips="1" connect="1" arrows="1" fold="1" page="1" pageScale="1.5" pageWidth="1169" pageHeight="826" background="#0066CC" math="0" shadow="0">
      <root>
        <mxCell id="0" style=";html=1;" />
        <mxCell id="1" style=";html=1;" parent="0" />
        <mxCell id="23046e2b9bb16c14-116" value="" style="whiteSpace=wrap;html=1;rounded=1;shadow=0;strokeColor=none;strokeWidth=2;fillColor=#009BFF;fontSize=20;fontColor=#FFFFFF;align=center;arcSize=3;verticalAlign=top;spacingTop=4;" parent="1" vertex="1">
          <mxGeometry x="120" y="170" width="1610" height="690" as="geometry" />
        </mxCell>
        <mxCell id="4g_t7paAZGqGhglVZUK9-20" value="&lt;h1 align=&quot;left&quot;&gt;&lt;font style=&quot;font-size: 16px&quot;&gt;Everest kluster&lt;/font&gt;&lt;/h1&gt;" style="rounded=0;whiteSpace=wrap;html=1;shadow=0;strokeWidth=2;fillColor=#60a917;fontSize=12;align=left;strokeColor=#2D7600;arcSize=6;verticalAlign=top;spacingLeft=23;fontColor=#ffffff;" parent="1" vertex="1">
          <mxGeometry x="410" y="250" width="600" height="470" as="geometry" />
        </mxCell>
        <mxCell id="23046e2b9bb16c14-64" value="Web browser" style="rounded=1;whiteSpace=wrap;html=1;shadow=0;strokeWidth=2;fillColor=#0072BC;fontSize=12;fontColor=#FFFFFF;align=center;strokeColor=none;arcSize=3;verticalAlign=top;" parent="1" vertex="1">
          <mxGeometry x="190" y="400" width="150" height="189" as="geometry" />
        </mxCell>
        <mxCell id="23046e2b9bb16c14-27" value="" style="rounded=1;whiteSpace=wrap;html=1;shadow=0;strokeWidth=2;fillColor=#8BC63E;fontSize=12;fontColor=#000000;align=center;strokeColor=none;arcSize=3;" parent="1" vertex="1">
          <mxGeometry x="470" y="521.5" width="480" height="160" as="geometry" />
        </mxCell>
        <mxCell id="23046e2b9bb16c14-86" value="&lt;h1&gt;Azure Cloud Services&lt;br&gt;&lt;/h1&gt;" style="rounded=0;whiteSpace=wrap;html=1;shadow=0;strokeWidth=2;fillColor=#0072BC;fontSize=12;fontColor=#FFFFFF;align=center;strokeColor=none;arcSize=3;verticalAlign=top;" parent="1" vertex="1">
          <mxGeometry x="1160" y="290" width="190" height="375" as="geometry" />
        </mxCell>
        <mxCell id="23046e2b9bb16c14-113" value="Emailforward arkitektur" style="text;strokeColor=none;fillColor=none;html=1;fontSize=24;fontStyle=1;verticalAlign=middle;align=center;rounded=0;shadow=0;fontColor=#FFFFFF;" parent="1" vertex="1">
          <mxGeometry x="140" y="190" width="1510" height="40" as="geometry" />
        </mxCell>
        <mxCell id="4g_t7paAZGqGhglVZUK9-2" value="" style="shape=image;verticalLabelPosition=bottom;labelBackgroundColor=#ffffff;verticalAlign=top;aspect=fixed;imageAspect=0;image=data:image/svg+xml,PHN2ZyB4bWxuczpjYz0iaHR0cDovL2NyZWF0aXZlY29tbW9ucy5vcmcvbnMjIiB4bWxuczpkYz0iaHR0cDovL3B1cmwub3JnL2RjL2VsZW1lbnRzLzEuMS8iIHhtbG5zOmlua3NjYXBlPSJodHRwOi8vd3d3Lmlua3NjYXBlLm9yZy9uYW1lc3BhY2VzL2lua3NjYXBlIiB4bWxuczpyZGY9Imh0dHA6Ly93d3cudzMub3JnLzE5OTkvMDIvMjItcmRmLXN5bnRheC1ucyMiIHhtbG5zOnNvZGlwb2RpPSJodHRwOi8vc29kaXBvZGkuc291cmNlZm9yZ2UubmV0L0RURC9zb2RpcG9kaS0wLmR0ZCIgeG1sbnM6c3ZnPSJodHRwOi8vd3d3LnczLm9yZy8yMDAwL3N2ZyIgeG1sbnM9Imh0dHA6Ly93d3cudzMub3JnLzIwMDAvc3ZnIiB4bWxuczp4bGluaz0iaHR0cDovL3d3dy53My5vcmcvMTk5OS94bGluayIgdmVyc2lvbj0iMS4xIiBpZD0ic3ZnMTc4ODAiIGlua3NjYXBlOnZlcnNpb249IjAuOTIuMyAoMjQwNTU0NiwgMjAxOC0wMy0xMSkiIHNvZGlwb2RpOmRvY25hbWU9ImxhcHRvcF93aW5kb3dzLnN2ZyIgeD0iMHB4IiB5PSIwcHgiIHZpZXdCb3g9IjAgMCA4MS43NSA1Ni4yNiIgc3R5bGU9ImVuYWJsZS1iYWNrZ3JvdW5kOm5ldyAwIDAgODEuNzUgNTYuMjY7IiB4bWw6c3BhY2U9InByZXNlcnZlIj4mI3hhOzxzb2RpcG9kaTpuYW1lZHZpZXcgYm9yZGVyY29sb3I9IiM2NjY2NjYiIGJvcmRlcm9wYWNpdHk9IjEiIGZpdC1tYXJnaW4tYm90dG9tPSIwIiBmaXQtbWFyZ2luLWxlZnQ9IjAiIGZpdC1tYXJnaW4tcmlnaHQ9IjAiIGZpdC1tYXJnaW4tdG9wPSIwIiBncmlkdG9sZXJhbmNlPSIxMCIgZ3VpZGV0b2xlcmFuY2U9IjEwIiBpZD0ibmFtZWR2aWV3MTc4ODIiIGlua3NjYXBlOmN1cnJlbnQtbGF5ZXI9InN2ZzE3ODgwIiBpbmtzY2FwZTpjeD0iNTQuNSIgaW5rc2NhcGU6Y3k9IjM3LjUwNzAzOSIgaW5rc2NhcGU6cGFnZW9wYWNpdHk9IjAiIGlua3NjYXBlOnBhZ2VzaGFkb3c9IjIiIGlua3NjYXBlOndpbmRvdy1oZWlnaHQ9IjEwMTciIGlua3NjYXBlOndpbmRvdy1tYXhpbWl6ZWQ9IjEiIGlua3NjYXBlOndpbmRvdy13aWR0aD0iMTkyMCIgaW5rc2NhcGU6d2luZG93LXg9Ii04IiBpbmtzY2FwZTp3aW5kb3cteT0iLTgiIGlua3NjYXBlOnpvb209IjExLjI1ODA0NiIgb2JqZWN0dG9sZXJhbmNlPSIxMCIgcGFnZWNvbG9yPSIjZmZmZmZmIiBzaG93Z3JpZD0iZmFsc2UiPiYjeGE7CTwvc29kaXBvZGk6bmFtZWR2aWV3PiYjeGE7PGcgaWQ9ImcxNzg3OCIgdHJhbnNmb3JtPSJ0cmFuc2xhdGUoLTAuNzUsLTAuNzUxMzIxKSI+JiN4YTsJPHRpdGxlIGlkPSJ0aXRsZTE3ODI4Ij5QYWdlLTE8L3RpdGxlPiYjeGE7CTxnIGlkPSJncm91cDM3NjQtMSIgdHJhbnNmb3JtPSJ0cmFuc2xhdGUoMC43NSwtMC43NTg2NzkpIj4mI3hhOwkJPHRpdGxlIGlkPSJ0aXRsZTE3ODMwIj5MYXB0b3AgKFdpbmRvd3MpPC90aXRsZT4mI3hhOwkJPGcgaWQ9InNoYXBlMzc2NS0yIiB0cmFuc2Zvcm09InRyYW5zbGF0ZSg2Ljc1LC00LjUpIj4mI3hhOwkJCTx0aXRsZSBpZD0idGl0bGUxNzgzMiI+cmVjdDE0OTc8L3RpdGxlPiYjeGE7CQkJJiN4YTsJCQkJPHBhdGggaWQ9InBhdGgxNzgzNCIgaW5rc2NhcGU6Y29ubmVjdG9yLWN1cnZhdHVyZT0iMCIgc3R5bGU9ImZpbGw6I0ZDRkNGQztzdHJva2U6IzU1NkE4QTtzdHJva2Utd2lkdGg6MS41O3N0cm9rZS1taXRlcmxpbWl0OjM7IiBkPSIgICAgIE0wLDU0Ljc2YzAsMS42NiwxLjM0LDMsMywzaDYzYzEuNjYsMCwzLTEuMzQsMy0zdi00NWMwLTEuNjYtMS4zNC0zLTMtM0gzYy0xLjY2LDAtMywxLjM0LTMsM1Y1NC43NnoiLz4mI3hhOwkJPC9nPiYjeGE7CQk8ZyBpZD0ic2hhcGUzNzY2LTQiPiYjeGE7CQkJPHRpdGxlIGlkPSJ0aXRsZTE3ODM3Ij5wYXRoMTQ5OTwvdGl0bGU+JiN4YTsJCQk8cGF0aCBpZD0icGF0aDE3ODM5IiBpbmtzY2FwZTpjb25uZWN0b3ItY3VydmF0dXJlPSIwIiBzdHlsZT0iZmlsbDojNDE0MDQyOyIgZD0iTTc4Ljc1LDU3Ljc2SDMuMTMgICAgIEMxLjY4LDU3Ljg3LDAuMzYsNTYuOTIsMCw1NS41MWg4MS43NUM4MS43NSw1NS41MSw4MC44NCw1Ny43Niw3OC43NSw1Ny43NnoiLz4mI3hhOwkJPC9nPiYjeGE7CQk8ZyBpZD0ic2hhcGUzNzY3LTYiIHRyYW5zZm9ybT0idHJhbnNsYXRlKDAuMDc1LC0yLjI1KSI+JiN4YTsJCQk8dGl0bGUgaWQ9InRpdGxlMTc4NDIiPnBvbHlnb24xNTAxPC90aXRsZT4mI3hhOwkJCTxwYXRoIGlkPSJwYXRoMTc4NDQiIGlua3NjYXBlOmNvbm5lY3Rvci1jdXJ2YXR1cmU9IjAiIHN0eWxlPSJmaWxsOiM1NTZBOEE7IiBkPSJNNzYuNDIsNTQuMDFsNS4yNSwzLjc1SDBsNS45NC0zLjc1SDc2LjQyeiIvPiYjeGE7CQk8L2c+JiN4YTsJCTxnIGlkPSJzaGFwZTM3NjgtOCIgdHJhbnNmb3JtPSJ0cmFuc2xhdGUoMywtMi4yNSkiPiYjeGE7CQkJPHRpdGxlIGlkPSJ0aXRsZTE3ODQ3Ij5wb2x5Z29uMTUwMzwvdGl0bGU+JiN4YTsJCQk8cGF0aCBpZD0icGF0aDE3ODQ5IiBpbmtzY2FwZTpjb25uZWN0b3ItY3VydmF0dXJlPSIwIiBzdHlsZT0iZmlsbDojRTRFREYxOyIgZD0iTTczLjAyLDU1LjUxbDIuNzMsMi4yNUgwbDMuNDUtMi4yNUg3My4wMnoiLz4mI3hhOwkJPC9nPiYjeGE7CQk8ZyBpZD0ic2hhcGUzNzY5LTEwIiB0cmFuc2Zvcm09InRyYW5zbGF0ZSgxMS4yNSwtMTAuNSkiPiYjeGE7CQkJPHRpdGxlIGlkPSJ0aXRsZTE3ODUyIj5yZWN0MTUwNTwvdGl0bGU+JiN4YTsJCQk8cmVjdCBpZD0icmVjdDE3ODU0IiB5PSIxOC4wMSIgc3R5bGU9ImZpbGw6IzJCQzdGNDsiIHdpZHRoPSI2MCIgaGVpZ2h0PSIzOS43NSIvPiYjeGE7CQk8L2c+JiN4YTsJCTxnIGlkPSJzaGFwZTM3NzAtMTIiIHRyYW5zZm9ybT0idHJhbnNsYXRlKDI2LjI1LC0zMS41NzUpIj4mI3hhOwkJCTx0aXRsZSBpZD0idGl0bGUxNzg1NyI+cG9seWdvbjE1MDc8L3RpdGxlPiYjeGE7CQkJPHBhdGggaWQ9InBhdGgxNzg1OSIgaW5rc2NhcGU6Y29ubmVjdG9yLWN1cnZhdHVyZT0iMCIgc3R5bGU9ImZpbGw6I0ZGRkZGRjsiIGQ9Ik0wLDQ5LjI5djguNDdoMTEuMjVWNDcuMzNMMCw0OS4yOXoiLz4mI3hhOwkJPC9nPiYjeGE7CQk8ZyBpZD0ic2hhcGUzNzcxLTE0IiB0cmFuc2Zvcm09InRyYW5zbGF0ZSgzOSwtMzEuNSkiPiYjeGE7CQkJPHRpdGxlIGlkPSJ0aXRsZTE3ODYyIj5wb2x5Z29uMTUwOTwvdGl0bGU+JiN4YTsJCQk8cGF0aCBpZD0icGF0aDE3ODY0IiBpbmtzY2FwZTpjb25uZWN0b3ItY3VydmF0dXJlPSIwIiBzdHlsZT0iZmlsbDojRkZGRkZGOyIgZD0iTTEzLjUsNDUuNDlMMCw0Ny4yOHYxMC40OGgxMy41VjQ1LjQ5eiIvPiYjeGE7CQk8L2c+JiN4YTsJCTxnIGlkPSJzaGFwZTM3NzItMTYiIHRyYW5zZm9ybT0idHJhbnNsYXRlKDM5LC0xNy43Mzc1KSI+JiN4YTsJCQk8dGl0bGUgaWQ9InRpdGxlMTc4NjciPnBvbHlnb24xNTExPC90aXRsZT4mI3hhOwkJCTxwYXRoIGlkPSJwYXRoMTc4NjkiIGlua3NjYXBlOmNvbm5lY3Rvci1jdXJ2YXR1cmU9IjAiIHN0eWxlPSJmaWxsOiNGRkZGRkY7IiBkPSJNMTMuNSw1Ny43NlY0NS41SDB2MTAuMzhMMTMuNSw1Ny43NnoiLz4mI3hhOwkJPC9nPiYjeGE7CQk8ZyBpZD0ic2hhcGUzNzczLTE4IiB0cmFuc2Zvcm09InRyYW5zbGF0ZSgyNi4yNSwtMTkuODkpIj4mI3hhOwkJCTx0aXRsZSBpZD0idGl0bGUxNzg3MiI+cG9seWdvbjE1MTM8L3RpdGxlPiYjeGE7CQkJPHBhdGggaWQ9InBhdGgxNzg3NCIgaW5rc2NhcGU6Y29ubmVjdG9yLWN1cnZhdHVyZT0iMCIgc3R5bGU9ImZpbGw6I0ZGRkZGRjsiIGQ9Ik0wLDU2LjI0bDExLjI1LDEuNTJWNDcuNjVIMFY1Ni4yNHoiLz4mI3hhOwkJPC9nPiYjeGE7CTwvZz4mI3hhOzwvZz4mI3hhOzwvc3ZnPg==;" parent="1" vertex="1">
          <mxGeometry x="224" y="470" width="82" height="56" as="geometry" />
        </mxCell>
        <mxCell id="4g_t7paAZGqGhglVZUK9-3" style="edgeStyle=orthogonalEdgeStyle;html=1;startArrow=none;startFill=0;startSize=10;endArrow=none;endFill=0;endSize=10;strokeWidth=3;fontSize=11;fontColor=#FFFFFF;strokeColor=#FFFFFF;dashed=1;rounded=0;targetPerimeterSpacing=33;" parent="1" source="4g_t7paAZGqGhglVZUK9-2" target="4g_t7paAZGqGhglVZUK9-5" edge="1">
          <mxGeometry relative="1" as="geometry">
            <mxPoint x="436" y="436" as="sourcePoint" />
            <Array as="points">
              <mxPoint x="270" y="760" />
              <mxPoint x="850" y="760" />
            </Array>
            <mxPoint x="1216" y="436" as="targetPoint" />
          </mxGeometry>
        </mxCell>
        <mxCell id="4g_t7paAZGqGhglVZUK9-29" value="&lt;font style=&quot;font-size: 16px&quot;&gt;Browser Request&lt;br&gt;&lt;/font&gt;" style="edgeLabel;html=1;align=center;verticalAlign=middle;resizable=0;points=[];labelBackgroundColor=none;fontColor=#FFFFFF;" parent="4g_t7paAZGqGhglVZUK9-3" vertex="1" connectable="0">
          <mxGeometry x="0.4473" y="1" relative="1" as="geometry">
            <mxPoint x="-120" y="-19" as="offset" />
          </mxGeometry>
        </mxCell>
        <mxCell id="4g_t7paAZGqGhglVZUK9-5" value="Apache HTTP Server" style="shape=image;verticalLabelPosition=bottom;labelBackgroundColor=none;verticalAlign=top;aspect=fixed;imageAspect=0;image=data:image/svg+xml,PHN2ZyB4bWxuczpjYz0iaHR0cDovL2NyZWF0aXZlY29tbW9ucy5vcmcvbnMjIiB4bWxuczpkYz0iaHR0cDovL3B1cmwub3JnL2RjL2VsZW1lbnRzLzEuMS8iIHhtbG5zOmlua3NjYXBlPSJodHRwOi8vd3d3Lmlua3NjYXBlLm9yZy9uYW1lc3BhY2VzL2lua3NjYXBlIiB4bWxuczpyZGY9Imh0dHA6Ly93d3cudzMub3JnLzE5OTkvMDIvMjItcmRmLXN5bnRheC1ucyMiIHhtbG5zOnNvZGlwb2RpPSJodHRwOi8vc29kaXBvZGkuc291cmNlZm9yZ2UubmV0L0RURC9zb2RpcG9kaS0wLmR0ZCIgeG1sbnM6c3ZnPSJodHRwOi8vd3d3LnczLm9yZy8yMDAwL3N2ZyIgeG1sbnM9Imh0dHA6Ly93d3cudzMub3JnLzIwMDAvc3ZnIiB4bWxuczp4bGluaz0iaHR0cDovL3d3dy53My5vcmcvMTk5OS94bGluayIgdmVyc2lvbj0iMS4xIiBpZD0ic3ZnMTM3OTMiIGlua3NjYXBlOnZlcnNpb249IjAuOTIuMyAoMjQwNTU0NiwgMjAxOC0wMy0xMSkiIHNvZGlwb2RpOmRvY25hbWU9IndlYl9hcHBsaWNhdGlvbl9zZXJ2ZXJfMS5zdmciIHg9IjBweCIgeT0iMHB4IiB2aWV3Qm94PSIwIDAgODQuMTQgNzYuNzQiIHN0eWxlPSJlbmFibGUtYmFja2dyb3VuZDpuZXcgMCAwIDg0LjE0IDc2Ljc0OyIgeG1sOnNwYWNlPSJwcmVzZXJ2ZSI+JiN4YTs8c29kaXBvZGk6bmFtZWR2aWV3IGJvcmRlcmNvbG9yPSIjNjY2NjY2IiBib3JkZXJvcGFjaXR5PSIxIiBmaXQtbWFyZ2luLWJvdHRvbT0iMCIgZml0LW1hcmdpbi1sZWZ0PSIwIiBmaXQtbWFyZ2luLXJpZ2h0PSIwIiBmaXQtbWFyZ2luLXRvcD0iMCIgZ3JpZHRvbGVyYW5jZT0iMTAiIGd1aWRldG9sZXJhbmNlPSIxMCIgaWQ9Im5hbWVkdmlldzEzNzk1IiBpbmtzY2FwZTpjdXJyZW50LWxheWVyPSJzdmcxMzc5MyIgaW5rc2NhcGU6Y3g9IjU2LjA5NTY4MiIgaW5rc2NhcGU6Y3k9IjUxLjE2MTQwMSIgaW5rc2NhcGU6cGFnZW9wYWNpdHk9IjAiIGlua3NjYXBlOnBhZ2VzaGFkb3c9IjIiIGlua3NjYXBlOndpbmRvdy1oZWlnaHQ9IjEwMTciIGlua3NjYXBlOndpbmRvdy1tYXhpbWl6ZWQ9IjEiIGlua3NjYXBlOndpbmRvdy13aWR0aD0iMTkyMCIgaW5rc2NhcGU6d2luZG93LXg9Ii04IiBpbmtzY2FwZTp3aW5kb3cteT0iLTgiIGlua3NjYXBlOnpvb209IjguNDczNjAyNSIgb2JqZWN0dG9sZXJhbmNlPSIxMCIgcGFnZWNvbG9yPSIjZmZmZmZmIiBzaG93Z3JpZD0iZmFsc2UiPiYjeGE7CTwvc29kaXBvZGk6bmFtZWR2aWV3PiYjeGE7PGcgaWQ9ImcxMzc5MSI+JiN4YTsJPHRpdGxlIGlkPSJ0aXRsZTEzNzI5Ij5QYWdlLTE8L3RpdGxlPiYjeGE7CTxnIGlkPSJncm91cDc5MzQtMSI+JiN4YTsJCTx0aXRsZSBpZD0idGl0bGUxMzczMSI+V2ViIEFwcGxpY2F0aW9uIFNlcnZlciAjMTwvdGl0bGU+JiN4YTsJCTxnIGlkPSJncm91cDc5MzUtMiI+JiN4YTsJCQk8dGl0bGUgaWQ9InRpdGxlMTM3MzMiPkJpelRhbGsgU2VydmVyIEJBTS43NjwvdGl0bGU+JiN4YTsJCQk8ZyBpZD0ic2hhcGU3OTM2LTMiPiYjeGE7CQkJCTx0aXRsZSBpZD0idGl0bGUxMzczNSI+U2VydmVyLjYzPC90aXRsZT4mI3hhOwkJCQk8cGF0aCBpZD0icGF0aDEzNzM3IiBpbmtzY2FwZTpjb25uZWN0b3ItY3VydmF0dXJlPSIwIiBzdHlsZT0iZmlsbDojM0Y1NzY1OyIgZD0iTTEuODYsNDYuM3YyNC4wN2wyMi40NCw0LjExdi0yNi45TDEuODYsNDYuM3ogICAgICAgTTEuODYsMzkuNTh2NC42N2wyMi41NCwxLjEzdi01LjQ1TDEuODYsMzkuNTh6IE0yNC40LDMyLjQ5bC0yMi40OSwwLjN2NC42N2wyMi40OSwwLjQ5VjMyLjQ5eiBNMjQuNTEsMjQuOTJsLTIyLjYsMS4xNHY0Ljc0ICAgICAgbDIyLjYtMC40M1YyNC45MnogTTI0LjU3LDE3LjM1TDIuMDMsMTkuMjZ2NC44OWwyMi41NC0xLjM1VjE3LjM1eiBNMjQuNTcsOS45MmwtMjIuNSwyLjYydjQuOTVsMjIuNS0yLjA2VjkuOTJ6IE0yNC42MiwyLjQxICAgICAgTDIuMTMsNS44OXY0Ljc0TDI0LjYyLDcuOFYyLjQxeiBNMjYuOTEsMGwxMy42LDUuNjdsLTAuNTQsNjQuN2wtMTMuODMsNi4zN0wwLDcxLjY1VjQuMzlMMjYuOTEsMHoiLz4mI3hhOwkJCTwvZz4mI3hhOwkJCTxnIGlkPSJncm91cDc5MzctNSIgdHJhbnNmb3JtPSJ0cmFuc2xhdGUoMzkuMTQzMywtNi4yNjI4OSkiPiYjeGE7CQkJCTx0aXRsZSBpZD0idGl0bGUxMzc0MCI+QnVzaW5lc3MgQWN0aXZpdHkgTW9uaXRvcmluZy43MjwvdGl0bGU+JiN4YTsJCQkJPGcgaWQ9Imdyb3VwNzkzOC02Ij4mI3hhOwkJCQkJPHRpdGxlIGlkPSJ0aXRsZTEzNzQyIj5MT0dJQyBBcHBzICMxPC90aXRsZT4mI3hhOwkJCQkJPGcgaWQ9InNoYXBlNzkzOS03Ij4mI3hhOwkJCQkJCTx0aXRsZSBpZD0idGl0bGUxMzc0NCI+U2hlZXQuNzkzOTwvdGl0bGU+JiN4YTsJCQkJCQk8cGF0aCBpZD0icGF0aDEzNzQ2IiBpbmtzY2FwZTpjb25uZWN0b3ItY3VydmF0dXJlPSIwIiBzdHlsZT0iZmlsbDojM0Y1NzY1OyIgZD0iTTQzLjI4LDQzLjc5Yy00MS42MiwwLTQxLjYyLDAtNDEuNjIsMCAgICAgICAgQzAuMjgsNDMuNzksMCw0NC4xMiwwLDQ1LjVjMCwyOS41OCwwLDI5LjU4LDAsMjkuNThjMCwxLjM4LDAuMjgsMS42NiwxLjY2LDEuNjZjNDEuNjIsMCw0MS42MiwwLDQxLjYyLDAgICAgICAgIGMxLjQ0LDAsMS43Mi0wLjI4LDEuNzItMS42NmMwLTI5LjU4LDAtMjkuNTgsMC0yOS41OEM0NSw0NC4xMiw0NC43Miw0My43OSw0My4yOCw0My43OXoiLz4mI3hhOwkJCQkJPC9nPiYjeGE7CQkJCQk8ZyBpZD0ic2hhcGU3OTQwLTkiIHRyYW5zZm9ybT0idHJhbnNsYXRlKDEuMTA3MDEsLTEuNTQ4MDEpIj4mI3hhOwkJCQkJCTx0aXRsZSBpZD0idGl0bGUxMzc0OSI+U2hlZXQuNzk0MDwvdGl0bGU+JiN4YTsJCQkJCQk8cGF0aCBpZD0icGF0aDEzNzUxIiBpbmtzY2FwZTpjb25uZWN0b3ItY3VydmF0dXJlPSIwIiBzdHlsZT0iZmlsbDojMDBCMDUwOyIgZD0iTTAsNTEuNTN2MjUuMjFoNDIuNzlWNTEuNTNIMHoiLz4mI3hhOwkJCQkJPC9nPiYjeGE7CQkJCQk8ZyBpZD0ic2hhcGU3OTQxLTExIiB0cmFuc2Zvcm09InRyYW5zbGF0ZSgxLjE2MjM2LC0yNy42NDMpIj4mI3hhOwkJCQkJCTx0aXRsZSBpZD0idGl0bGUxMzc1NCI+U2hlZXQuNzk0MTwvdGl0bGU+JiN4YTsJCQkJCQk8cGF0aCBpZD0icGF0aDEzNzU2IiBpbmtzY2FwZTpjb25uZWN0b3ItY3VydmF0dXJlPSIwIiBzdHlsZT0iZmlsbDojMjZBOUUwOyIgZD0iTTQuNDgsNzQuNTNjMCwxLjI3LTAuOTksMi4yMS0yLjIxLDIuMjEgICAgICAgIFMwLDc1LjgsMCw3NC41M2MwLTEuMjIsMS4wNS0yLjIxLDIuMjctMi4yMVM0LjQ4LDczLjMxLDQuNDgsNzQuNTN6Ii8+JiN4YTsJCQkJCTwvZz4mI3hhOwkJCQkJPGcgaWQ9InNoYXBlNzk0Mi0xMyIgdHJhbnNmb3JtPSJ0cmFuc2xhdGUoMi4xMDMzMiwtMjguODU5MykiPiYjeGE7CQkJCQkJPHRpdGxlIGlkPSJ0aXRsZTEzNzU5Ij5TaGVldC43OTQyPC90aXRsZT4mI3hhOwkJCQkJCTxwYXRoIGlkPSJwYXRoMTM3NjEiIGlua3NjYXBlOmNvbm5lY3Rvci1jdXJ2YXR1cmU9IjAiIHN0eWxlPSJmaWxsOiNGRkZGRkY7IiBkPSJNMC44OSw3NS41MmwwLjc3LTAuNzJIMS4wNUwwLDc1Ljc0bDEuMDUsMSAgICAgICAgaDAuNjFsLTAuNzctMC43OGgxLjc3di0wLjQ0SDAuODl6Ii8+JiN4YTsJCQkJCTwvZz4mI3hhOwkJCQkJPGcgaWQ9InNoYXBlNzk0My0xNSIgdHJhbnNmb3JtPSJ0cmFuc2xhdGUoNi40NzYwMSwtMjguODU5MykiPiYjeGE7CQkJCQkJPHRpdGxlIGlkPSJ0aXRsZTEzNzY0Ij5TaGVldC43OTQzPC90aXRsZT4mI3hhOwkJCQkJCTxwYXRoIGlkPSJwYXRoMTM3NjYiIGlua3NjYXBlOmNvbm5lY3Rvci1jdXJ2YXR1cmU9IjAiIHN0eWxlPSJmaWxsOiNGRkZGRkY7IiBkPSJNMCw3NC42NHYyLjFoMzcuNDd2LTIuMUgweiIvPiYjeGE7CQkJCQk8L2c+JiN4YTsJCQkJCTxnIGlkPSJzaGFwZTc5NDQtMTciIHRyYW5zZm9ybT0idHJhbnNsYXRlKDExLjU2ODMsLTkuNjE5NzYpIj4mI3hhOwkJCQkJCTx0aXRsZSBpZD0idGl0bGUxMzc2OSI+U2hlZXQuNzk0NDwvdGl0bGU+JiN4YTsJCQkJCQk8cGF0aCBpZD0icGF0aDEzNzcxIiBpbmtzY2FwZTpjb25uZWN0b3ItY3VydmF0dXJlPSIwIiBzdHlsZT0iZmlsbDojRkZGRkZGOyIgZD0iTTIxLjA5LDcxLjkzYzAtMS4xMS0wLjg5LTIuMDUtMi4wNS0yLjA1ICAgICAgICBjLTMuMSwwLTMuMSwwLTMuMSwwYy0yLjcxLTIuNjUtMi43MS0yLjY1LTIuNzEtMi42NWMtNi42NCwwLTYuNjQsMC02LjY0LDBjLTIuODMsMi43MS0yLjgzLDIuNzEtMi44MywyLjcxICAgICAgICBjLTEuNzEsMC4xNi0zLjEsMS42LTMuMSwzLjM3YzAsMC42NiwwLDAuNjYsMCwwLjY2Yy0wLjY2LDAtMC42NiwwLTAuNjYsMGMwLDEuMzMsMCwxLjMzLDAsMS4zM2MyLjg4LDAsMi44OCwwLDIuODgsMCAgICAgICAgYzAuMjcsMC44MywxLjA1LDEuNDQsMS45NCwxLjQ0YzAuODgsMCwxLjYtMC42MSwxLjg4LTEuNDRjOC40MSwwLDguNDEsMCw4LjQxLDBjMC4zMywwLjgzLDEuMDUsMS40NCwxLjk0LDEuNDQgICAgICAgIGMwLjg4LDAsMS42LTAuNjEsMS45NC0xLjQ0YzIuNzYsMCwyLjc2LDAsMi43NiwwYzAtMS4zMywwLTEuMzMsMC0xLjMzYy0wLjY2LDAtMC42NiwwLTAuNjYsMEwyMS4wOSw3MS45M3ogTTE5Ljc2LDcxLjkzICAgICAgICBjMCwyLjA0LDAsMi4wNCwwLDIuMDRjLTAuNzcsMC0wLjc3LDAtMC43NywwYy0wLjM0LTAuNzctMS4wNi0xLjM4LTEuOTQtMS4zOGMtMC44OSwwLTEuNjEsMC42MS0xLjk0LDEuMzggICAgICAgIGMtNS41OSwwLTUuNTksMC01LjU5LDBjMC0yLjcxLDAtMi43MSwwLTIuNzFjOS41MiwwLDkuNTIsMCw5LjUyLDBDMTkuNDgsNzEuMjYsMTkuNzYsNzEuNTQsMTkuNzYsNzEuOTN6IE0xNCw2OS44OCAgICAgICAgYy00LjQ4LDAtNC40OCwwLTQuNDgsMGMwLTEuMzIsMC0xLjMyLDAtMS4zMmMzLjE2LDAsMy4xNiwwLDMuMTYsMEwxNCw2OS44OHogTTcuMDgsNjguNTZjMS4xMSwwLDEuMTEsMCwxLjExLDAgICAgICAgIGMwLDEuMzIsMCwxLjMyLDAsMS4zMmMtMi40MywwLTIuNDMsMC0yLjQzLDBMNy4wOCw2OC41NnogTTIuMDUsNzMuMzFjMC0xLjE2LDAuODgtMi4wNSwyLjEtMi4wNWM0LjA0LDAsNC4wNCwwLDQuMDQsMCAgICAgICAgYzAsMi43MSwwLDIuNzEsMCwyLjcxYy0xLjQ5LDAtMS40OSwwLTEuNDksMGMtMC4yOC0wLjc3LTEtMS4zOC0xLjg4LTEuMzhjLTAuODksMC0xLjY3LDAuNjEtMS45NCwxLjM4Yy0wLjgzLDAtMC44MywwLTAuODMsMCAgICAgICAgVjczLjMxeiBNNC44Miw3NS4zYy0wLjM5LDAtMC42Ny0wLjI4LTAuNjctMC42NmMwLTAuMzMsMC4yOC0wLjY3LDAuNjctMC42N2MwLjMzLDAsMC42NiwwLjM0LDAuNjYsMC42NyAgICAgICAgQzUuNDgsNzUuMDIsNS4xNSw3NS4zLDQuODIsNzUuM3ogTTE3LjA1LDc1LjNjLTAuMzksMC0wLjY3LTAuMjgtMC42Ny0wLjY2YzAtMC4zMywwLjI4LTAuNjcsMC42Ny0wLjY3czAuNjYsMC4zNCwwLjY2LDAuNjcgICAgICAgIEMxNy43MSw3NS4wMiwxNy40NCw3NS4zLDE3LjA1LDc1LjN6Ii8+JiN4YTsJCQkJCTwvZz4mI3hhOwkJCQkJPGcgaWQ9InNoYXBlNzk0NS0xOSIgdHJhbnNmb3JtPSJ0cmFuc2xhdGUoMC45NjQ4ODMsLTEuNTIyNTkpIj4mI3hhOwkJCQkJCTx0aXRsZSBpZD0idGl0bGUxMzc3NCI+U2hlZXQuNzk0NTwvdGl0bGU+JiN4YTsJCQkJCQk8cGF0aCBpZD0icGF0aDEzNzc2IiBpbmtzY2FwZTpjb25uZWN0b3ItY3VydmF0dXJlPSIwIiBzdHlsZT0iZmlsbDojMDBCMEYwOyIgZD0iTTAsNTEuNTJ2MjUuMjJoNDIuODVWNTEuNTJIMHoiLz4mI3hhOwkJCQkJPC9nPiYjeGE7CQkJCTwvZz4mI3hhOwkJCTwvZz4mI3hhOwkJPC9nPiYjeGE7CQk8ZyBpZD0iZ3JvdXA3OTQ2LTIxIiB0cmFuc2Zvcm09InRyYW5zbGF0ZSg1MS40ODgzLC0xMC45ODE4KSI+JiN4YTsJCQk8dGl0bGUgaWQ9InRpdGxlMTM3ODIiPldlYnNpdGVzPC90aXRsZT4mI3hhOwkJCTxnIGlkPSJzaGFwZTc5NDctMjIiPiYjeGE7CQkJCTx0aXRsZSBpZD0idGl0bGUxMzc4NCI+U2hlZXQuNzk0NzwvdGl0bGU+JiN4YTsJCQkJPHBhdGggaWQ9InBhdGgxMzc4NiIgaW5rc2NhcGU6Y29ubmVjdG9yLWN1cnZhdHVyZT0iMCIgc3R5bGU9ImZpbGw6I0ZGRkZGRjsiIGQ9Ik0xMC4xLDU2LjUzYzUuNTksMCwxMC4yMSw0LjQ5LDEwLjIxLDEwLjA1ICAgICAgYzAsNS42Ny00LjYyLDEwLjE2LTEwLjIxLDEwLjE2QzQuNTIsNzYuNzQsMCw3Mi4yNSwwLDY2LjU4QzAsNjEuMDIsNC41Miw1Ni41MywxMC4xLDU2LjUzeiBNMTMuODYsNzQuOTIgICAgICBjLTAuMzItMS43MSwwLjY1LTQuNiwwLjExLTUuMTNjLTAuMjEtMC4xMS0wLjQzLTAuMjItMC42NC0wLjExYy0wLjQzLDAuMTEtMC44NiwwLjMyLTEuMTksMC4yMmMtMS44Mi0wLjg2LTAuNzUtMy43NSwxLjA4LTQuMzkgICAgICBjMC4zMi0wLjExLDAuNjQtMC4xMSwwLjk3LTAuMTFjMC41My0wLjEsMC44Ni0wLjEsMC44NiwwLjIyYzAsMC40MywwLjg2LDAuNzUsMS4wNywwLjc1YzAuMTEsMCwwLjExLTAuMzIsMC4yMi0wLjMyICAgICAgYzAuNzUsMCwxLjI4LDAuNDIsMS4zOSwwLjFjMC4yMi0xLjA3LDAuMTEtMC41My0wLjc1LTAuNjRjLTAuMzItMC4xMS0wLjExLTAuNjQtMC40My0wLjY0Yy0wLjIxLTAuMTEsMC4xMSwwLjY0LTAuMjEsMC40MyAgICAgIGMtMC40My0wLjMyLTAuNjUtMS4wNy0xLjA4LTEuMThjLTAuNTQtMC4xLDAuMzIsMC40MywwLjQzLDAuNzVjMC4xMSwwLjMyLTAuMzIsMC43NS0wLjU0LDAuNDNjLTAuMS0wLjExLDAuNDMtMC40My0wLjIxLTAuODYgICAgICBjLTAuMTEtMC4yMS0wLjQzLTAuMjEtMC42NSwwYy0wLjMyLDAuMzItMC40MywwLjY0LTAuNTMsMC42NGMtMC4zMywwLjIyLTAuNTQsMC4yMi0wLjg2LDAuMTFjLTAuNDMtMC4xMS0wLjMyLTEuMDcsMC4xLTAuOTYgICAgICBjMS4yOSwwLjMyLDAuMTEtMC40MywwLjQzLTAuNjRjMC4xMS0wLjExLDAuNTQtMC40MywwLjc2LTAuNzVjMC4yMS0wLjIyLDAuMS0wLjg2LDAuNTMtMC43NWMwLjIyLDAsMC4xMSwwLjQzLDAuMzMsMC41MyAgICAgIGMwLjEsMC4xMSwwLjQzLDAsMC42NCwwYzAuMzIsMCwwLjMyLTAuMjEsMC4zMi0wLjUzYzAtMC40MywwLjc2LTAuMzIsMC43Ni0wLjU0Yy0wLjExLTAuMzEtMC44NiwwLjExLTAuODYtMC4zMSAgICAgIGMwLTAuNTQsMC42NC0wLjY1LDAuMjEtMC43NWMtMC4zMi0wLjExLTAuNzUsMC4yMS0wLjY0LDAuOTZjMC4xLDAuNzUsMC4yMSwxLjA3LTAuMzMsMC44NWMtMC40My0wLjMyLDAuMTEtMC44NS0wLjMyLTAuNjQgICAgICBjLTAuMzIsMC4yMS0wLjU0LDAuMzItMC41NC0wLjIxYzAtMC40MywwLjg2LTEuNzEsMS41MS0xLjkzYy0xLjE5LTAuOTYtMi41OC0xLjYtNC4xOS0xLjgybDAsMGMwLDAuODYsMCwxLjQtMC4xMSwxLjgyICAgICAgYzAsMC41NC0xLjYxLDAuNjUtMS44MywxLjYxYy0wLjIxLDAuODUtMC41MywwLjMyLTEuMDctMC4zM2MtMC41NC0wLjYzLDAuMTEtMS40OS0wLjIxLTIuMDNjLTAuMjItMC41My0xLjE5LDAuMjItMS4xOS0wLjMyICAgICAgYzAtMC4yMSwwLjIyLTAuNDMsMC4yMi0wLjUzYy0wLjExLDAuMS0wLjIyLDAuMS0wLjMzLDAuMWMtMC4zMiwwLjIyLTAuNTMsMC44Ni0wLjY0LDAuOTdjLTAuMzIsMC40MywwLjQzLDAuMzIsMC43NSwwLjc1ICAgICAgYzAuNDMsMC42NCwwLjc1LDEuMDYsMC41NCwxLjM5Yy0wLjExLDAuMzItMS40LDAtMS4xOC0wLjU0YzAuMzItMC41MywwLjExLTAuNjQtMC4yMi0wLjc1Yy0wLjMyLDAtMC4zMiwwLjQzLTAuMzIsMC45NiAgICAgIGMwLDAuNDQtMC44NiwwLjU0LTEuMjksMC45N0M0LjMsNjIuMyw1LjA1LDYyLjczLDUuNyw2Mi45NWMwLjY0LDAuMjEsMC4yMS0wLjg2LDAuNDMtMS40YzAuMjEtMC43NSwwLjk2LTAuMSwxLjUsMC41NCAgICAgIGMwLjQzLDAuNjQsMS4xOCwxLjUsMC4yMiwxLjkzYy0xLjYyLDAuNjMtMi4yNiwxLjM4LTIuNTgsMi4wM2MtMC4zMywwLjY0LDAsMC45Ni0wLjIyLDEuMTdjLTAuMjEsMC4yMi0wLjIxLTAuMS0wLjQzLTAuNjQgICAgICBjLTAuMjEtMC4zMi0wLjk2LTAuMzItMS4yOSwwLjMyYy0wLjIxLDAuMTEtMC4yMSwwLjQzLTAuMjEsMC43NWMwLDEuMDcsMC43NS0wLjMyLDEuMTgtMC4xMWMwLjU0LDAuMTEtMC40MywwLjIyLTAuMzIsMC42NCAgICAgIGMwLjEsMC40MywwLjc1LTAuMjEsMC41NCwwLjc1Yy0wLjExLDAuNTQsMC43NSwwLjExLDEuMjktMC4xYzEuMTgtMC40MywyLjA0LDEuNDksMi45LDEuODJjMC45NiwwLjMyLDEuMjksMC41MywxLjA3LDAuOTYgICAgICBjLTAuNjQsMS4yOC0xLjkzLDIuMTQtMi41OCwzLjYzYzAuODYsMC4zMiwxLjk0LDAuNDMsMi45LDAuNDNDMTEuNSw3NS42NywxMi42OCw3NS40NiwxMy44Niw3NC45MnogTTE5LjAyLDY4LjcyICAgICAgYy0wLjIxLDAtMC40MywwLjExLTAuNTQsMC4xMWMtMC41My0wLjIyLTAuMjEtMi4zNi0wLjk2LTIuMjVjLTAuMzIsMC4xMSwwLjIxLDEuNzEsMC45NiwyLjU3YzAuMTEsMC4xLDAuMjIsMCwwLjQ0LDAgICAgICBDMTguOTIsNjkuMDQsMTkuMDIsNjguODMsMTkuMDIsNjguNzJ6IE0xOC40OCw3MC4yMmMtMC44Ni0wLjIyLTEuNSwxLjcxLTEuNzEsMi41NkMxNy41Miw3Mi4wMywxOC4wNiw3MS4xOCwxOC40OCw3MC4yMnogICAgICAgTTUuNTksNzQuNWMwLjExLTAuODYsMC4yMi0xLjgyLDAtMS45M0M0Ljg0LDcxLjkzLDQuMyw3MC45Nyw1LjA1LDcwYzAuMTEtMC4xLDAuMjItMC4yMSwwLjIyLTAuNDNjMC4xLTAuMzItMC4yMi0wLjEtMC43NS0wLjEgICAgICBjLTAuNTQsMC0wLjExLTAuODYtMS4xOS0wLjk3Yy0xLjA3LTAuMS0xLjA3LTAuMzItMS4xOC0wLjk2YzAtMC42NC0wLjY0LTEuMjgtMS4xOC0xLjM5YzAsMC4xMSwwLDAuMzIsMCwwLjQzICAgICAgQzAuOTcsNzAsMi45LDczLDUuNTksNzQuNXogTTExLjYxLDYwLjkxYzAuNDMsMC4yMiwwLjg2LTAuMTEsMC43NS0wLjQyQzEyLjA0LDU5Ljk1LDExLjA3LDYwLjI3LDExLjYxLDYwLjkxeiBNMTMuNDMsNjEuNzcgICAgICBjMC4zMywwLDAuNTQsMC42NCwwLjQzLDAuOTZjLTAuMjEsMC42NC0wLjc1LDAuMjItMC44Ni0wLjIxQzEzLDYyLjA5LDEzLjExLDYxLjc3LDEzLjQzLDYxLjc3eiBNMTYuOTgsNjQuNzYgICAgICBjLTAuMzItMC4zMi0wLjIxLTAuNzQsMC4yMi0wLjg1YzAuNzUtMC4xMSwxLjcyLDAuNjQsMS4wNywwLjg1QzE3Ljk1LDY0Ljg3LDE3LjQxLDY0Ljg3LDE2Ljk4LDY0Ljc2eiBNNC45NCw2Ny40NCAgICAgIGMwLjMzLDAsMS4xOSwwLjIxLDEuNCwwLjQzYzAuMjIsMC4zMS0wLjY0LDAuMjEtMS4xOCwwQzQuODQsNjcuNzYsNC42Miw2Ny41NCw0Ljk0LDY3LjQ0eiIvPiYjeGE7CQkJPC9nPiYjeGE7CQk8L2c+JiN4YTsJPC9nPiYjeGE7PC9nPiYjeGE7PC9zdmc+;fillColor=#007FFF;fontSize=16;imageBorder=#000000;fontColor=#FFFFFF;fontStyle=1" parent="1" vertex="1">
          <mxGeometry x="803" y="560" width="84" height="77" as="geometry" />
        </mxCell>
        <mxCell id="4g_t7paAZGqGhglVZUK9-8" value="Azure API Management" style="shape=image;verticalLabelPosition=bottom;labelBackgroundColor=none;verticalAlign=top;aspect=fixed;imageAspect=0;image=data:image/svg+xml,PHN2ZyB4bWxuczpjYz0iaHR0cDovL2NyZWF0aXZlY29tbW9ucy5vcmcvbnMjIiB4bWxuczpkYz0iaHR0cDovL3B1cmwub3JnL2RjL2VsZW1lbnRzLzEuMS8iIHhtbG5zOmlua3NjYXBlPSJodHRwOi8vd3d3Lmlua3NjYXBlLm9yZy9uYW1lc3BhY2VzL2lua3NjYXBlIiB4bWxuczpyZGY9Imh0dHA6Ly93d3cudzMub3JnLzE5OTkvMDIvMjItcmRmLXN5bnRheC1ucyMiIHhtbG5zOnNvZGlwb2RpPSJodHRwOi8vc29kaXBvZGkuc291cmNlZm9yZ2UubmV0L0RURC9zb2RpcG9kaS0wLmR0ZCIgeG1sbnM6c3ZnPSJodHRwOi8vd3d3LnczLm9yZy8yMDAwL3N2ZyIgeG1sbnM9Imh0dHA6Ly93d3cudzMub3JnLzIwMDAvc3ZnIiB4bWxuczp4bGluaz0iaHR0cDovL3d3dy53My5vcmcvMTk5OS94bGluayIgdmVyc2lvbj0iMS4xIiBpZD0ic3ZnNTk4ODkiIGlua3NjYXBlOnZlcnNpb249IjAuOTIuMyAoMjQwNTU0NiwgMjAxOC0wMy0xMSkiIHNvZGlwb2RpOmRvY25hbWU9ImF6dXJlX3BvcnRhbF9hcGlfbWFuYWdlbWVudF9zZXJ2aWNlcy5zdmciIHg9IjBweCIgeT0iMHB4IiB2aWV3Qm94PSIwIDAgMzAuOTcgMjUuNDEiIHN0eWxlPSJlbmFibGUtYmFja2dyb3VuZDpuZXcgMCAwIDMwLjk3IDI1LjQxOyIgeG1sOnNwYWNlPSJwcmVzZXJ2ZSI+JiN4YTs8c29kaXBvZGk6bmFtZWR2aWV3IGJvcmRlcmNvbG9yPSIjNjY2NjY2IiBib3JkZXJvcGFjaXR5PSIxIiBmaXQtbWFyZ2luLWJvdHRvbT0iMCIgZml0LW1hcmdpbi1sZWZ0PSIwIiBmaXQtbWFyZ2luLXJpZ2h0PSIwIiBmaXQtbWFyZ2luLXRvcD0iMCIgZ3JpZHRvbGVyYW5jZT0iMTAiIGd1aWRldG9sZXJhbmNlPSIxMCIgaWQ9Im5hbWVkdmlldzU5ODkxIiBpbmtzY2FwZTpjdXJyZW50LWxheWVyPSJzdmc1OTg4OSIgaW5rc2NhcGU6Y3g9IjI5LjQ3MTgyNyIgaW5rc2NhcGU6Y3k9IjE2LjEyMDc3NSIgaW5rc2NhcGU6cGFnZW9wYWNpdHk9IjAiIGlua3NjYXBlOnBhZ2VzaGFkb3c9IjIiIGlua3NjYXBlOndpbmRvdy1oZWlnaHQ9IjEwMTciIGlua3NjYXBlOndpbmRvdy1tYXhpbWl6ZWQ9IjEiIGlua3NjYXBlOndpbmRvdy13aWR0aD0iMTkyMCIgaW5rc2NhcGU6d2luZG93LXg9Ii04IiBpbmtzY2FwZTp3aW5kb3cteT0iLTgiIGlua3NjYXBlOnpvb209IjE4LjA5MzIyNiIgb2JqZWN0dG9sZXJhbmNlPSIxMCIgcGFnZWNvbG9yPSIjZmZmZmZmIiBzaG93Z3JpZD0iZmFsc2UiPiYjeGE7CTwvc29kaXBvZGk6bmFtZWR2aWV3PiYjeGE7PGcgaWQ9Imc1OTg4NyI+JiN4YTsJPHRpdGxlIGlkPSJ0aXRsZTU5ODcyIj5QYWdlLTE8L3RpdGxlPiYjeGE7CTxnIGlkPSJncm91cDQ0MzMtMSI+JiN4YTsJCTx0aXRsZSBpZD0idGl0bGU1OTg3NCI+QXp1cmUgUG9ydGFsIC0gQVBJIE1hbmFnZW1lbnQgU2VydmljZXM8L3RpdGxlPiYjeGE7CQk8ZyBpZD0ic2hhcGU0NDM0LTIiPiYjeGE7CQkJPHRpdGxlIGlkPSJ0aXRsZTU5ODc2Ij5BUEkgTWFuYWdlbWVudDwvdGl0bGU+JiN4YTsJCQk8cGF0aCBpZD0icGF0aDU5ODc4IiBpbmtzY2FwZTpjb25uZWN0b3ItY3VydmF0dXJlPSIwIiBzdHlsZT0iZmlsbDojNTlCNEQ5OyIgZD0iTTI3LjExLDEwLjY1YzAuMS0wLjM5LDAuMS0wLjU4LDAuMS0xLjE1ICAgICBjMC01LjM4LTQuNDQtOS41LTkuODUtOS41Yy0zLjg1LDAtNy40MywyLjAxLTguODcsNS41N2MtMC40OSwwLTAuODYtMC4yLTEuNDUtMC4yYy0zLjg2LDAtNy4wNCwzLjA3LTcuMDQsNyAgICAgYzAsMy44NCwzLjE4LDYuOSw3LjA0LDYuOWgzLjU4YzAuMDksMC40OSwwLjM3LDAuOTgsMC44NiwxLjM1YzEuMjYsMS4zNSwzLjM4LDEuMjUsNC42MywwczEuMjUtMy4zNiwwLTQuNiAgICAgYy0xLjI1LTEuMzQtMy4zNy0xLjM0LTQuNjMsMGMtMC4yOSwwLjI4LTAuNDksMC44Ny0wLjY3LDEuMjRsLTMuNjcsMC4xYy0yLjcsMC00LjkyLTIuMi00LjkyLTQuOTljMC0yLjc4LDIuMTItNC45OCw0LjkyLTQuOTggICAgIGMwLjQ5LDAsMS4wNiwwLjA5LDEuNjUsMC4xOWwxLjA0LDAuMjlsMC4zLTEuMDVjMS4wNi0zLjE3LDMuOTUtNS4yOCw3LjQzLTUuMjhjNC4yNCwwLDcuNzEsMy40NSw3LjcxLDcuNjcgICAgIGMwLDAuNjgtMC4wOSwxLjM0LTAuMjgsMi4wMWwtMC4zOSwxLjU0bDEuNjMtMC4xOWgwLjNjMS4yNSwwLDIuMjIsMS4wNSwyLjIyLDIuMmMwLDEuMTYtMC44NywyLjAyLTEuOTMsMi4yMWgtNS41ICAgICBjLTAuMi0xLjU0LTAuOTctMi44Ny0yLjAzLTMuOTNjLTEuMzQtMS4zNC0zLjE4LTIuMTEtNS4xMS0yLjExYy0xLjM0LDAtMi43LDAuMzgtMy43NiwxLjA2bDEuMTYsMS44MiAgICAgYzAuODctMC40OSwxLjczLTAuNjgsMi43LTAuNjhjMS4zNSwwLDIuNywwLjQ4LDMuNTcsMS41NGMwLjk2LDAuOTYsMS41NCwyLjIxLDEuNTQsMy41NGMwLDEuMzUtMC40OCwyLjY5LTEuNTQsMy41NSAgICAgYy0wLjk2LDEuMDYtMi4yMiwxLjU0LTMuNTcsMS41NGMtMC45NywwLTEuOTMtMC4yOS0yLjctMC44N2wtMS4xNiwxLjgzYzEuMTYsMC42NywyLjUsMS4xNCwzLjc2LDEuMTRjMS45MywwLDMuNzctMC42Niw1LjExLTIuMSAgICAgYzEuMTYtMS4xNSwxLjgzLTIuNTksMi4wMy00LjIyYzAuMjksMCw1LjYtMC4wOSw1LjYtMC4wOWgwLjA5YzIuMjMtMC4yLDMuOTYtMi4xMSwzLjk2LTQuNDIgICAgIEMzMC41OCwxMi43NiwyOS4xNCwxMS4wNCwyNy4xMSwxMC42NXoiLz4mI3hhOwkJPC9nPiYjeGE7CQk8ZyBpZD0ic2hhcGU0NDM1LTQiIHRyYW5zZm9ybT0idHJhbnNsYXRlKDEwLjI5ODMsLTMuNTYwNikiPiYjeGE7CQkJPHRpdGxlIGlkPSJ0aXRsZTU5ODgxIj5TaGVldC40NDM1PC90aXRsZT4mI3hhOwkJCTxwYXRoIGlkPSJwYXRoNTk4ODMiIGlua3NjYXBlOmNvbm5lY3Rvci1jdXJ2YXR1cmU9IjAiIHN0eWxlPSJmaWxsOiM2ODIxN0E7IiBkPSJNMCwyMS45NmMwLTEuOTEsMS41NS0zLjQ2LDMuNDUtMy40NiAgICAgYzEuOTMsMCwzLjQ2LDEuNTUsMy40NiwzLjQ2YzAsMS45Mi0xLjUzLDMuNDUtMy40NiwzLjQ1QzEuNTUsMjUuNDEsMCwyMy44OCwwLDIxLjk2eiIvPiYjeGE7CQk8L2c+JiN4YTsJPC9nPiYjeGE7PC9nPiYjeGE7PC9zdmc+;fillColor=#007FFF;fontSize=16;fontColor=#FFFFFF;fontStyle=1" parent="1" vertex="1">
          <mxGeometry x="1230" y="460" width="62" height="50" as="geometry" />
        </mxCell>
        <mxCell id="4g_t7paAZGqGhglVZUK9-9" style="edgeStyle=orthogonalEdgeStyle;html=1;startArrow=none;startFill=0;startSize=10;endArrow=none;endFill=0;endSize=10;strokeWidth=3;fontSize=11;fontColor=#FFFFFF;strokeColor=#FFFFFF;dashed=1;rounded=0;targetPerimeterSpacing=36;" parent="1" source="4g_t7paAZGqGhglVZUK9-5" target="4g_t7paAZGqGhglVZUK9-8" edge="1">
          <mxGeometry relative="1" as="geometry">
            <mxPoint x="441" y="676" as="sourcePoint" />
            <Array as="points">
              <mxPoint x="1261" y="580" />
            </Array>
            <mxPoint x="680" y="676" as="targetPoint" />
          </mxGeometry>
        </mxCell>
        <mxCell id="4g_t7paAZGqGhglVZUK9-27" value="&lt;font style=&quot;font-size: 16px&quot; color=&quot;#FFFFFF&quot;&gt;Rest Api Call&lt;/font&gt;" style="edgeLabel;html=1;align=center;verticalAlign=middle;resizable=0;points=[];labelBackgroundColor=none;" parent="4g_t7paAZGqGhglVZUK9-9" vertex="1" connectable="0">
          <mxGeometry x="-0.0465" relative="1" as="geometry">
            <mxPoint x="-12" y="-20" as="offset" />
          </mxGeometry>
        </mxCell>
        <mxCell id="4g_t7paAZGqGhglVZUK9-10" value="" style="rounded=1;whiteSpace=wrap;html=1;shadow=0;strokeWidth=2;fillColor=#8BC63E;fontSize=12;fontColor=#000000;align=center;strokeColor=none;arcSize=3;" parent="1" vertex="1">
          <mxGeometry x="470" y="320" width="480" height="160" as="geometry" />
        </mxCell>
        <mxCell id="4g_t7paAZGqGhglVZUK9-6" value="" style="shape=image;verticalLabelPosition=bottom;labelBackgroundColor=#ffffff;verticalAlign=top;aspect=fixed;imageAspect=0;image=data:image/svg+xml,PHN2ZyB4bWxuczpjYz0iaHR0cDovL2NyZWF0aXZlY29tbW9ucy5vcmcvbnMjIiB4bWxuczpkYz0iaHR0cDovL3B1cmwub3JnL2RjL2VsZW1lbnRzLzEuMS8iIHhtbG5zOmlua3NjYXBlPSJodHRwOi8vd3d3Lmlua3NjYXBlLm9yZy9uYW1lc3BhY2VzL2lua3NjYXBlIiB4bWxuczpyZGY9Imh0dHA6Ly93d3cudzMub3JnLzE5OTkvMDIvMjItcmRmLXN5bnRheC1ucyMiIHhtbG5zOnNvZGlwb2RpPSJodHRwOi8vc29kaXBvZGkuc291cmNlZm9yZ2UubmV0L0RURC9zb2RpcG9kaS0wLmR0ZCIgeG1sbnM6c3ZnPSJodHRwOi8vd3d3LnczLm9yZy8yMDAwL3N2ZyIgeG1sbnM9Imh0dHA6Ly93d3cudzMub3JnLzIwMDAvc3ZnIiB4bWxuczp4bGluaz0iaHR0cDovL3d3dy53My5vcmcvMTk5OS94bGluayIgdmVyc2lvbj0iMS4xIiBpZD0ic3ZnMTY2NTAyIiBpbmtzY2FwZTp2ZXJzaW9uPSIwLjkyLjMgKDI0MDU1NDYsIDIwMTgtMDMtMTEpIiBzb2RpcG9kaTpkb2NuYW1lPSJkb2NrZXJfdG9vbHMuc3ZnIiB4PSIwcHgiIHk9IjBweCIgdmlld0JveD0iMCAwIDk5LjIyIDgzLjI0IiBzdHlsZT0iZW5hYmxlLWJhY2tncm91bmQ6bmV3IDAgMCA5OS4yMiA4My4yNDsiIHhtbDpzcGFjZT0icHJlc2VydmUiPiYjeGE7PHNvZGlwb2RpOm5hbWVkdmlldyBib3JkZXJjb2xvcj0iIzY2NjY2NiIgYm9yZGVyb3BhY2l0eT0iMSIgZml0LW1hcmdpbi1ib3R0b209IjAiIGZpdC1tYXJnaW4tbGVmdD0iMCIgZml0LW1hcmdpbi1yaWdodD0iMCIgZml0LW1hcmdpbi10b3A9IjAiIGdyaWR0b2xlcmFuY2U9IjEwIiBndWlkZXRvbGVyYW5jZT0iMTAiIGlkPSJuYW1lZHZpZXcxNjY1MDQiIGlua3NjYXBlOmN1cnJlbnQtbGF5ZXI9InN2ZzE2NjUwMiIgaW5rc2NhcGU6Y3g9IjY2LjE0MTY1NiIgaW5rc2NhcGU6Y3k9IjU1LjQ5MzEwOCIgaW5rc2NhcGU6cGFnZW9wYWNpdHk9IjAiIGlua3NjYXBlOnBhZ2VzaGFkb3c9IjIiIGlua3NjYXBlOndpbmRvdy1oZWlnaHQ9IjEwMTciIGlua3NjYXBlOndpbmRvdy1tYXhpbWl6ZWQ9IjEiIGlua3NjYXBlOndpbmRvdy13aWR0aD0iMTkyMCIgaW5rc2NhcGU6d2luZG93LXg9Ii04IiBpbmtzY2FwZTp3aW5kb3cteT0iLTgiIGlua3NjYXBlOnpvb209IjYuNTk5MDg5OCIgb2JqZWN0dG9sZXJhbmNlPSIxMCIgcGFnZWNvbG9yPSIjZmZmZmZmIiBzaG93Z3JpZD0iZmFsc2UiPiYjeGE7CTwvc29kaXBvZGk6bmFtZWR2aWV3PiYjeGE7PGcgaWQ9ImcxNjY1MDAiIHRyYW5zZm9ybT0idHJhbnNsYXRlKC03LjY1LC03LjY0OTMyOSkiPiYjeGE7CTx0aXRsZSBpZD0idGl0bGUxNjYzODQiPlBhZ2UtMTwvdGl0bGU+JiN4YTsJPGcgaWQ9Imdyb3VwMTM3Ny0xIiB0cmFuc2Zvcm09InRyYW5zbGF0ZSg3LjY1LC03LjE0MTc0KSI+JiN4YTsJCTx0aXRsZSBpZD0idGl0bGUxNjYzODYiPkRvY2tlciBUb29sczwvdGl0bGU+JiN4YTsJCTxnIGlkPSJzaGFwZTEzNzgtMiIgdHJhbnNmb3JtPSJ0cmFuc2xhdGUoMC4wNjc0MTM3KSI+JiN4YTsJCQk8dGl0bGUgaWQ9InRpdGxlMTY2Mzg4Ij5kb2NrZXJfNF88L3RpdGxlPiYjeGE7CQkJPHBhdGggaWQ9InBhdGgxNjYzOTAiIGlua3NjYXBlOmNvbm5lY3Rvci1jdXJ2YXR1cmU9IjAiIHN0eWxlPSJmaWxsOiMzRjU3NjU7IiBkPSJNNzMuMzksOTIuNzljMi4yMy0xLjkxLDQuNDYtMy44Myw2LjY5LTUuNzUgICAgIGMwLjc2LTAuNjYsMS41OS0xLjM0LDIuMzUtMi4wM2MtMC42MS0wLjc2LTEuNjItMS4zMS0yLjQ4LTEuNjRjLTEuNzMtMC42Ni0zLjQ0LTAuNDQtNS4wMywwLjQ4Yy0yLjA5LDEuMi0yLjk3LDMuMTItMi44OSw1LjUgICAgIGMwLjAzLDAuOTQsMC4yOCwxLjg0LDAuNzgsMi42NEM3Mi45OCw5Mi4yNyw3My4xOCw5Mi41NCw3My4zOSw5Mi43OXogTTc1Ljk3LDk0LjZjMS4xLDAuMzgsMi4zNCwwLjMzLDMuNDcsMC4xNCAgICAgYzAuNTctMC4yNSwyLjA0LTAuODksMi41OC0wLjhsMC4wOCwwLjAyTDgyLjE4LDk0YzAuMzMsMC4xNiwwLjY0LDAuMzgsMC44MSwwLjcyYzAuNCwwLjc5LDAuMjEsMS41Ny0wLjU3LDIuMDJsLTAuMjUsMC4xNSAgICAgYy0yLjg1LDEuNjUtNS44OSwxLjQyLTguNzMtMC4xMmMtMS4zNi0wLjczLTIuNC0xLjgyLTMuMTctMy4xNmwtMC4xOC0wLjMxYy0xLjgzLTMuMTctMS41OC02LjUsMC40OC05LjUyICAgICBjMC43Mi0xLjA0LDEuNjUtMS44NSwyLjc0LTIuNDhsMC40MS0wLjIzYzIuNjktMS41NSw1LjU3LTEuNDUsOC4zMy0wLjA5YzEuNDgsMC43MywyLjY4LDEuODMsMy41MSwzLjI2bDAuMTUsMC4yNiAgICAgYzAuNiwxLjA0LTAuMTgsMS45NS0wLjk4LDIuNTdjLTAuOTQsMC43Mi0xLjg4LDEuNTktMi43OCwyLjM2Qzc5Ljk2LDkxLjE1LDc3Ljk3LDkyLjg4LDc1Ljk3LDk0LjZ6IE05Ny4zNCw4MC4xOGgwLjMgICAgIGMwLjksMCwxLjUxLDAuNjEsMS41MSwxLjVjMCwxLjI1LTEuMiwxLjU3LTIuMjIsMS41N2MtMS4zNiwwLTIuNjQsMC44MS0zLjU3LDEuNzNjLTEuMTcsMS4xNS0xLjY3LDIuNjEtMS42Nyw0LjIydjcuMjggICAgIGMwLDAuODMtMC41MiwxLjUxLTEuMzksMS41MWgtMC4yNGMtMC44NiwwLTEuMzgtMC42OC0xLjM4LTEuNTF2LTcuN2MwLTIuOTUsMS40NC01LjM2LDMuODQtNy4wNiAgICAgQzkzLjk1LDgwLjcxLDk1LjU5LDgwLjE4LDk3LjM0LDgwLjE4eiBNNTkuODcsODUuMzRjMS4xNi0xLjE3LDIuMzQtMi4zMywzLjUyLTMuNDhjMC4zMy0wLjMyLDEuNTgtMS42OCwyLjA4LTEuNjhINjZsMC4wNiwwLjAxICAgICBjMC42OSwwLjE0LDEuMiwwLjU4LDEuMiwxLjMxdjAuM2MwLDAuNS0wLjU5LDEuMDktMC45MSwxLjQzYy0wLjY5LDAuNzQtMS40MiwxLjQ0LTIuMTMsMi4xNmwtMy42MywzLjY5ICAgICBjMS41NywxLjU2LDMuMTMsMy4xMyw0LjY4LDQuNzFjMC40MywwLjQ0LDAuODYsMC44OCwxLjI4LDEuMzJjMC4xNSwwLjE2LDAuMzcsMC4zNSwwLjUsMC41N2MwLjEzLDAuMjEsMC4yMSwwLjQ0LDAuMjEsMC42OHYwLjMxICAgICBsLTAuMDEsMC4wN2MtMC4xNywwLjY5LTAuNjEsMS4yNC0xLjM3LDEuMjRoLTAuMjRjLTAuNSwwLTEuMDYtMC41Ni0xLjQtMC44OGMtMC43LTAuNjYtMS4zOC0xLjM2LTIuMDctMi4wM2wtMi4zMS0yLjI3djMuNjIgICAgIGMwLDAuODQtMC41MiwxLjUxLTEuMzgsMS41MWgtMC4yNGMtMC44NiwwLTEuMzgtMC42Ny0xLjM4LTEuNTFWNzYuMDFjMC0wLjgzLDAuNTItMS41LDEuMzgtMS41aDAuMjRjMC44NiwwLDEuMzgsMC42NywxLjM4LDEuNSAgICAgTDU5Ljg3LDg1LjM0TDU5Ljg3LDg1LjM0eiBNNTAuMTIsODMuMzFjLTAuNDYtMC4yMS0xLjMxLTAuMjktMS44LTAuM2MtMi41MS0wLjEtNC4zMywxLjMyLTUuNCwzLjUzICAgICBjLTAuMzYsMC43Ny0wLjUzLDEuNTgtMC41MywyLjQyYzAsMi41OCwxLjM1LDQuMzgsMy42NSw1LjQ4YzAuODQsMC40LDEuOTIsMC40OCwyLjg0LDAuNDhjMC44MSwwLDEuOTUtMC41LDIuNjYtMC44NGwwLjEzLTAuMDYgICAgIGgwLjU2bDAuMDYsMC4wMmMwLjY4LDAuMTQsMS4yLDAuNTcsMS4yLDEuMzF2MC4zYzAsMS44My0zLjM1LDIuMjUtNC42MywyLjM0Yy00LjUsMC4zMS03Ljg3LTIuMTctOS4xNS02LjQ2ICAgICBjLTAuMjMtMC43NS0wLjMzLTEuNDktMC4zMy0yLjI3di0wLjZjMC0zLjI2LDEuNjItNS44NCw0LjQyLTcuNWMxLjMtMC43NywyLjczLTEuMTYsNC4yNS0xLjE2aDAuNTljMS42LDAsMy4wOCwwLjQ1LDQuNCwxLjM2ICAgICBsMC4xMSwwLjA3bDAuMDcsMC4xMmMwLjE0LDAuMjMsMC4yNywwLjUxLDAuMjcsMC43OXYwLjNjMCwwLjc2LTAuNTgsMS4xOC0xLjI3LDEuMzFsLTAuMDYsMC4wMWgtMC4xOCAgICAgQzUxLjUzLDgzLjk2LDUwLjUyLDgzLjUsNTAuMTIsODMuMzF6IE0yMi43LDg5LjAyYzAsMi4yOSwxLjEyLDMuOTcsMy4wNSw1LjE1YzAuOTEsMC41NiwxLjksMC44MSwyLjk2LDAuODEgICAgIGMyLjI2LDAsMy45My0xLjE1LDUuMDktMy4wNWMwLjU2LTAuOTEsMC44MS0xLjkxLDAuODEtMi45N2MwLTIuMTItMS4wMy0zLjc1LTIuNzgtNC45MmMtMC45Ni0wLjY1LTIuMDItMC45Ny0zLjE4LTAuOTcgICAgIGMtMi41MiwwLTQuMzMsMS4yNy01LjQyLDMuNTNDMjIuODYsODcuMzYsMjIuNyw4OC4xOCwyMi43LDg5LjAyeiBNMjguMzUsODAuMDZoMC40MmMzLjQ5LDAsNi4xNCwxLjY5LDcuODEsNC43MyAgICAgYzAuNjgsMS4yMiwxLjAzLDIuNTQsMS4wMywzLjk0djAuNTljMCwzLjI2LTEuNiw1Ljg2LTQuNDEsNy41MWMtMS4zLDAuNzYtMi43NCwxLjE1LTQuMjUsMS4xNWgtMC42Yy0zLjI2LDAtNS44NS0xLjYxLTcuNS00LjQxICAgICBjLTAuNzctMS4zLTEuMTYtMi43NC0xLjE2LTQuMjV2LTAuNTljMC0zLjI3LDEuNjItNS44NSw0LjQxLTcuNTFDMjUuNDEsODAuNDUsMjYuODQsODAuMDYsMjguMzUsODAuMDZ6IE0zLjAxLDg5LjAyICAgICBjMCwyLjM2LDEuMTQsNC4xMywzLjIsNS4yNmMwLjg0LDAuNDUsMS43NCwwLjcsMi42OSwwLjdjMi4zMSwwLDQuMDMtMS4wOSw1LjIxLTMuMDVjMC41NS0wLjkxLDAuODEtMS45MSwwLjgxLTIuOTcgICAgIGMwLTIuMDQtMC45Ny0zLjYzLTIuNjItNC44MmMtMC45OS0wLjcxLTIuMTItMS4wNy0zLjM0LTEuMDdjLTIuNTIsMC00LjMzLDEuMjctNS40MiwzLjUzQzMuMTcsODcuMzYsMy4wMSw4OC4xOCwzLjAxLDg5LjAyeiAgICAgIE0xNC45Miw4Mi4zdi02LjM1YzAtMC44MywwLjUyLTEuNSwxLjM4LTEuNWgwLjI0YzAuODcsMCwxLjM4LDAuNjcsMS4zOCwxLjV2MTMuMzdjMCwzLjI2LTEuNjEsNS44NS00LjQxLDcuNTEgICAgIGMtMS4zLDAuNzYtMi43NCwxLjE2LTQuMjUsMS4xNmgtMC42Yy0zLjI2LDAtNS44NS0xLjYyLTcuNS00LjQyQzAuMzksOTIuMjcsMCw5MC44MywwLDg5LjMydi0wLjU5YzAtMy4yNiwxLjYxLTUuODYsNC40MS03LjUxICAgICBjMS4zMS0wLjc3LDIuNzQtMS4xNiw0LjI1LTEuMTZoMC42QzExLjQ3LDgwLjA2LDEzLjM0LDgwLjkxLDE0LjkyLDgyLjN6Ii8+JiN4YTsJCTwvZz4mI3hhOwkJPGcgaWQ9InNoYXBlMTM3OS00IiB0cmFuc2Zvcm09InRyYW5zbGF0ZSgxMS44MzQzLC0yNy41NDkzKSI+JiN4YTsJCQk8dGl0bGUgaWQ9InRpdGxlMTY2MzkzIj5vdXRsaW5lXzdfPC90aXRsZT4mI3hhOwkJCTxwYXRoIGlkPSJwYXRoMTY2Mzk1IiBpbmtzY2FwZTpjb25uZWN0b3ItY3VydmF0dXJlPSIwIiBzdHlsZT0iZmlsbDojMzk0RDU0OyIgZD0iTTQ1LjQsNjAuMDloOC44N3Y5LjA3aDQuNDkgICAgIGMyLjA3LDAsNC4yLTAuMzcsNi4xNi0xLjA0YzAuOTYtMC4zMiwyLjA1LTAuNzgsMy0xLjM1Yy0xLjI2LTEuNjQtMS44OS0zLjctMi4wOC01Ljc0Yy0wLjI2LTIuNzYsMC4zLTYuMzcsMi4xNy04LjUzbDAuOTQtMS4wOCAgICAgbDEuMTEsMC44OWMyLjgsMi4yNSw1LjE1LDUuMzksNS41Niw4Ljk3YzMuMzctMC45OSw3LjMzLTAuNzYsMTAuMywwLjk2bDEuMjIsMC43bC0wLjY0LDEuMjVjLTIuNTIsNC45MS03Ljc3LDYuNDItMTIuOSw2LjE1ICAgICBjLTcuNjgsMTkuMTQtMjQuNDEsMjguMi00NC42OCwyOC4yYy0xMC40OCwwLTIwLjA5LTMuOTItMjUuNTctMTMuMjJsLTAuMDktMC4xNWwtMC43OS0xLjYyQzAuNjIsNzkuNDYsMCw3NC45OCwwLjQyLDcwLjUgICAgIGwwLjEyLTEuMzRoNy41OXYtOS4wN0gxN3YtOC44OGgxNy43NXYtOC44N2gxMC42NHYxNy43NUg0NS40eiIvPiYjeGE7CQk8L2c+JiN4YTsJCTxnIGlkPSJncm91cDEzODAtNiIgdHJhbnNmb3JtPSJ0cmFuc2xhdGUoMTMuMjcwMywtMjkuMDI4NikiPiYjeGE7CQkJPHRpdGxlIGlkPSJ0aXRsZTE2NjM5OCI+Ym9keV9jb2xvcnNfOF88L3RpdGxlPiYjeGE7CQkJPGcgaWQ9InNoYXBlMTM4MS03Ij4mI3hhOwkJCQk8dGl0bGUgaWQ9InRpdGxlMTY2NDAwIj5TaGVldC4xMzgxPC90aXRsZT4mI3hhOwkJCQk8cGF0aCBpZD0icGF0aDE2NjQwMiIgaW5rc2NhcGU6Y29ubmVjdG9yLWN1cnZhdHVyZT0iMCIgc3R5bGU9ImZpbGw6IzAwQUFEQTsiIGQ9Ik03Mi43MSw2NC45MmMwLjU5LTQuNjItMi44Ny04LjI1LTUuMDItOS45OCAgICAgIGMtMi40NywyLjg2LTIuODUsMTAuMzUsMS4wMywxMy41MWMtMi4xNywxLjkyLTYuNzMsMy42Ni0xMS40LDMuNjZIMC40NUMwLDc2Ljk5LDAuODYsODEuNDgsMi44MSw4NS4zM2wwLjY1LDEuMTggICAgICBjMC40MSwwLjY5LDAuODYsMS4zNiwxLjM0LDIuMDFsMCwwYzIuMzQsMC4xNSw0LjQ5LDAuMiw2LjQ2LDAuMTZjMCwwLDAsMCwwLjAxLDBjMy44Ny0wLjA5LDcuMDMtMC41NCw5LjQzLTEuMzcgICAgICBjMC4zNi0wLjEzLDAuNzUsMC4wNiwwLjg3LDAuNDJjMC4xMiwwLjM1LTAuMDcsMC43NC0wLjQyLDAuODdjLTAuMzIsMC4xMS0wLjY1LDAuMjEtMSwwLjMxbDAsMGMtMS44OSwwLjU0LTMuOTEsMC45LTYuNTIsMS4wNiAgICAgIGMwLjE2LDAtMC4xNiwwLjAyLTAuMTYsMC4wMmMtMC4wOSwwLjAxLTAuMiwwLjAyLTAuMjksMC4wM2MtMS4wMywwLjA1LTIuMTQsMC4wNy0zLjI3LDAuMDdjLTEuMjQsMC0yLjQ2LTAuMDMtMy44My0wLjEgICAgICBsLTAuMDMsMC4wM2M0LjczLDUuMzIsMTIuMTQsOC41MiwyMS40Myw4LjUyYzE5LjY1LDAsMzYuMzItOC43Miw0My43LTI4LjI4YzUuMjQsMC41NCwxMC4yNy0wLjc5LDEyLjU2LTUuMjYgICAgICBDODAuMSw2Mi44OSw3NS40MSw2My41Niw3Mi43MSw2NC45MnoiLz4mI3hhOwkJCTwvZz4mI3hhOwkJCTxnIGlkPSJzaGFwZTEzODItOSIgdHJhbnNmb3JtPSJ0cmFuc2xhdGUoMy41ODk0NiwtNS4xNDc2MSkiPiYjeGE7CQkJCTx0aXRsZSBpZD0idGl0bGUxNjY0MDUiPlNoZWV0LjEzODI8L3RpdGxlPiYjeGE7CQkJCTxwYXRoIGlkPSJwYXRoMTY2NDA3IiBpbmtzY2FwZTpjb25uZWN0b3ItY3VydmF0dXJlPSIwIiBzdHlsZT0iZmlsbDojMjRCOEVCOyIgZD0iTTY5LjEyLDcwLjA3YzAuNTktNC42My0yLjg3LTguMjYtNS4wMS05Ljk4ICAgICAgYy0yLjQ4LDIuODYtMi44NiwxMC4zNSwxLjAyLDEzLjUxYy0yLjE3LDEuOTItNi43MywzLjY2LTExLjQsMy42NkgwLjIzQzAsODQuNzMsMi43Nyw5MC40LDcuNjcsOTMuODNjMCwwLDAsMCwwLjAxLDAgICAgICBjMy44Ny0wLjA5LDcuMDMtMC41NSw5LjQzLTEuMzhjMC4zNi0wLjEyLDAuNzUsMC4wNywwLjg3LDAuNDNjMC4xMiwwLjM1LTAuMDcsMC43NC0wLjQyLDAuODZjLTAuMzIsMC4xMi0wLjY1LDAuMjItMSwwLjMybDAsMCAgICAgIGMtMS44OSwwLjUzLTQuMDgsMC45NC02LjY5LDEuMTFjMCwwLTAuMDctMC4wNy0wLjA3LTAuMDZjNi42OSwzLjQzLDE2LjM5LDMuNDEsMjcuNTEtMC44NmMxMi40Ny00Ljc5LDI0LjA3LTEzLjkxLDMyLjE2LTI0LjM1ICAgICAgQzY5LjM1LDY5Ljk1LDY5LjIzLDcwLjAxLDY5LjEyLDcwLjA3eiIvPiYjeGE7CQkJPC9nPiYjeGE7CQkJPGcgaWQ9InNoYXBlMTM4My0xMSIgdHJhbnNmb3JtPSJ0cmFuc2xhdGUoMC41NjA5MzMpIj4mI3hhOwkJCQk8dGl0bGUgaWQ9InRpdGxlMTY2NDEwIj5TaGVldC4xMzgzPC90aXRsZT4mI3hhOwkJCQk8cGF0aCBpZD0icGF0aDE2NjQxMiIgaW5rc2NhcGU6Y29ubmVjdG9yLWN1cnZhdHVyZT0iMCIgc3R5bGU9ImZpbGw6IzAwOEJCODsiIGQ9Ik0wLDc4LjA0YzAuMzUsMi42MSwxLjEyLDUuMDYsMi4yNSw3LjI4ICAgICAgbDAuNjUsMS4xOWMwLjQxLDAuNjksMC44NSwxLjM2LDEuMzQsMi4wMWMyLjM0LDAuMTUsNC40OSwwLjIsNi40NiwwLjE2YzMuODgtMC4wOSw3LjA0LTAuNTQsOS40NC0xLjM4ICAgICAgYzAuMzYtMC4xMiwwLjc0LDAuMDcsMC44NywwLjQzYzAuMTIsMC4zNS0wLjA3LDAuNzQtMC40MiwwLjg3Yy0wLjMyLDAuMTEtMC42NiwwLjIxLTEsMC4zMWwwLDBjLTEuODksMC41NC00LjA3LDAuOTItNi42OCwxLjA4ICAgICAgQzEyLjgyLDkwLDEyLjY2LDkwLDEyLjU3LDkwLjAxYy0xLjAyLDAuMDUtMi4xMiwwLjA5LTMuMjYsMC4wOWMtMS4yNCwwLTIuNTEtMC4wMi0zLjg3LTAuMDljNC43NCw1LjMyLDEyLjE5LDguNTMsMjEuNDgsOC41MyAgICAgIGMxNi44MiwwLDMxLjQ2LTYuMzksMzkuOTYtMjAuNUwwLDc4LjA0eiIvPiYjeGE7CQkJPC9nPiYjeGE7CQkJPGcgaWQ9InNoYXBlMTM4NC0xMyIgdHJhbnNmb3JtPSJ0cmFuc2xhdGUoNC4zMzM1NiwtNS4xMTE5OSkiPiYjeGE7CQkJCTx0aXRsZSBpZD0idGl0bGUxNjY0MTUiPlNoZWV0LjEzODQ8L3RpdGxlPiYjeGE7CQkJCTxwYXRoIGlkPSJwYXRoMTY2NDE3IiBpbmtzY2FwZTpjb25uZWN0b3ItY3VydmF0dXJlPSIwIiBzdHlsZT0iZmlsbDojMDM5QkM2OyIgZD0iTTAsODMuMTVjMS4wMSw0LjU5LDMuNDIsOC4xOSw2LjkzLDEwLjY0ICAgICAgYzMuODgtMC4wOCw3LjA0LTAuNTQsOS40NC0xLjM3YzAuMzUtMC4xMywwLjc0LDAuMDYsMC44NywwLjQyYzAuMTIsMC4zNi0wLjA3LDAuNzQtMC40MywwLjg3Yy0wLjMyLDAuMTEtMC42NSwwLjIxLTAuOTksMC4zMSAgICAgIGwwLDBjLTEuODksMC41NC00LjEyLDAuOTItNi43MywxLjA5YzYuNjksMy40MywxNi4zNiwzLjM4LDI3LjQ3LTAuODljNi43My0yLjU5LDEzLjItNi40MywxOS4wMS0xMS4wN0wwLDgzLjE1eiIvPiYjeGE7CQkJPC9nPiYjeGE7CQk8L2c+JiN4YTsJCTxnIGlkPSJzaGFwZTEzODUtMTUiIHRyYW5zZm9ybT0idHJhbnNsYXRlKDE2Ljk1OSwtMzcuNTAzNikiPiYjeGE7CQkJPHRpdGxlIGlkPSJ0aXRsZTE2NjQyMSI+U2hlZXQuMTM4NTwvdGl0bGU+JiN4YTsJCQk8cGF0aCBpZD0icGF0aDE2NjQyMyIgaW5rc2NhcGU6Y29ubmVjdG9yLWN1cnZhdHVyZT0iMCIgc3R5bGU9ImZpbGw6IzM5NEQ1NDsiIGQ9Ik02LjIsOTguNTRjMS4xMywwLDIuMjEtMC4wMywzLjI0LTAuMDkgICAgIGMwLjA5LTAuMDEsMC4xNy0wLjAxLDAuMjYtMC4wMmMwLjAxLDAsMC4wMSwwLDAuMDEsMGMyLjYxLTAuMTYsNC44Ny0wLjUxLDYuNzUtMS4wNWwwLDBjMC4zNS0wLjA5LDAuNjgtMC4yLDEtMC4zMSAgICAgYzAuMzUtMC4xMiwwLjU0LTAuNTEsMC40Mi0wLjg3Yy0wLjEyLTAuMzUtMC41MS0wLjU0LTAuODctMC40MmMtMi40LDAuODMtNS41NiwxLjI5LTkuNDMsMS4zN2wwLDBjLTEuOTgsMC4wNS00LjEzLDAtNi40Ny0wLjE1ICAgICBsMCwwYy0wLjEyLTAuMDEtMC4yNC0wLjAyLTAuMzYtMC4wM2MtMC4zNy0wLjAyLTAuNywwLjI2LTAuNzIsMC42NGMtMC4wMywwLjM3LDAuMjUsMC43LDAuNjMsMC43MyAgICAgYzAuNDgsMC4wMywwLjk1LDAuMDYsMS40MSwwLjA4YzAuMDcsMCwwLjE0LDAuMDEsMC4yMiwwLjAxQzMuNjUsOTguNSw0Ljk2LDk4LjU0LDYuMiw5OC41NEw2LjIsOTguNTR6Ii8+JiN4YTsJCTwvZz4mI3hhOwkJPGcgaWQ9Imdyb3VwMTM4Ni0xNyIgdHJhbnNmb3JtPSJ0cmFuc2xhdGUoMjEuNDQyNiwtNTYuODI5NykiPiYjeGE7CQkJPHRpdGxlIGlkPSJ0aXRsZTE2NjQyNiI+Q29udGFpbmVyc184XzwvdGl0bGU+JiN4YTsJCQk8ZyBpZD0ic2hhcGUxMzg3LTE4Ij4mI3hhOwkJCQk8dGl0bGUgaWQ9InRpdGxlMTY2NDI4Ij5TaGVldC4xMzg3PC90aXRsZT4mI3hhOwkJCQk8cGF0aCBpZD0icGF0aDE2NjQzMCIgaW5rc2NhcGU6Y29ubmVjdG9yLWN1cnZhdHVyZT0iMCIgc3R5bGU9ImZpbGw6IzAwQUNEMzsiIGQ9Ik02LjQ0LDkxLjQ5aDAuNjF2Ni40SDYuNDRWOTEuNDl6IE01LjI4LDkxLjQ5ICAgICAgaDAuNjN2Ni40SDUuMjhWOTEuNDl6IE00LjExLDkxLjQ5aDAuNjN2Ni40SDQuMTFWOTEuNDl6IE0yLjk1LDkxLjQ5aDAuNjN2Ni40SDIuOTVMMi45NSw5MS40OXogTTEuNzgsOTEuNDloMC42M3Y2LjRIMS43OCAgICAgIEwxLjc4LDkxLjQ5eiBNMC42NCw5MS40OWgwLjYxdjYuNEgwLjY0TDAuNjQsOTEuNDl6IE0wLDkwLjg1aDcuNjl2Ny42OUgwVjkwLjg1eiIvPiYjeGE7CQkJPC9nPiYjeGE7CQkJPGcgaWQ9InNoYXBlMTM4OC0yMCIgdHJhbnNmb3JtPSJ0cmFuc2xhdGUoOC44NzE5LC04Ljg3MzE3KSI+JiN4YTsJCQkJPHRpdGxlIGlkPSJ0aXRsZTE2NjQzMyI+U2hlZXQuMTM4ODwvdGl0bGU+JiN4YTsJCQkJPHBhdGggaWQ9InBhdGgxNjY0MzUiIGlua3NjYXBlOmNvbm5lY3Rvci1jdXJ2YXR1cmU9IjAiIHN0eWxlPSJmaWxsOiMwMEFDRDM7IiBkPSJNNi40NCw5MS40OWgwLjYxdjYuNDFINi40NFY5MS40OXogICAgICAgTTUuMjgsOTEuNDloMC42M3Y2LjQxSDUuMjhWOTEuNDl6IE00LjExLDkxLjQ5aDAuNjN2Ni40MUg0LjExVjkxLjQ5eiBNMi45NSw5MS40OWgwLjYzdjYuNDFIMi45NUwyLjk1LDkxLjQ5eiBNMS43OCw5MS40OSAgICAgIGgwLjYzdjYuNDFIMS43OEwxLjc4LDkxLjQ5eiBNMC42NCw5MS40OWgwLjYxdjYuNDFIMC42NEwwLjY0LDkxLjQ5eiBNMCw5MC44NWg3LjY5djcuNjlIMFY5MC44NXoiLz4mI3hhOwkJCTwvZz4mI3hhOwkJCTxnIGlkPSJzaGFwZTEzODktMjIiIHRyYW5zZm9ybT0idHJhbnNsYXRlKDguODcxOSkiPiYjeGE7CQkJCTx0aXRsZSBpZD0idGl0bGUxNjY0MzgiPlNoZWV0LjEzODk8L3RpdGxlPiYjeGE7CQkJCTxwYXRoIGlkPSJwYXRoMTY2NDQwIiBpbmtzY2FwZTpjb25uZWN0b3ItY3VydmF0dXJlPSIwIiBzdHlsZT0iZmlsbDojMjBDMkVGOyIgZD0iTTYuNDQsOTEuNDloMC42MXY2LjRINi40NFY5MS40OXogTTUuMjgsOTEuNDkgICAgICBoMC42M3Y2LjRINS4yOFY5MS40OXogTTQuMTEsOTEuNDloMC42M3Y2LjRINC4xMVY5MS40OXogTTIuOTUsOTEuNDloMC42M3Y2LjRIMi45NUwyLjk1LDkxLjQ5eiBNMS43OCw5MS40OWgwLjYzdjYuNEgxLjc4ICAgICAgTDEuNzgsOTEuNDl6IE0wLjY0LDkxLjQ5aDAuNjF2Ni40SDAuNjRMMC42NCw5MS40OXogTTAsOTAuODVoNy42OXY3LjY5SDBWOTAuODV6Ii8+JiN4YTsJCQk8L2c+JiN4YTsJCQk8ZyBpZD0ic2hhcGUxMzkwLTI0IiB0cmFuc2Zvcm09InRyYW5zbGF0ZSgxNy43NDYzKSI+JiN4YTsJCQkJPHRpdGxlIGlkPSJ0aXRsZTE2NjQ0MyI+U2hlZXQuMTM5MDwvdGl0bGU+JiN4YTsJCQkJPHBhdGggaWQ9InBhdGgxNjY0NDUiIGlua3NjYXBlOmNvbm5lY3Rvci1jdXJ2YXR1cmU9IjAiIHN0eWxlPSJmaWxsOiMwMEFDRDM7IiBkPSJNNi40NCw5MS40OWgwLjYxdjYuNEg2LjQ0VjkxLjQ5eiBNNS4yOCw5MS40OSAgICAgIGgwLjYzdjYuNEg1LjI4VjkxLjQ5eiBNNC4xMSw5MS40OWgwLjYzdjYuNEg0LjExVjkxLjQ5eiBNMi45NSw5MS40OWgwLjYzdjYuNEgyLjk1TDIuOTUsOTEuNDl6IE0xLjc4LDkxLjQ5aDAuNjN2Ni40SDEuNzggICAgICBMMS43OCw5MS40OXogTTAuNjQsOTEuNDloMC42MXY2LjRIMC42NEwwLjY0LDkxLjQ5eiBNMCw5MC44NWg3LjY5djcuNjlIMFY5MC44NXoiLz4mI3hhOwkJCTwvZz4mI3hhOwkJCTxnIGlkPSJzaGFwZTEzOTEtMjYiIHRyYW5zZm9ybT0idHJhbnNsYXRlKDE3Ljc0NjMsLTguODczMTcpIj4mI3hhOwkJCQk8dGl0bGUgaWQ9InRpdGxlMTY2NDQ4Ij5TaGVldC4xMzkxPC90aXRsZT4mI3hhOwkJCQk8cGF0aCBpZD0icGF0aDE2NjQ1MCIgaW5rc2NhcGU6Y29ubmVjdG9yLWN1cnZhdHVyZT0iMCIgc3R5bGU9ImZpbGw6IzIwQzJFRjsiIGQ9Ik02LjQ0LDkxLjQ5aDAuNjF2Ni40MUg2LjQ0VjkxLjQ5eiAgICAgICBNNS4yOCw5MS40OWgwLjYzdjYuNDFINS4yOFY5MS40OXogTTQuMTEsOTEuNDloMC42M3Y2LjQxSDQuMTFWOTEuNDl6IE0yLjk1LDkxLjQ5aDAuNjN2Ni40MUgyLjk1TDIuOTUsOTEuNDl6IE0xLjc4LDkxLjQ5ICAgICAgaDAuNjN2Ni40MUgxLjc4TDEuNzgsOTEuNDl6IE0wLjY0LDkxLjQ5aDAuNjF2Ni40MUgwLjY0TDAuNjQsOTEuNDl6IE0wLDkwLjg1aDcuNjl2Ny42OUgwVjkwLjg1eiIvPiYjeGE7CQkJPC9nPiYjeGE7CQkJPGcgaWQ9InNoYXBlMTM5Mi0yOCIgdHJhbnNmb3JtPSJ0cmFuc2xhdGUoMjYuNjE4MikiPiYjeGE7CQkJCTx0aXRsZSBpZD0idGl0bGUxNjY0NTMiPlNoZWV0LjEzOTI8L3RpdGxlPiYjeGE7CQkJCTxwYXRoIGlkPSJwYXRoMTY2NDU1IiBpbmtzY2FwZTpjb25uZWN0b3ItY3VydmF0dXJlPSIwIiBzdHlsZT0iZmlsbDojMjBDMkVGOyIgZD0iTTYuNDQsOTEuNDloMC42MXY2LjRINi40NFY5MS40OXogTTUuMjgsOTEuNDkgICAgICBoMC42M3Y2LjRINS4yOFY5MS40OXogTTQuMTEsOTEuNDloMC42M3Y2LjRINC4xMVY5MS40OXogTTIuOTUsOTEuNDloMC42M3Y2LjRIMi45NUwyLjk1LDkxLjQ5eiBNMS43OCw5MS40OWgwLjYzdjYuNEgxLjc4ICAgICAgTDEuNzgsOTEuNDl6IE0wLjY0LDkxLjQ5aDAuNjF2Ni40SDAuNjRMMC42NCw5MS40OXogTTAsOTAuODVoNy42OXY3LjY5SDBWOTAuODV6Ii8+JiN4YTsJCQk8L2c+JiN4YTsJCQk8ZyBpZD0ic2hhcGUxMzkzLTMwIiB0cmFuc2Zvcm09InRyYW5zbGF0ZSgyNi42MTgyLC04Ljg3MzE3KSI+JiN4YTsJCQkJPHRpdGxlIGlkPSJ0aXRsZTE2NjQ1OCI+U2hlZXQuMTM5MzwvdGl0bGU+JiN4YTsJCQkJPHBhdGggaWQ9InBhdGgxNjY0NjAiIGlua3NjYXBlOmNvbm5lY3Rvci1jdXJ2YXR1cmU9IjAiIHN0eWxlPSJmaWxsOiMwMEFDRDM7IiBkPSJNNi40NCw5MS40OWgwLjYxdjYuNDFINi40NFY5MS40OXogICAgICAgTTUuMjgsOTEuNDloMC42M3Y2LjQxSDUuMjhWOTEuNDl6IE00LjExLDkxLjQ5aDAuNjN2Ni40MUg0LjExVjkxLjQ5eiBNMi45NSw5MS40OWgwLjYzdjYuNDFIMi45NUwyLjk1LDkxLjQ5eiBNMS43OCw5MS40OSAgICAgIGgwLjYzdjYuNDFIMS43OEwxLjc4LDkxLjQ5eiBNMC42NCw5MS40OWgwLjYxdjYuNDFIMC42NEwwLjY0LDkxLjQ5eiBNMCw5MC44NWg3LjY5djcuNjlIMFY5MC44NXoiLz4mI3hhOwkJCTwvZz4mI3hhOwkJCTxnIGlkPSJzaGFwZTEzOTQtMzIiIHRyYW5zZm9ybT0idHJhbnNsYXRlKDI2LjYxODIsLTE3Ljc0NjMpIj4mI3hhOwkJCQk8dGl0bGUgaWQ9InRpdGxlMTY2NDYzIj5TaGVldC4xMzk0PC90aXRsZT4mI3hhOwkJCQk8cGF0aCBpZD0icGF0aDE2NjQ2NSIgaW5rc2NhcGU6Y29ubmVjdG9yLWN1cnZhdHVyZT0iMCIgc3R5bGU9ImZpbGw6IzIwQzJFRjsiIGQ9Ik02LjQ0LDkxLjQ5aDAuNjF2Ni40MUg2LjQ0VjkxLjQ5eiAgICAgICBNNS4yOCw5MS40OWgwLjYzdjYuNDFINS4yOFY5MS40OXogTTQuMTEsOTEuNDloMC42M3Y2LjQxSDQuMTFWOTEuNDl6IE0yLjk1LDkxLjQ5aDAuNjN2Ni40MUgyLjk1TDIuOTUsOTEuNDl6IE0xLjc4LDkxLjQ5ICAgICAgaDAuNjN2Ni40MUgxLjc4TDEuNzgsOTEuNDl6IE0wLjY0LDkxLjQ5aDAuNjF2Ni40MUgwLjY0TDAuNjQsOTEuNDl6IE0wLDkwLjg1aDcuNjl2Ny42OUgwVjkwLjg1eiIvPiYjeGE7CQkJPC9nPiYjeGE7CQkJPGcgaWQ9InNoYXBlMTM5NS0zNCIgdHJhbnNmb3JtPSJ0cmFuc2xhdGUoMzUuNDkxNCkiPiYjeGE7CQkJCTx0aXRsZSBpZD0idGl0bGUxNjY0NjgiPlNoZWV0LjEzOTU8L3RpdGxlPiYjeGE7CQkJCTxwYXRoIGlkPSJwYXRoMTY2NDcwIiBpbmtzY2FwZTpjb25uZWN0b3ItY3VydmF0dXJlPSIwIiBzdHlsZT0iZmlsbDojMDBBQ0QzOyIgZD0iTTYuNDQsOTEuNDloMC42MXY2LjRINi40NFY5MS40OXogTTUuMjgsOTEuNDkgICAgICBoMC42M3Y2LjRINS4yOFY5MS40OXogTTQuMTEsOTEuNDloMC42M3Y2LjRINC4xMVY5MS40OXogTTIuOTUsOTEuNDloMC42M3Y2LjRIMi45NUwyLjk1LDkxLjQ5eiBNMS43OCw5MS40OWgwLjYzdjYuNEgxLjc4ICAgICAgTDEuNzgsOTEuNDl6IE0wLjY0LDkxLjQ5aDAuNjF2Ni40SDAuNjRMMC42NCw5MS40OXogTTAsOTAuODVoNy42OXY3LjY5SDBWOTAuODV6Ii8+JiN4YTsJCQk8L2c+JiN4YTsJCTwvZz4mI3hhOwkJPGcgaWQ9InNoYXBlMTM5Ni0zNiIgdHJhbnNmb3JtPSJ0cmFuc2xhdGUoMzUuNDAyNCwtNDAuMTIpIj4mI3hhOwkJCTx0aXRsZSBpZD0idGl0bGUxNjY0NzQiPlNoZWV0LjEzOTY8L3RpdGxlPiYjeGE7CQkJPHBhdGggaWQ9InBhdGgxNjY0NzYiIGlua3NjYXBlOmNvbm5lY3Rvci1jdXJ2YXR1cmU9IjAiIHN0eWxlPSJmaWxsOiNENEVERjE7IiBkPSJNMi4xMiw5NC4yOWMxLjE3LDAsMi4xMiwwLjk1LDIuMTIsMi4xMiAgICAgYzAsMS4xOC0wLjk1LDIuMTMtMi4xMiwyLjEzUzAsOTcuNTksMCw5Ni40MUMwLDk1LjI0LDAuOTUsOTQuMjksMi4xMiw5NC4yOXoiLz4mI3hhOwkJPC9nPiYjeGE7CQk8ZyBpZD0ic2hhcGUxMzk3LTM4IiB0cmFuc2Zvcm09InRyYW5zbGF0ZSgzNi4wMDQsLTQwLjcyMykiPiYjeGE7CQkJPHRpdGxlIGlkPSJ0aXRsZTE2NjQ3OSI+U2hlZXQuMTM5NzwvdGl0bGU+JiN4YTsJCQk8cGF0aCBpZD0icGF0aDE2NjQ4MSIgaW5rc2NhcGU6Y29ubmVjdG9yLWN1cnZhdHVyZT0iMCIgc3R5bGU9ImZpbGw6IzM5NEQ1NDsiIGQ9Ik0xLjUyLDk1LjVjMC4xOSwwLDAuMzgsMC4wNCwwLjU1LDAuMSAgICAgYy0wLjE5LDAuMTEtMC4zMSwwLjMxLTAuMzEsMC41NGMwLDAuMzQsMC4yOCwwLjYyLDAuNjIsMC42MmMwLjIzLDAsMC40NC0wLjEzLDAuNTQtMC4zM2MwLjA4LDAuMTgsMC4xMiwwLjM4LDAuMTIsMC41OSAgICAgYzAsMC44NC0wLjY4LDEuNTItMS41MiwxLjUyQzAuNjgsOTguNTQsMCw5Ny44NiwwLDk3LjAyUzAuNjgsOTUuNSwxLjUyLDk1LjV6Ii8+JiN4YTsJCTwvZz4mI3hhOwkJPGcgaWQ9InNoYXBlMTM5OC00MCIgdHJhbnNmb3JtPSJ0cmFuc2xhdGUoMCwtNDguMDcyMykiPiYjeGE7CQkJPHRpdGxlIGlkPSJ0aXRsZTE2NjQ4NCI+U2hlZXQuMTM5ODwvdGl0bGU+JiN4YTsJCQk8cGF0aCBpZD0icGF0aDE2NjQ4NiIgaW5rc2NhcGU6Y29ubmVjdG9yLWN1cnZhdHVyZT0iMCIgc3R5bGU9ImZpbGw6IzM5NEQ1NDsiIGQ9Ik0wLDk3Ljg1aDQ2LjQ3aDUuNzVoNDYuNDcgICAgIGMtMi4xNS0wLjU1LTYuOC0xLjI4LTYuMDMtNC4xYy0zLjkxLDQuNTItMTMuMzMsMy4xNy0xNS43MSwwLjk0Yy0yLjY1LDMuODUtMTguMDcsMi4zOS0xOS4xNC0wLjYxYy0zLjMyLDMuOS0xMy42MSwzLjktMTYuOTMsMCAgICAgYy0xLjA4LDIuOTktMTYuNDksNC40NS0xOS4xNCwwLjYxYy0yLjM4LDIuMjMtMTEuOCwzLjU4LTE1LjcxLTAuOTRDNi44LDk2LjU3LDIuMTUsOTcuMywwLDk3Ljg1eiIvPiYjeGE7CQk8L2c+JiN4YTsJCTxnIGlkPSJzaGFwZTEzOTktNDIiIHRyYW5zZm9ybT0idHJhbnNsYXRlKDE5LjAyODUsLTI5LjAyODYpIj4mI3hhOwkJCTx0aXRsZSBpZD0idGl0bGUxNjY0ODkiPlNoZWV0LjEzOTk8L3RpdGxlPiYjeGE7CQkJPHBhdGggaWQ9InBhdGgxNjY0OTEiIGlua3NjYXBlOmNvbm5lY3Rvci1jdXJ2YXR1cmU9IjAiIHN0eWxlPSJmaWxsOiNCRkRCRTA7IiBkPSJNMjQuMTQsOTguNDlDMTguODgsOTYsMTYsOTIuNjEsMTQuMzksODguOTEgICAgIGMtMS45NSwwLjU1LTQuMjksMC45MS03LjAyLDEuMDZjLTEuMDMsMC4wNi0yLjExLDAuMDktMy4yNCwwLjA5Yy0xLjMxLDAtMi42OS0wLjA0LTQuMTMtMC4xMmM0LjgyLDQuODIsMTAuNzUsOC41MywyMS43Miw4LjU5ICAgICBDMjIuNTMsOTguNTQsMjMuMzQsOTguNTIsMjQuMTQsOTguNDl6Ii8+JiN4YTsJCTwvZz4mI3hhOwkJPGcgaWQ9InNoYXBlMTQwMC00NCIgdHJhbnNmb3JtPSJ0cmFuc2xhdGUoMjYuMzk4MiwtMzUuMjQzNCkiPiYjeGE7CQkJPHRpdGxlIGlkPSJ0aXRsZTE2NjQ5NCI+U2hlZXQuMTQwMDwvdGl0bGU+JiN4YTsJCQk8cGF0aCBpZD0icGF0aDE2NjQ5NiIgaW5rc2NhcGU6Y29ubmVjdG9yLWN1cnZhdHVyZT0iMCIgc3R5bGU9ImZpbGw6I0Q0RURGMTsiIGQ9Ik04Ljk3LDk4LjU0Yy0wLjcyLTAuOTktMS40My0yLjIzLTEuOTQtMy40MiAgICAgYy0xLjk2LDAuNTYtNC4zLDAuOTItNy4wMywxLjA3QzEuODcsOTcuMjEsNC41NSw5OC4xNSw4Ljk3LDk4LjU0eiIvPiYjeGE7CQk8L2c+JiN4YTsJPC9nPiYjeGE7PC9nPiYjeGE7PC9zdmc+;fillColor=#007FFF;" parent="1" vertex="1">
          <mxGeometry x="480" y="320" width="99" height="83" as="geometry" />
        </mxCell>
        <mxCell id="4g_t7paAZGqGhglVZUK9-11" value="" style="shape=image;verticalLabelPosition=bottom;labelBackgroundColor=#ffffff;verticalAlign=top;aspect=fixed;imageAspect=0;image=data:image/svg+xml,PHN2ZyB4bWxuczpjYz0iaHR0cDovL2NyZWF0aXZlY29tbW9ucy5vcmcvbnMjIiB4bWxuczpkYz0iaHR0cDovL3B1cmwub3JnL2RjL2VsZW1lbnRzLzEuMS8iIHhtbG5zOmlua3NjYXBlPSJodHRwOi8vd3d3Lmlua3NjYXBlLm9yZy9uYW1lc3BhY2VzL2lua3NjYXBlIiB4bWxuczpyZGY9Imh0dHA6Ly93d3cudzMub3JnLzE5OTkvMDIvMjItcmRmLXN5bnRheC1ucyMiIHhtbG5zOnNvZGlwb2RpPSJodHRwOi8vc29kaXBvZGkuc291cmNlZm9yZ2UubmV0L0RURC9zb2RpcG9kaS0wLmR0ZCIgeG1sbnM6c3ZnPSJodHRwOi8vd3d3LnczLm9yZy8yMDAwL3N2ZyIgeG1sbnM9Imh0dHA6Ly93d3cudzMub3JnLzIwMDAvc3ZnIiB4bWxuczp4bGluaz0iaHR0cDovL3d3dy53My5vcmcvMTk5OS94bGluayIgdmVyc2lvbj0iMS4xIiBpZD0ic3ZnMTY2NTAyIiBpbmtzY2FwZTp2ZXJzaW9uPSIwLjkyLjMgKDI0MDU1NDYsIDIwMTgtMDMtMTEpIiBzb2RpcG9kaTpkb2NuYW1lPSJkb2NrZXJfdG9vbHMuc3ZnIiB4PSIwcHgiIHk9IjBweCIgdmlld0JveD0iMCAwIDk5LjIyIDgzLjI0IiBzdHlsZT0iZW5hYmxlLWJhY2tncm91bmQ6bmV3IDAgMCA5OS4yMiA4My4yNDsiIHhtbDpzcGFjZT0icHJlc2VydmUiPiYjeGE7PHNvZGlwb2RpOm5hbWVkdmlldyBib3JkZXJjb2xvcj0iIzY2NjY2NiIgYm9yZGVyb3BhY2l0eT0iMSIgZml0LW1hcmdpbi1ib3R0b209IjAiIGZpdC1tYXJnaW4tbGVmdD0iMCIgZml0LW1hcmdpbi1yaWdodD0iMCIgZml0LW1hcmdpbi10b3A9IjAiIGdyaWR0b2xlcmFuY2U9IjEwIiBndWlkZXRvbGVyYW5jZT0iMTAiIGlkPSJuYW1lZHZpZXcxNjY1MDQiIGlua3NjYXBlOmN1cnJlbnQtbGF5ZXI9InN2ZzE2NjUwMiIgaW5rc2NhcGU6Y3g9IjY2LjE0MTY1NiIgaW5rc2NhcGU6Y3k9IjU1LjQ5MzEwOCIgaW5rc2NhcGU6cGFnZW9wYWNpdHk9IjAiIGlua3NjYXBlOnBhZ2VzaGFkb3c9IjIiIGlua3NjYXBlOndpbmRvdy1oZWlnaHQ9IjEwMTciIGlua3NjYXBlOndpbmRvdy1tYXhpbWl6ZWQ9IjEiIGlua3NjYXBlOndpbmRvdy13aWR0aD0iMTkyMCIgaW5rc2NhcGU6d2luZG93LXg9Ii04IiBpbmtzY2FwZTp3aW5kb3cteT0iLTgiIGlua3NjYXBlOnpvb209IjYuNTk5MDg5OCIgb2JqZWN0dG9sZXJhbmNlPSIxMCIgcGFnZWNvbG9yPSIjZmZmZmZmIiBzaG93Z3JpZD0iZmFsc2UiPiYjeGE7CTwvc29kaXBvZGk6bmFtZWR2aWV3PiYjeGE7PGcgaWQ9ImcxNjY1MDAiIHRyYW5zZm9ybT0idHJhbnNsYXRlKC03LjY1LC03LjY0OTMyOSkiPiYjeGE7CTx0aXRsZSBpZD0idGl0bGUxNjYzODQiPlBhZ2UtMTwvdGl0bGU+JiN4YTsJPGcgaWQ9Imdyb3VwMTM3Ny0xIiB0cmFuc2Zvcm09InRyYW5zbGF0ZSg3LjY1LC03LjE0MTc0KSI+JiN4YTsJCTx0aXRsZSBpZD0idGl0bGUxNjYzODYiPkRvY2tlciBUb29sczwvdGl0bGU+JiN4YTsJCTxnIGlkPSJzaGFwZTEzNzgtMiIgdHJhbnNmb3JtPSJ0cmFuc2xhdGUoMC4wNjc0MTM3KSI+JiN4YTsJCQk8dGl0bGUgaWQ9InRpdGxlMTY2Mzg4Ij5kb2NrZXJfNF88L3RpdGxlPiYjeGE7CQkJPHBhdGggaWQ9InBhdGgxNjYzOTAiIGlua3NjYXBlOmNvbm5lY3Rvci1jdXJ2YXR1cmU9IjAiIHN0eWxlPSJmaWxsOiMzRjU3NjU7IiBkPSJNNzMuMzksOTIuNzljMi4yMy0xLjkxLDQuNDYtMy44Myw2LjY5LTUuNzUgICAgIGMwLjc2LTAuNjYsMS41OS0xLjM0LDIuMzUtMi4wM2MtMC42MS0wLjc2LTEuNjItMS4zMS0yLjQ4LTEuNjRjLTEuNzMtMC42Ni0zLjQ0LTAuNDQtNS4wMywwLjQ4Yy0yLjA5LDEuMi0yLjk3LDMuMTItMi44OSw1LjUgICAgIGMwLjAzLDAuOTQsMC4yOCwxLjg0LDAuNzgsMi42NEM3Mi45OCw5Mi4yNyw3My4xOCw5Mi41NCw3My4zOSw5Mi43OXogTTc1Ljk3LDk0LjZjMS4xLDAuMzgsMi4zNCwwLjMzLDMuNDcsMC4xNCAgICAgYzAuNTctMC4yNSwyLjA0LTAuODksMi41OC0wLjhsMC4wOCwwLjAyTDgyLjE4LDk0YzAuMzMsMC4xNiwwLjY0LDAuMzgsMC44MSwwLjcyYzAuNCwwLjc5LDAuMjEsMS41Ny0wLjU3LDIuMDJsLTAuMjUsMC4xNSAgICAgYy0yLjg1LDEuNjUtNS44OSwxLjQyLTguNzMtMC4xMmMtMS4zNi0wLjczLTIuNC0xLjgyLTMuMTctMy4xNmwtMC4xOC0wLjMxYy0xLjgzLTMuMTctMS41OC02LjUsMC40OC05LjUyICAgICBjMC43Mi0xLjA0LDEuNjUtMS44NSwyLjc0LTIuNDhsMC40MS0wLjIzYzIuNjktMS41NSw1LjU3LTEuNDUsOC4zMy0wLjA5YzEuNDgsMC43MywyLjY4LDEuODMsMy41MSwzLjI2bDAuMTUsMC4yNiAgICAgYzAuNiwxLjA0LTAuMTgsMS45NS0wLjk4LDIuNTdjLTAuOTQsMC43Mi0xLjg4LDEuNTktMi43OCwyLjM2Qzc5Ljk2LDkxLjE1LDc3Ljk3LDkyLjg4LDc1Ljk3LDk0LjZ6IE05Ny4zNCw4MC4xOGgwLjMgICAgIGMwLjksMCwxLjUxLDAuNjEsMS41MSwxLjVjMCwxLjI1LTEuMiwxLjU3LTIuMjIsMS41N2MtMS4zNiwwLTIuNjQsMC44MS0zLjU3LDEuNzNjLTEuMTcsMS4xNS0xLjY3LDIuNjEtMS42Nyw0LjIydjcuMjggICAgIGMwLDAuODMtMC41MiwxLjUxLTEuMzksMS41MWgtMC4yNGMtMC44NiwwLTEuMzgtMC42OC0xLjM4LTEuNTF2LTcuN2MwLTIuOTUsMS40NC01LjM2LDMuODQtNy4wNiAgICAgQzkzLjk1LDgwLjcxLDk1LjU5LDgwLjE4LDk3LjM0LDgwLjE4eiBNNTkuODcsODUuMzRjMS4xNi0xLjE3LDIuMzQtMi4zMywzLjUyLTMuNDhjMC4zMy0wLjMyLDEuNTgtMS42OCwyLjA4LTEuNjhINjZsMC4wNiwwLjAxICAgICBjMC42OSwwLjE0LDEuMiwwLjU4LDEuMiwxLjMxdjAuM2MwLDAuNS0wLjU5LDEuMDktMC45MSwxLjQzYy0wLjY5LDAuNzQtMS40MiwxLjQ0LTIuMTMsMi4xNmwtMy42MywzLjY5ICAgICBjMS41NywxLjU2LDMuMTMsMy4xMyw0LjY4LDQuNzFjMC40MywwLjQ0LDAuODYsMC44OCwxLjI4LDEuMzJjMC4xNSwwLjE2LDAuMzcsMC4zNSwwLjUsMC41N2MwLjEzLDAuMjEsMC4yMSwwLjQ0LDAuMjEsMC42OHYwLjMxICAgICBsLTAuMDEsMC4wN2MtMC4xNywwLjY5LTAuNjEsMS4yNC0xLjM3LDEuMjRoLTAuMjRjLTAuNSwwLTEuMDYtMC41Ni0xLjQtMC44OGMtMC43LTAuNjYtMS4zOC0xLjM2LTIuMDctMi4wM2wtMi4zMS0yLjI3djMuNjIgICAgIGMwLDAuODQtMC41MiwxLjUxLTEuMzgsMS41MWgtMC4yNGMtMC44NiwwLTEuMzgtMC42Ny0xLjM4LTEuNTFWNzYuMDFjMC0wLjgzLDAuNTItMS41LDEuMzgtMS41aDAuMjRjMC44NiwwLDEuMzgsMC42NywxLjM4LDEuNSAgICAgTDU5Ljg3LDg1LjM0TDU5Ljg3LDg1LjM0eiBNNTAuMTIsODMuMzFjLTAuNDYtMC4yMS0xLjMxLTAuMjktMS44LTAuM2MtMi41MS0wLjEtNC4zMywxLjMyLTUuNCwzLjUzICAgICBjLTAuMzYsMC43Ny0wLjUzLDEuNTgtMC41MywyLjQyYzAsMi41OCwxLjM1LDQuMzgsMy42NSw1LjQ4YzAuODQsMC40LDEuOTIsMC40OCwyLjg0LDAuNDhjMC44MSwwLDEuOTUtMC41LDIuNjYtMC44NGwwLjEzLTAuMDYgICAgIGgwLjU2bDAuMDYsMC4wMmMwLjY4LDAuMTQsMS4yLDAuNTcsMS4yLDEuMzF2MC4zYzAsMS44My0zLjM1LDIuMjUtNC42MywyLjM0Yy00LjUsMC4zMS03Ljg3LTIuMTctOS4xNS02LjQ2ICAgICBjLTAuMjMtMC43NS0wLjMzLTEuNDktMC4zMy0yLjI3di0wLjZjMC0zLjI2LDEuNjItNS44NCw0LjQyLTcuNWMxLjMtMC43NywyLjczLTEuMTYsNC4yNS0xLjE2aDAuNTljMS42LDAsMy4wOCwwLjQ1LDQuNCwxLjM2ICAgICBsMC4xMSwwLjA3bDAuMDcsMC4xMmMwLjE0LDAuMjMsMC4yNywwLjUxLDAuMjcsMC43OXYwLjNjMCwwLjc2LTAuNTgsMS4xOC0xLjI3LDEuMzFsLTAuMDYsMC4wMWgtMC4xOCAgICAgQzUxLjUzLDgzLjk2LDUwLjUyLDgzLjUsNTAuMTIsODMuMzF6IE0yMi43LDg5LjAyYzAsMi4yOSwxLjEyLDMuOTcsMy4wNSw1LjE1YzAuOTEsMC41NiwxLjksMC44MSwyLjk2LDAuODEgICAgIGMyLjI2LDAsMy45My0xLjE1LDUuMDktMy4wNWMwLjU2LTAuOTEsMC44MS0xLjkxLDAuODEtMi45N2MwLTIuMTItMS4wMy0zLjc1LTIuNzgtNC45MmMtMC45Ni0wLjY1LTIuMDItMC45Ny0zLjE4LTAuOTcgICAgIGMtMi41MiwwLTQuMzMsMS4yNy01LjQyLDMuNTNDMjIuODYsODcuMzYsMjIuNyw4OC4xOCwyMi43LDg5LjAyeiBNMjguMzUsODAuMDZoMC40MmMzLjQ5LDAsNi4xNCwxLjY5LDcuODEsNC43MyAgICAgYzAuNjgsMS4yMiwxLjAzLDIuNTQsMS4wMywzLjk0djAuNTljMCwzLjI2LTEuNiw1Ljg2LTQuNDEsNy41MWMtMS4zLDAuNzYtMi43NCwxLjE1LTQuMjUsMS4xNWgtMC42Yy0zLjI2LDAtNS44NS0xLjYxLTcuNS00LjQxICAgICBjLTAuNzctMS4zLTEuMTYtMi43NC0xLjE2LTQuMjV2LTAuNTljMC0zLjI3LDEuNjItNS44NSw0LjQxLTcuNTFDMjUuNDEsODAuNDUsMjYuODQsODAuMDYsMjguMzUsODAuMDZ6IE0zLjAxLDg5LjAyICAgICBjMCwyLjM2LDEuMTQsNC4xMywzLjIsNS4yNmMwLjg0LDAuNDUsMS43NCwwLjcsMi42OSwwLjdjMi4zMSwwLDQuMDMtMS4wOSw1LjIxLTMuMDVjMC41NS0wLjkxLDAuODEtMS45MSwwLjgxLTIuOTcgICAgIGMwLTIuMDQtMC45Ny0zLjYzLTIuNjItNC44MmMtMC45OS0wLjcxLTIuMTItMS4wNy0zLjM0LTEuMDdjLTIuNTIsMC00LjMzLDEuMjctNS40MiwzLjUzQzMuMTcsODcuMzYsMy4wMSw4OC4xOCwzLjAxLDg5LjAyeiAgICAgIE0xNC45Miw4Mi4zdi02LjM1YzAtMC44MywwLjUyLTEuNSwxLjM4LTEuNWgwLjI0YzAuODcsMCwxLjM4LDAuNjcsMS4zOCwxLjV2MTMuMzdjMCwzLjI2LTEuNjEsNS44NS00LjQxLDcuNTEgICAgIGMtMS4zLDAuNzYtMi43NCwxLjE2LTQuMjUsMS4xNmgtMC42Yy0zLjI2LDAtNS44NS0xLjYyLTcuNS00LjQyQzAuMzksOTIuMjcsMCw5MC44MywwLDg5LjMydi0wLjU5YzAtMy4yNiwxLjYxLTUuODYsNC40MS03LjUxICAgICBjMS4zMS0wLjc3LDIuNzQtMS4xNiw0LjI1LTEuMTZoMC42QzExLjQ3LDgwLjA2LDEzLjM0LDgwLjkxLDE0LjkyLDgyLjN6Ii8+JiN4YTsJCTwvZz4mI3hhOwkJPGcgaWQ9InNoYXBlMTM3OS00IiB0cmFuc2Zvcm09InRyYW5zbGF0ZSgxMS44MzQzLC0yNy41NDkzKSI+JiN4YTsJCQk8dGl0bGUgaWQ9InRpdGxlMTY2MzkzIj5vdXRsaW5lXzdfPC90aXRsZT4mI3hhOwkJCTxwYXRoIGlkPSJwYXRoMTY2Mzk1IiBpbmtzY2FwZTpjb25uZWN0b3ItY3VydmF0dXJlPSIwIiBzdHlsZT0iZmlsbDojMzk0RDU0OyIgZD0iTTQ1LjQsNjAuMDloOC44N3Y5LjA3aDQuNDkgICAgIGMyLjA3LDAsNC4yLTAuMzcsNi4xNi0xLjA0YzAuOTYtMC4zMiwyLjA1LTAuNzgsMy0xLjM1Yy0xLjI2LTEuNjQtMS44OS0zLjctMi4wOC01Ljc0Yy0wLjI2LTIuNzYsMC4zLTYuMzcsMi4xNy04LjUzbDAuOTQtMS4wOCAgICAgbDEuMTEsMC44OWMyLjgsMi4yNSw1LjE1LDUuMzksNS41Niw4Ljk3YzMuMzctMC45OSw3LjMzLTAuNzYsMTAuMywwLjk2bDEuMjIsMC43bC0wLjY0LDEuMjVjLTIuNTIsNC45MS03Ljc3LDYuNDItMTIuOSw2LjE1ICAgICBjLTcuNjgsMTkuMTQtMjQuNDEsMjguMi00NC42OCwyOC4yYy0xMC40OCwwLTIwLjA5LTMuOTItMjUuNTctMTMuMjJsLTAuMDktMC4xNWwtMC43OS0xLjYyQzAuNjIsNzkuNDYsMCw3NC45OCwwLjQyLDcwLjUgICAgIGwwLjEyLTEuMzRoNy41OXYtOS4wN0gxN3YtOC44OGgxNy43NXYtOC44N2gxMC42NHYxNy43NUg0NS40eiIvPiYjeGE7CQk8L2c+JiN4YTsJCTxnIGlkPSJncm91cDEzODAtNiIgdHJhbnNmb3JtPSJ0cmFuc2xhdGUoMTMuMjcwMywtMjkuMDI4NikiPiYjeGE7CQkJPHRpdGxlIGlkPSJ0aXRsZTE2NjM5OCI+Ym9keV9jb2xvcnNfOF88L3RpdGxlPiYjeGE7CQkJPGcgaWQ9InNoYXBlMTM4MS03Ij4mI3hhOwkJCQk8dGl0bGUgaWQ9InRpdGxlMTY2NDAwIj5TaGVldC4xMzgxPC90aXRsZT4mI3hhOwkJCQk8cGF0aCBpZD0icGF0aDE2NjQwMiIgaW5rc2NhcGU6Y29ubmVjdG9yLWN1cnZhdHVyZT0iMCIgc3R5bGU9ImZpbGw6IzAwQUFEQTsiIGQ9Ik03Mi43MSw2NC45MmMwLjU5LTQuNjItMi44Ny04LjI1LTUuMDItOS45OCAgICAgIGMtMi40NywyLjg2LTIuODUsMTAuMzUsMS4wMywxMy41MWMtMi4xNywxLjkyLTYuNzMsMy42Ni0xMS40LDMuNjZIMC40NUMwLDc2Ljk5LDAuODYsODEuNDgsMi44MSw4NS4zM2wwLjY1LDEuMTggICAgICBjMC40MSwwLjY5LDAuODYsMS4zNiwxLjM0LDIuMDFsMCwwYzIuMzQsMC4xNSw0LjQ5LDAuMiw2LjQ2LDAuMTZjMCwwLDAsMCwwLjAxLDBjMy44Ny0wLjA5LDcuMDMtMC41NCw5LjQzLTEuMzcgICAgICBjMC4zNi0wLjEzLDAuNzUsMC4wNiwwLjg3LDAuNDJjMC4xMiwwLjM1LTAuMDcsMC43NC0wLjQyLDAuODdjLTAuMzIsMC4xMS0wLjY1LDAuMjEtMSwwLjMxbDAsMGMtMS44OSwwLjU0LTMuOTEsMC45LTYuNTIsMS4wNiAgICAgIGMwLjE2LDAtMC4xNiwwLjAyLTAuMTYsMC4wMmMtMC4wOSwwLjAxLTAuMiwwLjAyLTAuMjksMC4wM2MtMS4wMywwLjA1LTIuMTQsMC4wNy0zLjI3LDAuMDdjLTEuMjQsMC0yLjQ2LTAuMDMtMy44My0wLjEgICAgICBsLTAuMDMsMC4wM2M0LjczLDUuMzIsMTIuMTQsOC41MiwyMS40Myw4LjUyYzE5LjY1LDAsMzYuMzItOC43Miw0My43LTI4LjI4YzUuMjQsMC41NCwxMC4yNy0wLjc5LDEyLjU2LTUuMjYgICAgICBDODAuMSw2Mi44OSw3NS40MSw2My41Niw3Mi43MSw2NC45MnoiLz4mI3hhOwkJCTwvZz4mI3hhOwkJCTxnIGlkPSJzaGFwZTEzODItOSIgdHJhbnNmb3JtPSJ0cmFuc2xhdGUoMy41ODk0NiwtNS4xNDc2MSkiPiYjeGE7CQkJCTx0aXRsZSBpZD0idGl0bGUxNjY0MDUiPlNoZWV0LjEzODI8L3RpdGxlPiYjeGE7CQkJCTxwYXRoIGlkPSJwYXRoMTY2NDA3IiBpbmtzY2FwZTpjb25uZWN0b3ItY3VydmF0dXJlPSIwIiBzdHlsZT0iZmlsbDojMjRCOEVCOyIgZD0iTTY5LjEyLDcwLjA3YzAuNTktNC42My0yLjg3LTguMjYtNS4wMS05Ljk4ICAgICAgYy0yLjQ4LDIuODYtMi44NiwxMC4zNSwxLjAyLDEzLjUxYy0yLjE3LDEuOTItNi43MywzLjY2LTExLjQsMy42NkgwLjIzQzAsODQuNzMsMi43Nyw5MC40LDcuNjcsOTMuODNjMCwwLDAsMCwwLjAxLDAgICAgICBjMy44Ny0wLjA5LDcuMDMtMC41NSw5LjQzLTEuMzhjMC4zNi0wLjEyLDAuNzUsMC4wNywwLjg3LDAuNDNjMC4xMiwwLjM1LTAuMDcsMC43NC0wLjQyLDAuODZjLTAuMzIsMC4xMi0wLjY1LDAuMjItMSwwLjMybDAsMCAgICAgIGMtMS44OSwwLjUzLTQuMDgsMC45NC02LjY5LDEuMTFjMCwwLTAuMDctMC4wNy0wLjA3LTAuMDZjNi42OSwzLjQzLDE2LjM5LDMuNDEsMjcuNTEtMC44NmMxMi40Ny00Ljc5LDI0LjA3LTEzLjkxLDMyLjE2LTI0LjM1ICAgICAgQzY5LjM1LDY5Ljk1LDY5LjIzLDcwLjAxLDY5LjEyLDcwLjA3eiIvPiYjeGE7CQkJPC9nPiYjeGE7CQkJPGcgaWQ9InNoYXBlMTM4My0xMSIgdHJhbnNmb3JtPSJ0cmFuc2xhdGUoMC41NjA5MzMpIj4mI3hhOwkJCQk8dGl0bGUgaWQ9InRpdGxlMTY2NDEwIj5TaGVldC4xMzgzPC90aXRsZT4mI3hhOwkJCQk8cGF0aCBpZD0icGF0aDE2NjQxMiIgaW5rc2NhcGU6Y29ubmVjdG9yLWN1cnZhdHVyZT0iMCIgc3R5bGU9ImZpbGw6IzAwOEJCODsiIGQ9Ik0wLDc4LjA0YzAuMzUsMi42MSwxLjEyLDUuMDYsMi4yNSw3LjI4ICAgICAgbDAuNjUsMS4xOWMwLjQxLDAuNjksMC44NSwxLjM2LDEuMzQsMi4wMWMyLjM0LDAuMTUsNC40OSwwLjIsNi40NiwwLjE2YzMuODgtMC4wOSw3LjA0LTAuNTQsOS40NC0xLjM4ICAgICAgYzAuMzYtMC4xMiwwLjc0LDAuMDcsMC44NywwLjQzYzAuMTIsMC4zNS0wLjA3LDAuNzQtMC40MiwwLjg3Yy0wLjMyLDAuMTEtMC42NiwwLjIxLTEsMC4zMWwwLDBjLTEuODksMC41NC00LjA3LDAuOTItNi42OCwxLjA4ICAgICAgQzEyLjgyLDkwLDEyLjY2LDkwLDEyLjU3LDkwLjAxYy0xLjAyLDAuMDUtMi4xMiwwLjA5LTMuMjYsMC4wOWMtMS4yNCwwLTIuNTEtMC4wMi0zLjg3LTAuMDljNC43NCw1LjMyLDEyLjE5LDguNTMsMjEuNDgsOC41MyAgICAgIGMxNi44MiwwLDMxLjQ2LTYuMzksMzkuOTYtMjAuNUwwLDc4LjA0eiIvPiYjeGE7CQkJPC9nPiYjeGE7CQkJPGcgaWQ9InNoYXBlMTM4NC0xMyIgdHJhbnNmb3JtPSJ0cmFuc2xhdGUoNC4zMzM1NiwtNS4xMTE5OSkiPiYjeGE7CQkJCTx0aXRsZSBpZD0idGl0bGUxNjY0MTUiPlNoZWV0LjEzODQ8L3RpdGxlPiYjeGE7CQkJCTxwYXRoIGlkPSJwYXRoMTY2NDE3IiBpbmtzY2FwZTpjb25uZWN0b3ItY3VydmF0dXJlPSIwIiBzdHlsZT0iZmlsbDojMDM5QkM2OyIgZD0iTTAsODMuMTVjMS4wMSw0LjU5LDMuNDIsOC4xOSw2LjkzLDEwLjY0ICAgICAgYzMuODgtMC4wOCw3LjA0LTAuNTQsOS40NC0xLjM3YzAuMzUtMC4xMywwLjc0LDAuMDYsMC44NywwLjQyYzAuMTIsMC4zNi0wLjA3LDAuNzQtMC40MywwLjg3Yy0wLjMyLDAuMTEtMC42NSwwLjIxLTAuOTksMC4zMSAgICAgIGwwLDBjLTEuODksMC41NC00LjEyLDAuOTItNi43MywxLjA5YzYuNjksMy40MywxNi4zNiwzLjM4LDI3LjQ3LTAuODljNi43My0yLjU5LDEzLjItNi40MywxOS4wMS0xMS4wN0wwLDgzLjE1eiIvPiYjeGE7CQkJPC9nPiYjeGE7CQk8L2c+JiN4YTsJCTxnIGlkPSJzaGFwZTEzODUtMTUiIHRyYW5zZm9ybT0idHJhbnNsYXRlKDE2Ljk1OSwtMzcuNTAzNikiPiYjeGE7CQkJPHRpdGxlIGlkPSJ0aXRsZTE2NjQyMSI+U2hlZXQuMTM4NTwvdGl0bGU+JiN4YTsJCQk8cGF0aCBpZD0icGF0aDE2NjQyMyIgaW5rc2NhcGU6Y29ubmVjdG9yLWN1cnZhdHVyZT0iMCIgc3R5bGU9ImZpbGw6IzM5NEQ1NDsiIGQ9Ik02LjIsOTguNTRjMS4xMywwLDIuMjEtMC4wMywzLjI0LTAuMDkgICAgIGMwLjA5LTAuMDEsMC4xNy0wLjAxLDAuMjYtMC4wMmMwLjAxLDAsMC4wMSwwLDAuMDEsMGMyLjYxLTAuMTYsNC44Ny0wLjUxLDYuNzUtMS4wNWwwLDBjMC4zNS0wLjA5LDAuNjgtMC4yLDEtMC4zMSAgICAgYzAuMzUtMC4xMiwwLjU0LTAuNTEsMC40Mi0wLjg3Yy0wLjEyLTAuMzUtMC41MS0wLjU0LTAuODctMC40MmMtMi40LDAuODMtNS41NiwxLjI5LTkuNDMsMS4zN2wwLDBjLTEuOTgsMC4wNS00LjEzLDAtNi40Ny0wLjE1ICAgICBsMCwwYy0wLjEyLTAuMDEtMC4yNC0wLjAyLTAuMzYtMC4wM2MtMC4zNy0wLjAyLTAuNywwLjI2LTAuNzIsMC42NGMtMC4wMywwLjM3LDAuMjUsMC43LDAuNjMsMC43MyAgICAgYzAuNDgsMC4wMywwLjk1LDAuMDYsMS40MSwwLjA4YzAuMDcsMCwwLjE0LDAuMDEsMC4yMiwwLjAxQzMuNjUsOTguNSw0Ljk2LDk4LjU0LDYuMiw5OC41NEw2LjIsOTguNTR6Ii8+JiN4YTsJCTwvZz4mI3hhOwkJPGcgaWQ9Imdyb3VwMTM4Ni0xNyIgdHJhbnNmb3JtPSJ0cmFuc2xhdGUoMjEuNDQyNiwtNTYuODI5NykiPiYjeGE7CQkJPHRpdGxlIGlkPSJ0aXRsZTE2NjQyNiI+Q29udGFpbmVyc184XzwvdGl0bGU+JiN4YTsJCQk8ZyBpZD0ic2hhcGUxMzg3LTE4Ij4mI3hhOwkJCQk8dGl0bGUgaWQ9InRpdGxlMTY2NDI4Ij5TaGVldC4xMzg3PC90aXRsZT4mI3hhOwkJCQk8cGF0aCBpZD0icGF0aDE2NjQzMCIgaW5rc2NhcGU6Y29ubmVjdG9yLWN1cnZhdHVyZT0iMCIgc3R5bGU9ImZpbGw6IzAwQUNEMzsiIGQ9Ik02LjQ0LDkxLjQ5aDAuNjF2Ni40SDYuNDRWOTEuNDl6IE01LjI4LDkxLjQ5ICAgICAgaDAuNjN2Ni40SDUuMjhWOTEuNDl6IE00LjExLDkxLjQ5aDAuNjN2Ni40SDQuMTFWOTEuNDl6IE0yLjk1LDkxLjQ5aDAuNjN2Ni40SDIuOTVMMi45NSw5MS40OXogTTEuNzgsOTEuNDloMC42M3Y2LjRIMS43OCAgICAgIEwxLjc4LDkxLjQ5eiBNMC42NCw5MS40OWgwLjYxdjYuNEgwLjY0TDAuNjQsOTEuNDl6IE0wLDkwLjg1aDcuNjl2Ny42OUgwVjkwLjg1eiIvPiYjeGE7CQkJPC9nPiYjeGE7CQkJPGcgaWQ9InNoYXBlMTM4OC0yMCIgdHJhbnNmb3JtPSJ0cmFuc2xhdGUoOC44NzE5LC04Ljg3MzE3KSI+JiN4YTsJCQkJPHRpdGxlIGlkPSJ0aXRsZTE2NjQzMyI+U2hlZXQuMTM4ODwvdGl0bGU+JiN4YTsJCQkJPHBhdGggaWQ9InBhdGgxNjY0MzUiIGlua3NjYXBlOmNvbm5lY3Rvci1jdXJ2YXR1cmU9IjAiIHN0eWxlPSJmaWxsOiMwMEFDRDM7IiBkPSJNNi40NCw5MS40OWgwLjYxdjYuNDFINi40NFY5MS40OXogICAgICAgTTUuMjgsOTEuNDloMC42M3Y2LjQxSDUuMjhWOTEuNDl6IE00LjExLDkxLjQ5aDAuNjN2Ni40MUg0LjExVjkxLjQ5eiBNMi45NSw5MS40OWgwLjYzdjYuNDFIMi45NUwyLjk1LDkxLjQ5eiBNMS43OCw5MS40OSAgICAgIGgwLjYzdjYuNDFIMS43OEwxLjc4LDkxLjQ5eiBNMC42NCw5MS40OWgwLjYxdjYuNDFIMC42NEwwLjY0LDkxLjQ5eiBNMCw5MC44NWg3LjY5djcuNjlIMFY5MC44NXoiLz4mI3hhOwkJCTwvZz4mI3hhOwkJCTxnIGlkPSJzaGFwZTEzODktMjIiIHRyYW5zZm9ybT0idHJhbnNsYXRlKDguODcxOSkiPiYjeGE7CQkJCTx0aXRsZSBpZD0idGl0bGUxNjY0MzgiPlNoZWV0LjEzODk8L3RpdGxlPiYjeGE7CQkJCTxwYXRoIGlkPSJwYXRoMTY2NDQwIiBpbmtzY2FwZTpjb25uZWN0b3ItY3VydmF0dXJlPSIwIiBzdHlsZT0iZmlsbDojMjBDMkVGOyIgZD0iTTYuNDQsOTEuNDloMC42MXY2LjRINi40NFY5MS40OXogTTUuMjgsOTEuNDkgICAgICBoMC42M3Y2LjRINS4yOFY5MS40OXogTTQuMTEsOTEuNDloMC42M3Y2LjRINC4xMVY5MS40OXogTTIuOTUsOTEuNDloMC42M3Y2LjRIMi45NUwyLjk1LDkxLjQ5eiBNMS43OCw5MS40OWgwLjYzdjYuNEgxLjc4ICAgICAgTDEuNzgsOTEuNDl6IE0wLjY0LDkxLjQ5aDAuNjF2Ni40SDAuNjRMMC42NCw5MS40OXogTTAsOTAuODVoNy42OXY3LjY5SDBWOTAuODV6Ii8+JiN4YTsJCQk8L2c+JiN4YTsJCQk8ZyBpZD0ic2hhcGUxMzkwLTI0IiB0cmFuc2Zvcm09InRyYW5zbGF0ZSgxNy43NDYzKSI+JiN4YTsJCQkJPHRpdGxlIGlkPSJ0aXRsZTE2NjQ0MyI+U2hlZXQuMTM5MDwvdGl0bGU+JiN4YTsJCQkJPHBhdGggaWQ9InBhdGgxNjY0NDUiIGlua3NjYXBlOmNvbm5lY3Rvci1jdXJ2YXR1cmU9IjAiIHN0eWxlPSJmaWxsOiMwMEFDRDM7IiBkPSJNNi40NCw5MS40OWgwLjYxdjYuNEg2LjQ0VjkxLjQ5eiBNNS4yOCw5MS40OSAgICAgIGgwLjYzdjYuNEg1LjI4VjkxLjQ5eiBNNC4xMSw5MS40OWgwLjYzdjYuNEg0LjExVjkxLjQ5eiBNMi45NSw5MS40OWgwLjYzdjYuNEgyLjk1TDIuOTUsOTEuNDl6IE0xLjc4LDkxLjQ5aDAuNjN2Ni40SDEuNzggICAgICBMMS43OCw5MS40OXogTTAuNjQsOTEuNDloMC42MXY2LjRIMC42NEwwLjY0LDkxLjQ5eiBNMCw5MC44NWg3LjY5djcuNjlIMFY5MC44NXoiLz4mI3hhOwkJCTwvZz4mI3hhOwkJCTxnIGlkPSJzaGFwZTEzOTEtMjYiIHRyYW5zZm9ybT0idHJhbnNsYXRlKDE3Ljc0NjMsLTguODczMTcpIj4mI3hhOwkJCQk8dGl0bGUgaWQ9InRpdGxlMTY2NDQ4Ij5TaGVldC4xMzkxPC90aXRsZT4mI3hhOwkJCQk8cGF0aCBpZD0icGF0aDE2NjQ1MCIgaW5rc2NhcGU6Y29ubmVjdG9yLWN1cnZhdHVyZT0iMCIgc3R5bGU9ImZpbGw6IzIwQzJFRjsiIGQ9Ik02LjQ0LDkxLjQ5aDAuNjF2Ni40MUg2LjQ0VjkxLjQ5eiAgICAgICBNNS4yOCw5MS40OWgwLjYzdjYuNDFINS4yOFY5MS40OXogTTQuMTEsOTEuNDloMC42M3Y2LjQxSDQuMTFWOTEuNDl6IE0yLjk1LDkxLjQ5aDAuNjN2Ni40MUgyLjk1TDIuOTUsOTEuNDl6IE0xLjc4LDkxLjQ5ICAgICAgaDAuNjN2Ni40MUgxLjc4TDEuNzgsOTEuNDl6IE0wLjY0LDkxLjQ5aDAuNjF2Ni40MUgwLjY0TDAuNjQsOTEuNDl6IE0wLDkwLjg1aDcuNjl2Ny42OUgwVjkwLjg1eiIvPiYjeGE7CQkJPC9nPiYjeGE7CQkJPGcgaWQ9InNoYXBlMTM5Mi0yOCIgdHJhbnNmb3JtPSJ0cmFuc2xhdGUoMjYuNjE4MikiPiYjeGE7CQkJCTx0aXRsZSBpZD0idGl0bGUxNjY0NTMiPlNoZWV0LjEzOTI8L3RpdGxlPiYjeGE7CQkJCTxwYXRoIGlkPSJwYXRoMTY2NDU1IiBpbmtzY2FwZTpjb25uZWN0b3ItY3VydmF0dXJlPSIwIiBzdHlsZT0iZmlsbDojMjBDMkVGOyIgZD0iTTYuNDQsOTEuNDloMC42MXY2LjRINi40NFY5MS40OXogTTUuMjgsOTEuNDkgICAgICBoMC42M3Y2LjRINS4yOFY5MS40OXogTTQuMTEsOTEuNDloMC42M3Y2LjRINC4xMVY5MS40OXogTTIuOTUsOTEuNDloMC42M3Y2LjRIMi45NUwyLjk1LDkxLjQ5eiBNMS43OCw5MS40OWgwLjYzdjYuNEgxLjc4ICAgICAgTDEuNzgsOTEuNDl6IE0wLjY0LDkxLjQ5aDAuNjF2Ni40SDAuNjRMMC42NCw5MS40OXogTTAsOTAuODVoNy42OXY3LjY5SDBWOTAuODV6Ii8+JiN4YTsJCQk8L2c+JiN4YTsJCQk8ZyBpZD0ic2hhcGUxMzkzLTMwIiB0cmFuc2Zvcm09InRyYW5zbGF0ZSgyNi42MTgyLC04Ljg3MzE3KSI+JiN4YTsJCQkJPHRpdGxlIGlkPSJ0aXRsZTE2NjQ1OCI+U2hlZXQuMTM5MzwvdGl0bGU+JiN4YTsJCQkJPHBhdGggaWQ9InBhdGgxNjY0NjAiIGlua3NjYXBlOmNvbm5lY3Rvci1jdXJ2YXR1cmU9IjAiIHN0eWxlPSJmaWxsOiMwMEFDRDM7IiBkPSJNNi40NCw5MS40OWgwLjYxdjYuNDFINi40NFY5MS40OXogICAgICAgTTUuMjgsOTEuNDloMC42M3Y2LjQxSDUuMjhWOTEuNDl6IE00LjExLDkxLjQ5aDAuNjN2Ni40MUg0LjExVjkxLjQ5eiBNMi45NSw5MS40OWgwLjYzdjYuNDFIMi45NUwyLjk1LDkxLjQ5eiBNMS43OCw5MS40OSAgICAgIGgwLjYzdjYuNDFIMS43OEwxLjc4LDkxLjQ5eiBNMC42NCw5MS40OWgwLjYxdjYuNDFIMC42NEwwLjY0LDkxLjQ5eiBNMCw5MC44NWg3LjY5djcuNjlIMFY5MC44NXoiLz4mI3hhOwkJCTwvZz4mI3hhOwkJCTxnIGlkPSJzaGFwZTEzOTQtMzIiIHRyYW5zZm9ybT0idHJhbnNsYXRlKDI2LjYxODIsLTE3Ljc0NjMpIj4mI3hhOwkJCQk8dGl0bGUgaWQ9InRpdGxlMTY2NDYzIj5TaGVldC4xMzk0PC90aXRsZT4mI3hhOwkJCQk8cGF0aCBpZD0icGF0aDE2NjQ2NSIgaW5rc2NhcGU6Y29ubmVjdG9yLWN1cnZhdHVyZT0iMCIgc3R5bGU9ImZpbGw6IzIwQzJFRjsiIGQ9Ik02LjQ0LDkxLjQ5aDAuNjF2Ni40MUg2LjQ0VjkxLjQ5eiAgICAgICBNNS4yOCw5MS40OWgwLjYzdjYuNDFINS4yOFY5MS40OXogTTQuMTEsOTEuNDloMC42M3Y2LjQxSDQuMTFWOTEuNDl6IE0yLjk1LDkxLjQ5aDAuNjN2Ni40MUgyLjk1TDIuOTUsOTEuNDl6IE0xLjc4LDkxLjQ5ICAgICAgaDAuNjN2Ni40MUgxLjc4TDEuNzgsOTEuNDl6IE0wLjY0LDkxLjQ5aDAuNjF2Ni40MUgwLjY0TDAuNjQsOTEuNDl6IE0wLDkwLjg1aDcuNjl2Ny42OUgwVjkwLjg1eiIvPiYjeGE7CQkJPC9nPiYjeGE7CQkJPGcgaWQ9InNoYXBlMTM5NS0zNCIgdHJhbnNmb3JtPSJ0cmFuc2xhdGUoMzUuNDkxNCkiPiYjeGE7CQkJCTx0aXRsZSBpZD0idGl0bGUxNjY0NjgiPlNoZWV0LjEzOTU8L3RpdGxlPiYjeGE7CQkJCTxwYXRoIGlkPSJwYXRoMTY2NDcwIiBpbmtzY2FwZTpjb25uZWN0b3ItY3VydmF0dXJlPSIwIiBzdHlsZT0iZmlsbDojMDBBQ0QzOyIgZD0iTTYuNDQsOTEuNDloMC42MXY2LjRINi40NFY5MS40OXogTTUuMjgsOTEuNDkgICAgICBoMC42M3Y2LjRINS4yOFY5MS40OXogTTQuMTEsOTEuNDloMC42M3Y2LjRINC4xMVY5MS40OXogTTIuOTUsOTEuNDloMC42M3Y2LjRIMi45NUwyLjk1LDkxLjQ5eiBNMS43OCw5MS40OWgwLjYzdjYuNEgxLjc4ICAgICAgTDEuNzgsOTEuNDl6IE0wLjY0LDkxLjQ5aDAuNjF2Ni40SDAuNjRMMC42NCw5MS40OXogTTAsOTAuODVoNy42OXY3LjY5SDBWOTAuODV6Ii8+JiN4YTsJCQk8L2c+JiN4YTsJCTwvZz4mI3hhOwkJPGcgaWQ9InNoYXBlMTM5Ni0zNiIgdHJhbnNmb3JtPSJ0cmFuc2xhdGUoMzUuNDAyNCwtNDAuMTIpIj4mI3hhOwkJCTx0aXRsZSBpZD0idGl0bGUxNjY0NzQiPlNoZWV0LjEzOTY8L3RpdGxlPiYjeGE7CQkJPHBhdGggaWQ9InBhdGgxNjY0NzYiIGlua3NjYXBlOmNvbm5lY3Rvci1jdXJ2YXR1cmU9IjAiIHN0eWxlPSJmaWxsOiNENEVERjE7IiBkPSJNMi4xMiw5NC4yOWMxLjE3LDAsMi4xMiwwLjk1LDIuMTIsMi4xMiAgICAgYzAsMS4xOC0wLjk1LDIuMTMtMi4xMiwyLjEzUzAsOTcuNTksMCw5Ni40MUMwLDk1LjI0LDAuOTUsOTQuMjksMi4xMiw5NC4yOXoiLz4mI3hhOwkJPC9nPiYjeGE7CQk8ZyBpZD0ic2hhcGUxMzk3LTM4IiB0cmFuc2Zvcm09InRyYW5zbGF0ZSgzNi4wMDQsLTQwLjcyMykiPiYjeGE7CQkJPHRpdGxlIGlkPSJ0aXRsZTE2NjQ3OSI+U2hlZXQuMTM5NzwvdGl0bGU+JiN4YTsJCQk8cGF0aCBpZD0icGF0aDE2NjQ4MSIgaW5rc2NhcGU6Y29ubmVjdG9yLWN1cnZhdHVyZT0iMCIgc3R5bGU9ImZpbGw6IzM5NEQ1NDsiIGQ9Ik0xLjUyLDk1LjVjMC4xOSwwLDAuMzgsMC4wNCwwLjU1LDAuMSAgICAgYy0wLjE5LDAuMTEtMC4zMSwwLjMxLTAuMzEsMC41NGMwLDAuMzQsMC4yOCwwLjYyLDAuNjIsMC42MmMwLjIzLDAsMC40NC0wLjEzLDAuNTQtMC4zM2MwLjA4LDAuMTgsMC4xMiwwLjM4LDAuMTIsMC41OSAgICAgYzAsMC44NC0wLjY4LDEuNTItMS41MiwxLjUyQzAuNjgsOTguNTQsMCw5Ny44NiwwLDk3LjAyUzAuNjgsOTUuNSwxLjUyLDk1LjV6Ii8+JiN4YTsJCTwvZz4mI3hhOwkJPGcgaWQ9InNoYXBlMTM5OC00MCIgdHJhbnNmb3JtPSJ0cmFuc2xhdGUoMCwtNDguMDcyMykiPiYjeGE7CQkJPHRpdGxlIGlkPSJ0aXRsZTE2NjQ4NCI+U2hlZXQuMTM5ODwvdGl0bGU+JiN4YTsJCQk8cGF0aCBpZD0icGF0aDE2NjQ4NiIgaW5rc2NhcGU6Y29ubmVjdG9yLWN1cnZhdHVyZT0iMCIgc3R5bGU9ImZpbGw6IzM5NEQ1NDsiIGQ9Ik0wLDk3Ljg1aDQ2LjQ3aDUuNzVoNDYuNDcgICAgIGMtMi4xNS0wLjU1LTYuOC0xLjI4LTYuMDMtNC4xYy0zLjkxLDQuNTItMTMuMzMsMy4xNy0xNS43MSwwLjk0Yy0yLjY1LDMuODUtMTguMDcsMi4zOS0xOS4xNC0wLjYxYy0zLjMyLDMuOS0xMy42MSwzLjktMTYuOTMsMCAgICAgYy0xLjA4LDIuOTktMTYuNDksNC40NS0xOS4xNCwwLjYxYy0yLjM4LDIuMjMtMTEuOCwzLjU4LTE1LjcxLTAuOTRDNi44LDk2LjU3LDIuMTUsOTcuMywwLDk3Ljg1eiIvPiYjeGE7CQk8L2c+JiN4YTsJCTxnIGlkPSJzaGFwZTEzOTktNDIiIHRyYW5zZm9ybT0idHJhbnNsYXRlKDE5LjAyODUsLTI5LjAyODYpIj4mI3hhOwkJCTx0aXRsZSBpZD0idGl0bGUxNjY0ODkiPlNoZWV0LjEzOTk8L3RpdGxlPiYjeGE7CQkJPHBhdGggaWQ9InBhdGgxNjY0OTEiIGlua3NjYXBlOmNvbm5lY3Rvci1jdXJ2YXR1cmU9IjAiIHN0eWxlPSJmaWxsOiNCRkRCRTA7IiBkPSJNMjQuMTQsOTguNDlDMTguODgsOTYsMTYsOTIuNjEsMTQuMzksODguOTEgICAgIGMtMS45NSwwLjU1LTQuMjksMC45MS03LjAyLDEuMDZjLTEuMDMsMC4wNi0yLjExLDAuMDktMy4yNCwwLjA5Yy0xLjMxLDAtMi42OS0wLjA0LTQuMTMtMC4xMmM0LjgyLDQuODIsMTAuNzUsOC41MywyMS43Miw4LjU5ICAgICBDMjIuNTMsOTguNTQsMjMuMzQsOTguNTIsMjQuMTQsOTguNDl6Ii8+JiN4YTsJCTwvZz4mI3hhOwkJPGcgaWQ9InNoYXBlMTQwMC00NCIgdHJhbnNmb3JtPSJ0cmFuc2xhdGUoMjYuMzk4MiwtMzUuMjQzNCkiPiYjeGE7CQkJPHRpdGxlIGlkPSJ0aXRsZTE2NjQ5NCI+U2hlZXQuMTQwMDwvdGl0bGU+JiN4YTsJCQk8cGF0aCBpZD0icGF0aDE2NjQ5NiIgaW5rc2NhcGU6Y29ubmVjdG9yLWN1cnZhdHVyZT0iMCIgc3R5bGU9ImZpbGw6I0Q0RURGMTsiIGQ9Ik04Ljk3LDk4LjU0Yy0wLjcyLTAuOTktMS40My0yLjIzLTEuOTQtMy40MiAgICAgYy0xLjk2LDAuNTYtNC4zLDAuOTItNy4wMywxLjA3QzEuODcsOTcuMjEsNC41NSw5OC4xNSw4Ljk3LDk4LjU0eiIvPiYjeGE7CQk8L2c+JiN4YTsJPC9nPiYjeGE7PC9nPiYjeGE7PC9zdmc+;fillColor=#007FFF;" parent="1" vertex="1">
          <mxGeometry x="480" y="526" width="99" height="83" as="geometry" />
        </mxCell>
        <mxCell id="4g_t7paAZGqGhglVZUK9-12" style="edgeStyle=orthogonalEdgeStyle;html=1;startArrow=none;startFill=0;startSize=10;endArrow=none;endFill=0;endSize=10;strokeWidth=3;fontSize=11;fontColor=#FFFFFF;strokeColor=#FFFFFF;dashed=1;rounded=0;" parent="1" source="4g_t7paAZGqGhglVZUK9-13" target="4g_t7paAZGqGhglVZUK9-8" edge="1">
          <mxGeometry relative="1" as="geometry">
            <mxPoint x="805" y="472" as="sourcePoint" />
            <Array as="points">
              <mxPoint x="1261" y="410" />
            </Array>
            <mxPoint x="1086" y="446" as="targetPoint" />
          </mxGeometry>
        </mxCell>
        <mxCell id="4g_t7paAZGqGhglVZUK9-28" value="&lt;font style=&quot;font-size: 16px&quot; color=&quot;#FFFFFF&quot;&gt;Rest API Call&lt;/font&gt;" style="edgeLabel;html=1;align=center;verticalAlign=middle;resizable=0;points=[];labelBackgroundColor=none;" parent="4g_t7paAZGqGhglVZUK9-12" vertex="1" connectable="0">
          <mxGeometry x="-0.1905" y="-2" relative="1" as="geometry">
            <mxPoint x="61" y="-22" as="offset" />
          </mxGeometry>
        </mxCell>
        <mxCell id="4g_t7paAZGqGhglVZUK9-13" value="Integral UG Rest Emailforward" style="shape=image;verticalLabelPosition=bottom;labelBackgroundColor=none;verticalAlign=top;aspect=fixed;imageAspect=0;image=data:image/svg+xml,PHN2ZyB4bWxuczpjYz0iaHR0cDovL2NyZWF0aXZlY29tbW9ucy5vcmcvbnMjIiB4bWxuczpkYz0iaHR0cDovL3B1cmwub3JnL2RjL2VsZW1lbnRzLzEuMS8iIHhtbG5zOmlua3NjYXBlPSJodHRwOi8vd3d3Lmlua3NjYXBlLm9yZy9uYW1lc3BhY2VzL2lua3NjYXBlIiB4bWxuczpyZGY9Imh0dHA6Ly93d3cudzMub3JnLzE5OTkvMDIvMjItcmRmLXN5bnRheC1ucyMiIHhtbG5zOnNvZGlwb2RpPSJodHRwOi8vc29kaXBvZGkuc291cmNlZm9yZ2UubmV0L0RURC9zb2RpcG9kaS0wLmR0ZCIgeG1sbnM6c3ZnPSJodHRwOi8vd3d3LnczLm9yZy8yMDAwL3N2ZyIgeG1sbnM9Imh0dHA6Ly93d3cudzMub3JnLzIwMDAvc3ZnIiB4bWxuczp4bGluaz0iaHR0cDovL3d3dy53My5vcmcvMTk5OS94bGluayIgdmVyc2lvbj0iMS4xIiBpZD0ic3ZnMTM3OTMiIGlua3NjYXBlOnZlcnNpb249IjAuOTIuMyAoMjQwNTU0NiwgMjAxOC0wMy0xMSkiIHNvZGlwb2RpOmRvY25hbWU9IndlYl9hcHBsaWNhdGlvbl9zZXJ2ZXJfMS5zdmciIHg9IjBweCIgeT0iMHB4IiB2aWV3Qm94PSIwIDAgODQuMTQgNzYuNzQiIHN0eWxlPSJlbmFibGUtYmFja2dyb3VuZDpuZXcgMCAwIDg0LjE0IDc2Ljc0OyIgeG1sOnNwYWNlPSJwcmVzZXJ2ZSI+JiN4YTs8c29kaXBvZGk6bmFtZWR2aWV3IGJvcmRlcmNvbG9yPSIjNjY2NjY2IiBib3JkZXJvcGFjaXR5PSIxIiBmaXQtbWFyZ2luLWJvdHRvbT0iMCIgZml0LW1hcmdpbi1sZWZ0PSIwIiBmaXQtbWFyZ2luLXJpZ2h0PSIwIiBmaXQtbWFyZ2luLXRvcD0iMCIgZ3JpZHRvbGVyYW5jZT0iMTAiIGd1aWRldG9sZXJhbmNlPSIxMCIgaWQ9Im5hbWVkdmlldzEzNzk1IiBpbmtzY2FwZTpjdXJyZW50LWxheWVyPSJzdmcxMzc5MyIgaW5rc2NhcGU6Y3g9IjU2LjA5NTY4MiIgaW5rc2NhcGU6Y3k9IjUxLjE2MTQwMSIgaW5rc2NhcGU6cGFnZW9wYWNpdHk9IjAiIGlua3NjYXBlOnBhZ2VzaGFkb3c9IjIiIGlua3NjYXBlOndpbmRvdy1oZWlnaHQ9IjEwMTciIGlua3NjYXBlOndpbmRvdy1tYXhpbWl6ZWQ9IjEiIGlua3NjYXBlOndpbmRvdy13aWR0aD0iMTkyMCIgaW5rc2NhcGU6d2luZG93LXg9Ii04IiBpbmtzY2FwZTp3aW5kb3cteT0iLTgiIGlua3NjYXBlOnpvb209IjguNDczNjAyNSIgb2JqZWN0dG9sZXJhbmNlPSIxMCIgcGFnZWNvbG9yPSIjZmZmZmZmIiBzaG93Z3JpZD0iZmFsc2UiPiYjeGE7CTwvc29kaXBvZGk6bmFtZWR2aWV3PiYjeGE7PGcgaWQ9ImcxMzc5MSI+JiN4YTsJPHRpdGxlIGlkPSJ0aXRsZTEzNzI5Ij5QYWdlLTE8L3RpdGxlPiYjeGE7CTxnIGlkPSJncm91cDc5MzQtMSI+JiN4YTsJCTx0aXRsZSBpZD0idGl0bGUxMzczMSI+V2ViIEFwcGxpY2F0aW9uIFNlcnZlciAjMTwvdGl0bGU+JiN4YTsJCTxnIGlkPSJncm91cDc5MzUtMiI+JiN4YTsJCQk8dGl0bGUgaWQ9InRpdGxlMTM3MzMiPkJpelRhbGsgU2VydmVyIEJBTS43NjwvdGl0bGU+JiN4YTsJCQk8ZyBpZD0ic2hhcGU3OTM2LTMiPiYjeGE7CQkJCTx0aXRsZSBpZD0idGl0bGUxMzczNSI+U2VydmVyLjYzPC90aXRsZT4mI3hhOwkJCQk8cGF0aCBpZD0icGF0aDEzNzM3IiBpbmtzY2FwZTpjb25uZWN0b3ItY3VydmF0dXJlPSIwIiBzdHlsZT0iZmlsbDojM0Y1NzY1OyIgZD0iTTEuODYsNDYuM3YyNC4wN2wyMi40NCw0LjExdi0yNi45TDEuODYsNDYuM3ogICAgICAgTTEuODYsMzkuNTh2NC42N2wyMi41NCwxLjEzdi01LjQ1TDEuODYsMzkuNTh6IE0yNC40LDMyLjQ5bC0yMi40OSwwLjN2NC42N2wyMi40OSwwLjQ5VjMyLjQ5eiBNMjQuNTEsMjQuOTJsLTIyLjYsMS4xNHY0Ljc0ICAgICAgbDIyLjYtMC40M1YyNC45MnogTTI0LjU3LDE3LjM1TDIuMDMsMTkuMjZ2NC44OWwyMi41NC0xLjM1VjE3LjM1eiBNMjQuNTcsOS45MmwtMjIuNSwyLjYydjQuOTVsMjIuNS0yLjA2VjkuOTJ6IE0yNC42MiwyLjQxICAgICAgTDIuMTMsNS44OXY0Ljc0TDI0LjYyLDcuOFYyLjQxeiBNMjYuOTEsMGwxMy42LDUuNjdsLTAuNTQsNjQuN2wtMTMuODMsNi4zN0wwLDcxLjY1VjQuMzlMMjYuOTEsMHoiLz4mI3hhOwkJCTwvZz4mI3hhOwkJCTxnIGlkPSJncm91cDc5MzctNSIgdHJhbnNmb3JtPSJ0cmFuc2xhdGUoMzkuMTQzMywtNi4yNjI4OSkiPiYjeGE7CQkJCTx0aXRsZSBpZD0idGl0bGUxMzc0MCI+QnVzaW5lc3MgQWN0aXZpdHkgTW9uaXRvcmluZy43MjwvdGl0bGU+JiN4YTsJCQkJPGcgaWQ9Imdyb3VwNzkzOC02Ij4mI3hhOwkJCQkJPHRpdGxlIGlkPSJ0aXRsZTEzNzQyIj5MT0dJQyBBcHBzICMxPC90aXRsZT4mI3hhOwkJCQkJPGcgaWQ9InNoYXBlNzkzOS03Ij4mI3hhOwkJCQkJCTx0aXRsZSBpZD0idGl0bGUxMzc0NCI+U2hlZXQuNzkzOTwvdGl0bGU+JiN4YTsJCQkJCQk8cGF0aCBpZD0icGF0aDEzNzQ2IiBpbmtzY2FwZTpjb25uZWN0b3ItY3VydmF0dXJlPSIwIiBzdHlsZT0iZmlsbDojM0Y1NzY1OyIgZD0iTTQzLjI4LDQzLjc5Yy00MS42MiwwLTQxLjYyLDAtNDEuNjIsMCAgICAgICAgQzAuMjgsNDMuNzksMCw0NC4xMiwwLDQ1LjVjMCwyOS41OCwwLDI5LjU4LDAsMjkuNThjMCwxLjM4LDAuMjgsMS42NiwxLjY2LDEuNjZjNDEuNjIsMCw0MS42MiwwLDQxLjYyLDAgICAgICAgIGMxLjQ0LDAsMS43Mi0wLjI4LDEuNzItMS42NmMwLTI5LjU4LDAtMjkuNTgsMC0yOS41OEM0NSw0NC4xMiw0NC43Miw0My43OSw0My4yOCw0My43OXoiLz4mI3hhOwkJCQkJPC9nPiYjeGE7CQkJCQk8ZyBpZD0ic2hhcGU3OTQwLTkiIHRyYW5zZm9ybT0idHJhbnNsYXRlKDEuMTA3MDEsLTEuNTQ4MDEpIj4mI3hhOwkJCQkJCTx0aXRsZSBpZD0idGl0bGUxMzc0OSI+U2hlZXQuNzk0MDwvdGl0bGU+JiN4YTsJCQkJCQk8cGF0aCBpZD0icGF0aDEzNzUxIiBpbmtzY2FwZTpjb25uZWN0b3ItY3VydmF0dXJlPSIwIiBzdHlsZT0iZmlsbDojMDBCMDUwOyIgZD0iTTAsNTEuNTN2MjUuMjFoNDIuNzlWNTEuNTNIMHoiLz4mI3hhOwkJCQkJPC9nPiYjeGE7CQkJCQk8ZyBpZD0ic2hhcGU3OTQxLTExIiB0cmFuc2Zvcm09InRyYW5zbGF0ZSgxLjE2MjM2LC0yNy42NDMpIj4mI3hhOwkJCQkJCTx0aXRsZSBpZD0idGl0bGUxMzc1NCI+U2hlZXQuNzk0MTwvdGl0bGU+JiN4YTsJCQkJCQk8cGF0aCBpZD0icGF0aDEzNzU2IiBpbmtzY2FwZTpjb25uZWN0b3ItY3VydmF0dXJlPSIwIiBzdHlsZT0iZmlsbDojMjZBOUUwOyIgZD0iTTQuNDgsNzQuNTNjMCwxLjI3LTAuOTksMi4yMS0yLjIxLDIuMjEgICAgICAgIFMwLDc1LjgsMCw3NC41M2MwLTEuMjIsMS4wNS0yLjIxLDIuMjctMi4yMVM0LjQ4LDczLjMxLDQuNDgsNzQuNTN6Ii8+JiN4YTsJCQkJCTwvZz4mI3hhOwkJCQkJPGcgaWQ9InNoYXBlNzk0Mi0xMyIgdHJhbnNmb3JtPSJ0cmFuc2xhdGUoMi4xMDMzMiwtMjguODU5MykiPiYjeGE7CQkJCQkJPHRpdGxlIGlkPSJ0aXRsZTEzNzU5Ij5TaGVldC43OTQyPC90aXRsZT4mI3hhOwkJCQkJCTxwYXRoIGlkPSJwYXRoMTM3NjEiIGlua3NjYXBlOmNvbm5lY3Rvci1jdXJ2YXR1cmU9IjAiIHN0eWxlPSJmaWxsOiNGRkZGRkY7IiBkPSJNMC44OSw3NS41MmwwLjc3LTAuNzJIMS4wNUwwLDc1Ljc0bDEuMDUsMSAgICAgICAgaDAuNjFsLTAuNzctMC43OGgxLjc3di0wLjQ0SDAuODl6Ii8+JiN4YTsJCQkJCTwvZz4mI3hhOwkJCQkJPGcgaWQ9InNoYXBlNzk0My0xNSIgdHJhbnNmb3JtPSJ0cmFuc2xhdGUoNi40NzYwMSwtMjguODU5MykiPiYjeGE7CQkJCQkJPHRpdGxlIGlkPSJ0aXRsZTEzNzY0Ij5TaGVldC43OTQzPC90aXRsZT4mI3hhOwkJCQkJCTxwYXRoIGlkPSJwYXRoMTM3NjYiIGlua3NjYXBlOmNvbm5lY3Rvci1jdXJ2YXR1cmU9IjAiIHN0eWxlPSJmaWxsOiNGRkZGRkY7IiBkPSJNMCw3NC42NHYyLjFoMzcuNDd2LTIuMUgweiIvPiYjeGE7CQkJCQk8L2c+JiN4YTsJCQkJCTxnIGlkPSJzaGFwZTc5NDQtMTciIHRyYW5zZm9ybT0idHJhbnNsYXRlKDExLjU2ODMsLTkuNjE5NzYpIj4mI3hhOwkJCQkJCTx0aXRsZSBpZD0idGl0bGUxMzc2OSI+U2hlZXQuNzk0NDwvdGl0bGU+JiN4YTsJCQkJCQk8cGF0aCBpZD0icGF0aDEzNzcxIiBpbmtzY2FwZTpjb25uZWN0b3ItY3VydmF0dXJlPSIwIiBzdHlsZT0iZmlsbDojRkZGRkZGOyIgZD0iTTIxLjA5LDcxLjkzYzAtMS4xMS0wLjg5LTIuMDUtMi4wNS0yLjA1ICAgICAgICBjLTMuMSwwLTMuMSwwLTMuMSwwYy0yLjcxLTIuNjUtMi43MS0yLjY1LTIuNzEtMi42NWMtNi42NCwwLTYuNjQsMC02LjY0LDBjLTIuODMsMi43MS0yLjgzLDIuNzEtMi44MywyLjcxICAgICAgICBjLTEuNzEsMC4xNi0zLjEsMS42LTMuMSwzLjM3YzAsMC42NiwwLDAuNjYsMCwwLjY2Yy0wLjY2LDAtMC42NiwwLTAuNjYsMGMwLDEuMzMsMCwxLjMzLDAsMS4zM2MyLjg4LDAsMi44OCwwLDIuODgsMCAgICAgICAgYzAuMjcsMC44MywxLjA1LDEuNDQsMS45NCwxLjQ0YzAuODgsMCwxLjYtMC42MSwxLjg4LTEuNDRjOC40MSwwLDguNDEsMCw4LjQxLDBjMC4zMywwLjgzLDEuMDUsMS40NCwxLjk0LDEuNDQgICAgICAgIGMwLjg4LDAsMS42LTAuNjEsMS45NC0xLjQ0YzIuNzYsMCwyLjc2LDAsMi43NiwwYzAtMS4zMywwLTEuMzMsMC0xLjMzYy0wLjY2LDAtMC42NiwwLTAuNjYsMEwyMS4wOSw3MS45M3ogTTE5Ljc2LDcxLjkzICAgICAgICBjMCwyLjA0LDAsMi4wNCwwLDIuMDRjLTAuNzcsMC0wLjc3LDAtMC43NywwYy0wLjM0LTAuNzctMS4wNi0xLjM4LTEuOTQtMS4zOGMtMC44OSwwLTEuNjEsMC42MS0xLjk0LDEuMzggICAgICAgIGMtNS41OSwwLTUuNTksMC01LjU5LDBjMC0yLjcxLDAtMi43MSwwLTIuNzFjOS41MiwwLDkuNTIsMCw5LjUyLDBDMTkuNDgsNzEuMjYsMTkuNzYsNzEuNTQsMTkuNzYsNzEuOTN6IE0xNCw2OS44OCAgICAgICAgYy00LjQ4LDAtNC40OCwwLTQuNDgsMGMwLTEuMzIsMC0xLjMyLDAtMS4zMmMzLjE2LDAsMy4xNiwwLDMuMTYsMEwxNCw2OS44OHogTTcuMDgsNjguNTZjMS4xMSwwLDEuMTEsMCwxLjExLDAgICAgICAgIGMwLDEuMzIsMCwxLjMyLDAsMS4zMmMtMi40MywwLTIuNDMsMC0yLjQzLDBMNy4wOCw2OC41NnogTTIuMDUsNzMuMzFjMC0xLjE2LDAuODgtMi4wNSwyLjEtMi4wNWM0LjA0LDAsNC4wNCwwLDQuMDQsMCAgICAgICAgYzAsMi43MSwwLDIuNzEsMCwyLjcxYy0xLjQ5LDAtMS40OSwwLTEuNDksMGMtMC4yOC0wLjc3LTEtMS4zOC0xLjg4LTEuMzhjLTAuODksMC0xLjY3LDAuNjEtMS45NCwxLjM4Yy0wLjgzLDAtMC44MywwLTAuODMsMCAgICAgICAgVjczLjMxeiBNNC44Miw3NS4zYy0wLjM5LDAtMC42Ny0wLjI4LTAuNjctMC42NmMwLTAuMzMsMC4yOC0wLjY3LDAuNjctMC42N2MwLjMzLDAsMC42NiwwLjM0LDAuNjYsMC42NyAgICAgICAgQzUuNDgsNzUuMDIsNS4xNSw3NS4zLDQuODIsNzUuM3ogTTE3LjA1LDc1LjNjLTAuMzksMC0wLjY3LTAuMjgtMC42Ny0wLjY2YzAtMC4zMywwLjI4LTAuNjcsMC42Ny0wLjY3czAuNjYsMC4zNCwwLjY2LDAuNjcgICAgICAgIEMxNy43MSw3NS4wMiwxNy40NCw3NS4zLDE3LjA1LDc1LjN6Ii8+JiN4YTsJCQkJCTwvZz4mI3hhOwkJCQkJPGcgaWQ9InNoYXBlNzk0NS0xOSIgdHJhbnNmb3JtPSJ0cmFuc2xhdGUoMC45NjQ4ODMsLTEuNTIyNTkpIj4mI3hhOwkJCQkJCTx0aXRsZSBpZD0idGl0bGUxMzc3NCI+U2hlZXQuNzk0NTwvdGl0bGU+JiN4YTsJCQkJCQk8cGF0aCBpZD0icGF0aDEzNzc2IiBpbmtzY2FwZTpjb25uZWN0b3ItY3VydmF0dXJlPSIwIiBzdHlsZT0iZmlsbDojMDBCMEYwOyIgZD0iTTAsNTEuNTJ2MjUuMjJoNDIuODVWNTEuNTJIMHoiLz4mI3hhOwkJCQkJPC9nPiYjeGE7CQkJCTwvZz4mI3hhOwkJCTwvZz4mI3hhOwkJPC9nPiYjeGE7CQk8ZyBpZD0iZ3JvdXA3OTQ2LTIxIiB0cmFuc2Zvcm09InRyYW5zbGF0ZSg1MS40ODgzLC0xMC45ODE4KSI+JiN4YTsJCQk8dGl0bGUgaWQ9InRpdGxlMTM3ODIiPldlYnNpdGVzPC90aXRsZT4mI3hhOwkJCTxnIGlkPSJzaGFwZTc5NDctMjIiPiYjeGE7CQkJCTx0aXRsZSBpZD0idGl0bGUxMzc4NCI+U2hlZXQuNzk0NzwvdGl0bGU+JiN4YTsJCQkJPHBhdGggaWQ9InBhdGgxMzc4NiIgaW5rc2NhcGU6Y29ubmVjdG9yLWN1cnZhdHVyZT0iMCIgc3R5bGU9ImZpbGw6I0ZGRkZGRjsiIGQ9Ik0xMC4xLDU2LjUzYzUuNTksMCwxMC4yMSw0LjQ5LDEwLjIxLDEwLjA1ICAgICAgYzAsNS42Ny00LjYyLDEwLjE2LTEwLjIxLDEwLjE2QzQuNTIsNzYuNzQsMCw3Mi4yNSwwLDY2LjU4QzAsNjEuMDIsNC41Miw1Ni41MywxMC4xLDU2LjUzeiBNMTMuODYsNzQuOTIgICAgICBjLTAuMzItMS43MSwwLjY1LTQuNiwwLjExLTUuMTNjLTAuMjEtMC4xMS0wLjQzLTAuMjItMC42NC0wLjExYy0wLjQzLDAuMTEtMC44NiwwLjMyLTEuMTksMC4yMmMtMS44Mi0wLjg2LTAuNzUtMy43NSwxLjA4LTQuMzkgICAgICBjMC4zMi0wLjExLDAuNjQtMC4xMSwwLjk3LTAuMTFjMC41My0wLjEsMC44Ni0wLjEsMC44NiwwLjIyYzAsMC40MywwLjg2LDAuNzUsMS4wNywwLjc1YzAuMTEsMCwwLjExLTAuMzIsMC4yMi0wLjMyICAgICAgYzAuNzUsMCwxLjI4LDAuNDIsMS4zOSwwLjFjMC4yMi0xLjA3LDAuMTEtMC41My0wLjc1LTAuNjRjLTAuMzItMC4xMS0wLjExLTAuNjQtMC40My0wLjY0Yy0wLjIxLTAuMTEsMC4xMSwwLjY0LTAuMjEsMC40MyAgICAgIGMtMC40My0wLjMyLTAuNjUtMS4wNy0xLjA4LTEuMThjLTAuNTQtMC4xLDAuMzIsMC40MywwLjQzLDAuNzVjMC4xMSwwLjMyLTAuMzIsMC43NS0wLjU0LDAuNDNjLTAuMS0wLjExLDAuNDMtMC40My0wLjIxLTAuODYgICAgICBjLTAuMTEtMC4yMS0wLjQzLTAuMjEtMC42NSwwYy0wLjMyLDAuMzItMC40MywwLjY0LTAuNTMsMC42NGMtMC4zMywwLjIyLTAuNTQsMC4yMi0wLjg2LDAuMTFjLTAuNDMtMC4xMS0wLjMyLTEuMDcsMC4xLTAuOTYgICAgICBjMS4yOSwwLjMyLDAuMTEtMC40MywwLjQzLTAuNjRjMC4xMS0wLjExLDAuNTQtMC40MywwLjc2LTAuNzVjMC4yMS0wLjIyLDAuMS0wLjg2LDAuNTMtMC43NWMwLjIyLDAsMC4xMSwwLjQzLDAuMzMsMC41MyAgICAgIGMwLjEsMC4xMSwwLjQzLDAsMC42NCwwYzAuMzIsMCwwLjMyLTAuMjEsMC4zMi0wLjUzYzAtMC40MywwLjc2LTAuMzIsMC43Ni0wLjU0Yy0wLjExLTAuMzEtMC44NiwwLjExLTAuODYtMC4zMSAgICAgIGMwLTAuNTQsMC42NC0wLjY1LDAuMjEtMC43NWMtMC4zMi0wLjExLTAuNzUsMC4yMS0wLjY0LDAuOTZjMC4xLDAuNzUsMC4yMSwxLjA3LTAuMzMsMC44NWMtMC40My0wLjMyLDAuMTEtMC44NS0wLjMyLTAuNjQgICAgICBjLTAuMzIsMC4yMS0wLjU0LDAuMzItMC41NC0wLjIxYzAtMC40MywwLjg2LTEuNzEsMS41MS0xLjkzYy0xLjE5LTAuOTYtMi41OC0xLjYtNC4xOS0xLjgybDAsMGMwLDAuODYsMCwxLjQtMC4xMSwxLjgyICAgICAgYzAsMC41NC0xLjYxLDAuNjUtMS44MywxLjYxYy0wLjIxLDAuODUtMC41MywwLjMyLTEuMDctMC4zM2MtMC41NC0wLjYzLDAuMTEtMS40OS0wLjIxLTIuMDNjLTAuMjItMC41My0xLjE5LDAuMjItMS4xOS0wLjMyICAgICAgYzAtMC4yMSwwLjIyLTAuNDMsMC4yMi0wLjUzYy0wLjExLDAuMS0wLjIyLDAuMS0wLjMzLDAuMWMtMC4zMiwwLjIyLTAuNTMsMC44Ni0wLjY0LDAuOTdjLTAuMzIsMC40MywwLjQzLDAuMzIsMC43NSwwLjc1ICAgICAgYzAuNDMsMC42NCwwLjc1LDEuMDYsMC41NCwxLjM5Yy0wLjExLDAuMzItMS40LDAtMS4xOC0wLjU0YzAuMzItMC41MywwLjExLTAuNjQtMC4yMi0wLjc1Yy0wLjMyLDAtMC4zMiwwLjQzLTAuMzIsMC45NiAgICAgIGMwLDAuNDQtMC44NiwwLjU0LTEuMjksMC45N0M0LjMsNjIuMyw1LjA1LDYyLjczLDUuNyw2Mi45NWMwLjY0LDAuMjEsMC4yMS0wLjg2LDAuNDMtMS40YzAuMjEtMC43NSwwLjk2LTAuMSwxLjUsMC41NCAgICAgIGMwLjQzLDAuNjQsMS4xOCwxLjUsMC4yMiwxLjkzYy0xLjYyLDAuNjMtMi4yNiwxLjM4LTIuNTgsMi4wM2MtMC4zMywwLjY0LDAsMC45Ni0wLjIyLDEuMTdjLTAuMjEsMC4yMi0wLjIxLTAuMS0wLjQzLTAuNjQgICAgICBjLTAuMjEtMC4zMi0wLjk2LTAuMzItMS4yOSwwLjMyYy0wLjIxLDAuMTEtMC4yMSwwLjQzLTAuMjEsMC43NWMwLDEuMDcsMC43NS0wLjMyLDEuMTgtMC4xMWMwLjU0LDAuMTEtMC40MywwLjIyLTAuMzIsMC42NCAgICAgIGMwLjEsMC40MywwLjc1LTAuMjEsMC41NCwwLjc1Yy0wLjExLDAuNTQsMC43NSwwLjExLDEuMjktMC4xYzEuMTgtMC40MywyLjA0LDEuNDksMi45LDEuODJjMC45NiwwLjMyLDEuMjksMC41MywxLjA3LDAuOTYgICAgICBjLTAuNjQsMS4yOC0xLjkzLDIuMTQtMi41OCwzLjYzYzAuODYsMC4zMiwxLjk0LDAuNDMsMi45LDAuNDNDMTEuNSw3NS42NywxMi42OCw3NS40NiwxMy44Niw3NC45MnogTTE5LjAyLDY4LjcyICAgICAgYy0wLjIxLDAtMC40MywwLjExLTAuNTQsMC4xMWMtMC41My0wLjIyLTAuMjEtMi4zNi0wLjk2LTIuMjVjLTAuMzIsMC4xMSwwLjIxLDEuNzEsMC45NiwyLjU3YzAuMTEsMC4xLDAuMjIsMCwwLjQ0LDAgICAgICBDMTguOTIsNjkuMDQsMTkuMDIsNjguODMsMTkuMDIsNjguNzJ6IE0xOC40OCw3MC4yMmMtMC44Ni0wLjIyLTEuNSwxLjcxLTEuNzEsMi41NkMxNy41Miw3Mi4wMywxOC4wNiw3MS4xOCwxOC40OCw3MC4yMnogICAgICAgTTUuNTksNzQuNWMwLjExLTAuODYsMC4yMi0xLjgyLDAtMS45M0M0Ljg0LDcxLjkzLDQuMyw3MC45Nyw1LjA1LDcwYzAuMTEtMC4xLDAuMjItMC4yMSwwLjIyLTAuNDNjMC4xLTAuMzItMC4yMi0wLjEtMC43NS0wLjEgICAgICBjLTAuNTQsMC0wLjExLTAuODYtMS4xOS0wLjk3Yy0xLjA3LTAuMS0xLjA3LTAuMzItMS4xOC0wLjk2YzAtMC42NC0wLjY0LTEuMjgtMS4xOC0xLjM5YzAsMC4xMSwwLDAuMzIsMCwwLjQzICAgICAgQzAuOTcsNzAsMi45LDczLDUuNTksNzQuNXogTTExLjYxLDYwLjkxYzAuNDMsMC4yMiwwLjg2LTAuMTEsMC43NS0wLjQyQzEyLjA0LDU5Ljk1LDExLjA3LDYwLjI3LDExLjYxLDYwLjkxeiBNMTMuNDMsNjEuNzcgICAgICBjMC4zMywwLDAuNTQsMC42NCwwLjQzLDAuOTZjLTAuMjEsMC42NC0wLjc1LDAuMjItMC44Ni0wLjIxQzEzLDYyLjA5LDEzLjExLDYxLjc3LDEzLjQzLDYxLjc3eiBNMTYuOTgsNjQuNzYgICAgICBjLTAuMzItMC4zMi0wLjIxLTAuNzQsMC4yMi0wLjg1YzAuNzUtMC4xMSwxLjcyLDAuNjQsMS4wNywwLjg1QzE3Ljk1LDY0Ljg3LDE3LjQxLDY0Ljg3LDE2Ljk4LDY0Ljc2eiBNNC45NCw2Ny40NCAgICAgIGMwLjMzLDAsMS4xOSwwLjIxLDEuNCwwLjQzYzAuMjIsMC4zMS0wLjY0LDAuMjEtMS4xOCwwQzQuODQsNjcuNzYsNC42Miw2Ny41NCw0Ljk0LDY3LjQ0eiIvPiYjeGE7CQkJPC9nPiYjeGE7CQk8L2c+JiN4YTsJPC9nPiYjeGE7PC9nPiYjeGE7PC9zdmc+;fillColor=#007FFF;fontSize=16;imageBorder=#0066CC;fontColor=#FFFFFF;fontStyle=1" parent="1" vertex="1">
          <mxGeometry x="719" y="343" width="84" height="77" as="geometry" />
        </mxCell>
        <mxCell id="4g_t7paAZGqGhglVZUK9-40" value="ReactJS" style="shape=image;verticalLabelPosition=bottom;labelBackgroundColor=none;verticalAlign=top;aspect=fixed;imageAspect=0;image=data:image/svg+xml,PHN2ZyB4bWxuczpkYz0iaHR0cDovL3B1cmwub3JnL2RjL2VsZW1lbnRzLzEuMS8iIHhtbG5zOmNjPSJodHRwOi8vY3JlYXRpdmVjb21tb25zLm9yZy9ucyMiIHhtbG5zOnJkZj0iaHR0cDovL3d3dy53My5vcmcvMTk5OS8wMi8yMi1yZGYtc3ludGF4LW5zIyIgeG1sbnM6c3ZnPSJodHRwOi8vd3d3LnczLm9yZy8yMDAwL3N2ZyIgeG1sbnM9Imh0dHA6Ly93d3cudzMub3JnLzIwMDAvc3ZnIiB4bWxuczpzb2RpcG9kaT0iaHR0cDovL3NvZGlwb2RpLnNvdXJjZWZvcmdlLm5ldC9EVEQvc29kaXBvZGktMC5kdGQiIHhtbG5zOmlua3NjYXBlPSJodHRwOi8vd3d3Lmlua3NjYXBlLm9yZy9uYW1lc3BhY2VzL2lua3NjYXBlIiB2ZXJzaW9uPSIxLjEiIGlkPSJzdmc1Njc5MiIgaW5rc2NhcGU6dmVyc2lvbj0iMC45Mi4zICgyNDA1NTQ2LCAyMDE4LTAzLTExKSIgc29kaXBvZGk6ZG9jbmFtZT0iZm9sZGVyLnN2ZyIgeD0iMHB4IiB5PSIwcHgiIHZpZXdCb3g9IjAgMCA1NS44MTYyNjIgNDAuODA1MTAxIiB4bWw6c3BhY2U9InByZXNlcnZlIiB3aWR0aD0iNTUuODE2MjYxIiBoZWlnaHQ9IjQwLjgwNTA5OSI+PG1ldGFkYXRhIGlkPSJtZXRhZGF0YTU0OTQ4Ij48cmRmOlJERj48Y2M6V29yayByZGY6YWJvdXQ9IiI+PGRjOmZvcm1hdD5pbWFnZS9zdmcreG1sPC9kYzpmb3JtYXQ+PGRjOnR5cGUgcmRmOnJlc291cmNlPSJodHRwOi8vcHVybC5vcmcvZGMvZGNtaXR5cGUvU3RpbGxJbWFnZSIvPjxkYzp0aXRsZS8+PC9jYzpXb3JrPjwvcmRmOlJERj48L21ldGFkYXRhPjxkZWZzIGlkPSJkZWZzNTQ5NDYiPiYjeGE7CSYjeGE7CSYjeGE7JiN4YTsJCSYjeGE7CQkmI3hhOwkJJiN4YTsJCSYjeGE7CQkmI3hhOwkJJiN4YTsJCSYjeGE7CQkmI3hhOwkJJiN4YTsJJiN4YTsJCQkmI3hhOwkJCSYjeGE7CQkmI3hhOwkJCSYjeGE7CQkJJiN4YTsJCQkmI3hhOwkJJiN4YTsJCQkmI3hhOwkJCSYjeGE7CQkmI3hhOwkJCSYjeGE7CQkJJiN4YTsJCSYjeGE7CQkJJiN4YTsJCQkmI3hhOwkJJiN4YTsJCQkmI3hhOwkJCSYjeGE7CQkmI3hhOwkJCSYjeGE7CQkJJiN4YTsJCSYjeGE7CQkJJiN4YTsJCQkmI3hhOwkJCSYjeGE7CQkJCSYjeGE7CQk8L2RlZnM+JiN4YTs8c29kaXBvZGk6bmFtZWR2aWV3IGJvcmRlcmNvbG9yPSIjNjY2NjY2IiBib3JkZXJvcGFjaXR5PSIxIiBmaXQtbWFyZ2luLWJvdHRvbT0iMCIgZml0LW1hcmdpbi1sZWZ0PSIwIiBmaXQtbWFyZ2luLXJpZ2h0PSIwIiBmaXQtbWFyZ2luLXRvcD0iMCIgZ3JpZHRvbGVyYW5jZT0iMTAiIGd1aWRldG9sZXJhbmNlPSIxMCIgaWQ9Im5hbWVkdmlldzU2Nzk0IiBpbmtzY2FwZTpjdXJyZW50LWxheWVyPSJzdmc1Njc5MiIgaW5rc2NhcGU6Y3g9IjM2LjE4MDQwNyIgaW5rc2NhcGU6Y3k9IjE0LjM0MjMxMSIgaW5rc2NhcGU6cGFnZW9wYWNpdHk9IjAiIGlua3NjYXBlOnBhZ2VzaGFkb3c9IjIiIGlua3NjYXBlOndpbmRvdy1oZWlnaHQ9IjEwMTciIGlua3NjYXBlOndpbmRvdy1tYXhpbWl6ZWQ9IjEiIGlua3NjYXBlOndpbmRvdy13aWR0aD0iMTkyMCIgaW5rc2NhcGU6d2luZG93LXg9Ii04IiBpbmtzY2FwZTp3aW5kb3cteT0iLTgiIGlua3NjYXBlOnpvb209IjcuNTAxNjk4NSIgb2JqZWN0dG9sZXJhbmNlPSIxMCIgcGFnZWNvbG9yPSIjZmZmZmZmIiBzaG93Z3JpZD0iZmFsc2UiPiYjeGE7CTwvc29kaXBvZGk6bmFtZWR2aWV3PiYjeGE7PHJlY3QgaGVpZ2h0PSI0LjY3MDAwMDEiIHdpZHRoPSIxMi4zNSIgc3R5bGU9ImZpbGw6IzIyYWY5MyIgeT0iNy45Njk1OTgzIiB4PSI0MC4yNjgxNjIiIGlkPSJyZWN0NTY3NTQiLz48cmVjdCBoZWlnaHQ9IjQuNjcwMDAwMSIgd2lkdGg9IjEyLjM1IiBzdHlsZT0iZmlsbDojOWI1NDliIiB5PSI3Ljk2OTU5ODMiIHg9IjI3LjkxNDg2MiIgaWQ9InJlY3Q1Njc1OSIvPjxyZWN0IGhlaWdodD0iNC42NzAwMDAxIiB3aWR0aD0iMTIuMzUiIHN0eWxlPSJmaWxsOiNmZGNmMDIiIHk9IjcuOTY5NTk4MyIgeD0iMTUuNTYxNDYxIiBpZD0icmVjdDU2NzY0Ii8+PHJlY3QgaGVpZ2h0PSI0LjY3MDAwMDEiIHdpZHRoPSIxMi4zNSIgc3R5bGU9ImZpbGw6I2U4NDk0MiIgeT0iNy45Njk1OTgzIiB4PSIzLjIwODE5MTIiIGlkPSJyZWN0NTY3NjkiLz48cGF0aCBkPSJtIDUxLjI2ODE5MSwzLjYgaCAtMjkuNDUgViAxLjM1IGMgMCwtMC43NCAtMC42LC0xLjM1IC0xLjM0LC0xLjM1IEggNC41NTgxOTExIGMgLTAuNzQsMCAtMS4zNSwwLjYgLTEuMzUsMS4zNSAwLDAgMCwwIDAsMCBWIDcuOTcgSCA1Mi42MTgxOTEgViA0Ljk0IGMgMCwtMC43NCAtMC42MSwtMS4zNCAtMS4zNSwtMS4zNCB6IiBzdHlsZT0iZmlsbDojMmMzZTUwIiBpbmtzY2FwZTpjb25uZWN0b3ItY3VydmF0dXJlPSIwIiBpZD0icGF0aDU2Nzc0Ii8+PHBhdGggZD0ibSA1NS44MTYyNjEsMTQuMTQyNDY4IC0zLjA1LDI1LjQ3IGMgLTAuMDgsMC42OCAtMC42NSwxLjE5IC0xLjMzLDEuMTkgaCAtMTEuMjIgbCAtMjQuNjEsLTI4LjE2IGggMzguODYgYyAwLjc0LDAgMS4zNSwwLjYgMS4zNSwxLjM1IDAsMC4wNSAwLDAuMTEgLTAuMDEsMC4xNiB6IiBzdHlsZT0iZmlsbDojMTc5NWM2IiBpbmtzY2FwZTpjb25uZWN0b3ItY3VydmF0dXJlPSIwIiBpZD0icGF0aDU2Nzc5Ii8+PHBhdGggZD0ibSA1NS44MTYyNjEsMTQuMTQyNDY4IC0zLjA1LDI1LjQ3IGMgLTAuMDgsMC42OCAtMC42NSwxLjE5IC0xLjMzLDEuMTkgaCAtMTEuMjIgbCAtMjQuNjEsLTI4LjE2IGggMzguODYgYyAwLjc0LDAgMS4zNSwwLjYgMS4zNSwxLjM1IDAsMC4wNSAwLDAuMTEgLTAuMDEsMC4xNiIgc3R5bGU9ImZpbGw6bm9uZSIgaW5rc2NhcGU6Y29ubmVjdG9yLWN1cnZhdHVyZT0iMCIgaWQ9InBhdGg1Njc4MSIvPjxwYXRoIGQ9Ik0gNDAuMjE5OTYxLDQwLjgwNTEgSCA0LjQxOTk2MTEgYyAtMC42OCwwIC0xLjI2LC0wLjUxIC0xLjM0LC0xLjE5IGwgLTMuMDcwMDAwMDIsLTI1LjQ3IGMgLTAuMDksLTAuNzQgMC40NCwtMS40MSAxLjE4MDAwMDAyLC0xLjUgMC4wNSwtMC4wMSAwLjExLC0wLjAxIDAuMTYsLTAuMDEgSCAxNS41OTk5NjEgWiIgc3R5bGU9ImZpbGw6IzBhODBhZiIgaW5rc2NhcGU6Y29ubmVjdG9yLWN1cnZhdHVyZT0iMCIgaWQ9InBhdGg1Njc4NiIvPiYjeGE7PC9zdmc+;fillColor=#007FFF;fontSize=16;fontColor=#FFFFFF;fontStyle=1" parent="1" vertex="1">
          <mxGeometry x="663" y="586" width="56" height="41" as="geometry" />
        </mxCell>
        <mxCell id="4g_t7paAZGqGhglVZUK9-41" style="edgeStyle=orthogonalEdgeStyle;html=1;startArrow=none;startFill=0;startSize=10;endArrow=none;endFill=0;endSize=10;strokeWidth=3;fontSize=11;fontColor=#FFFFFF;strokeColor=#FFFFFF;dashed=1;rounded=0;jumpStyle=none;targetPerimeterSpacing=0;" parent="1" source="4g_t7paAZGqGhglVZUK9-40" target="4g_t7paAZGqGhglVZUK9-5" edge="1">
          <mxGeometry relative="1" as="geometry">
            <mxPoint x="253" y="536" as="sourcePoint" />
            <Array as="points">
              <mxPoint x="753" y="607" />
              <mxPoint x="753" y="607" />
            </Array>
            <mxPoint x="1437" y="548" as="targetPoint" />
          </mxGeometry>
        </mxCell>
        <mxCell id="4g_t7paAZGqGhglVZUK9-43" value="&lt;h1&gt;On Premise&lt;/h1&gt;" style="rounded=0;whiteSpace=wrap;html=1;shadow=0;strokeWidth=2;fillColor=#f0a30a;fontSize=12;fontColor=#ffffff;align=center;strokeColor=#BD7000;arcSize=3;verticalAlign=top;" parent="1" vertex="1">
          <mxGeometry x="1500" y="285" width="190" height="380" as="geometry" />
        </mxCell>
        <mxCell id="4g_t7paAZGqGhglVZUK9-22" style="edgeStyle=orthogonalEdgeStyle;html=1;startArrow=none;startFill=0;startSize=10;endArrow=none;endFill=0;endSize=10;strokeWidth=3;fontSize=11;fontColor=#FFFFFF;strokeColor=#FFFFFF;dashed=1;rounded=0;targetPerimeterSpacing=27;" parent="1" source="4g_t7paAZGqGhglVZUK9-5" target="4g_t7paAZGqGhglVZUK9-21" edge="1">
          <mxGeometry relative="1" as="geometry">
            <mxPoint x="840" y="708.5" as="sourcePoint" />
            <Array as="points">
              <mxPoint x="1580" y="620" />
            </Array>
            <mxPoint x="1116" y="620" as="targetPoint" />
          </mxGeometry>
        </mxCell>
        <mxCell id="4g_t7paAZGqGhglVZUK9-26" value="&lt;font style=&quot;font-size: 16px&quot; color=&quot;#FFFFFF&quot;&gt;OpenID Connect Authentication &amp;amp; &lt;/font&gt;&lt;font style=&quot;font-size: 16px&quot; color=&quot;#FFFFFF&quot;&gt;OAuth2 Token Validation&lt;/font&gt;" style="edgeLabel;html=1;align=center;verticalAlign=middle;resizable=0;points=[];labelBackgroundColor=none;" parent="4g_t7paAZGqGhglVZUK9-22" vertex="1" connectable="0">
          <mxGeometry x="0.1311" y="-3" relative="1" as="geometry">
            <mxPoint x="-107" y="-24.5" as="offset" />
          </mxGeometry>
        </mxCell>
        <mxCell id="4g_t7paAZGqGhglVZUK9-23" style="edgeStyle=orthogonalEdgeStyle;html=1;startArrow=none;startFill=0;startSize=10;endArrow=none;endFill=0;endSize=0;strokeWidth=3;fontSize=20;fontColor=#FFFFFF;strokeColor=#FFFFFF;dashed=1;rounded=0;targetPerimeterSpacing=6;" parent="1" source="4g_t7paAZGqGhglVZUK9-13" target="4g_t7paAZGqGhglVZUK9-21" edge="1">
          <mxGeometry relative="1" as="geometry">
            <mxPoint x="840" y="277" as="sourcePoint" />
            <Array as="points">
              <mxPoint x="1590" y="370" />
            </Array>
            <mxPoint x="1374" y="183" as="targetPoint" />
          </mxGeometry>
        </mxCell>
        <mxCell id="4g_t7paAZGqGhglVZUK9-25" value="&lt;font style=&quot;font-size: 16px&quot;&gt;OAuth2 Token Validation&lt;/font&gt;" style="edgeLabel;html=1;align=center;verticalAlign=middle;resizable=0;points=[];labelBackgroundColor=none;fontColor=#FFFFFF;" parent="4g_t7paAZGqGhglVZUK9-23" vertex="1" connectable="0">
          <mxGeometry x="0.0828" y="-2" relative="1" as="geometry">
            <mxPoint x="-179" y="-22" as="offset" />
          </mxGeometry>
        </mxCell>
        <mxCell id="4g_t7paAZGqGhglVZUK9-21" value="ADFS OIDC" style="shape=image;verticalLabelPosition=bottom;labelBackgroundColor=none;verticalAlign=top;aspect=fixed;imageAspect=0;image=data:image/svg+xml,PHN2ZyB4bWxuczpjYz0iaHR0cDovL2NyZWF0aXZlY29tbW9ucy5vcmcvbnMjIiB4bWxuczpkYz0iaHR0cDovL3B1cmwub3JnL2RjL2VsZW1lbnRzLzEuMS8iIHhtbG5zOmlua3NjYXBlPSJodHRwOi8vd3d3Lmlua3NjYXBlLm9yZy9uYW1lc3BhY2VzL2lua3NjYXBlIiB4bWxuczpyZGY9Imh0dHA6Ly93d3cudzMub3JnLzE5OTkvMDIvMjItcmRmLXN5bnRheC1ucyMiIHhtbG5zOnNvZGlwb2RpPSJodHRwOi8vc29kaXBvZGkuc291cmNlZm9yZ2UubmV0L0RURC9zb2RpcG9kaS0wLmR0ZCIgeG1sbnM6c3ZnPSJodHRwOi8vd3d3LnczLm9yZy8yMDAwL3N2ZyIgeG1sbnM9Imh0dHA6Ly93d3cudzMub3JnLzIwMDAvc3ZnIiB4bWxuczp4bGluaz0iaHR0cDovL3d3dy53My5vcmcvMTk5OS94bGluayIgdmVyc2lvbj0iMS4xIiBpZD0ic3ZnMTMyODk1IiBpbmtzY2FwZTp2ZXJzaW9uPSIwLjkyLjMgKDI0MDU1NDYsIDIwMTgtMDMtMTEpIiBzb2RpcG9kaTpkb2NuYW1lPSJhY3RpdmVfZGlyZWN0b3J5LnN2ZyIgeD0iMHB4IiB5PSIwcHgiIHZpZXdCb3g9IjAgMCAxMDggNzcuMDUiIHN0eWxlPSJlbmFibGUtYmFja2dyb3VuZDpuZXcgMCAwIDEwOCA3Ny4wNTsiIHhtbDpzcGFjZT0icHJlc2VydmUiPiYjeGE7PHNvZGlwb2RpOm5hbWVkdmlldyBib3JkZXJjb2xvcj0iIzY2NjY2NiIgYm9yZGVyb3BhY2l0eT0iMSIgZml0LW1hcmdpbi1ib3R0b209IjAiIGZpdC1tYXJnaW4tbGVmdD0iMCIgZml0LW1hcmdpbi1yaWdodD0iMCIgZml0LW1hcmdpbi10b3A9IjAiIGdyaWR0b2xlcmFuY2U9IjEwIiBndWlkZXRvbGVyYW5jZT0iMTAiIGlkPSJuYW1lZHZpZXcxMzI4OTciIGlua3NjYXBlOmN1cnJlbnQtbGF5ZXI9InN2ZzEzMjg5NSIgaW5rc2NhcGU6Y3g9IjcyIiBpbmtzY2FwZTpjeT0iNTEuMzY4NTM1IiBpbmtzY2FwZTpwYWdlb3BhY2l0eT0iMCIgaW5rc2NhcGU6cGFnZXNoYWRvdz0iMiIgaW5rc2NhcGU6d2luZG93LWhlaWdodD0iMTAxNyIgaW5rc2NhcGU6d2luZG93LW1heGltaXplZD0iMSIgaW5rc2NhcGU6d2luZG93LXdpZHRoPSIxOTIwIiBpbmtzY2FwZTp3aW5kb3cteD0iLTgiIGlua3NjYXBlOndpbmRvdy15PSItOCIgaW5rc2NhcGU6em9vbT0iOC40Mzk2MzIyIiBvYmplY3R0b2xlcmFuY2U9IjEwIiBwYWdlY29sb3I9IiNmZmZmZmYiIHNob3dncmlkPSJmYWxzZSI+JiN4YTsJPC9zb2RpcG9kaTpuYW1lZHZpZXc+JiN4YTs8ZyBpZD0iZzEzMjg5MyI+JiN4YTsJPHRpdGxlIGlkPSJ0aXRsZTEzMjc3MyI+UGFnZS0xPC90aXRsZT4mI3hhOwk8ZyBpZD0iZ3JvdXA4MzM5LTEiPiYjeGE7CQk8dGl0bGUgaWQ9InRpdGxlMTMyNzc1Ij5BY3RpdmUgRGlyZWN0b3J5PC90aXRsZT4mI3hhOwkJPGcgaWQ9InNoYXBlODM0MC0yIj4mI3hhOwkJCTx0aXRsZSBpZD0idGl0bGUxMzI3NzciPlNoZWV0LjgzNDA8L3RpdGxlPiYjeGE7CQkJPHBhdGggaWQ9InBhdGgxMzI3NzkiIGlua3NjYXBlOmNvbm5lY3Rvci1jdXJ2YXR1cmU9IjAiIHN0eWxlPSJmaWxsOiNGRkMwMDA7IiBkPSJNNTQuMTgsMEwwLDY3LjYybDU0LjExLDkuNDNMNTQuMTgsMHoiLz4mI3hhOwkJPC9nPiYjeGE7CQk8ZyBpZD0ic2hhcGU4MzQxLTQiIHRyYW5zZm9ybT0idHJhbnNsYXRlKDU0LjE3NykiPiYjeGE7CQkJPHRpdGxlIGlkPSJ0aXRsZTEzMjc4MiI+U2hlZXQuODM0MTwvdGl0bGU+JiN4YTsJCQk8cGF0aCBpZD0icGF0aDEzMjc4NCIgaW5rc2NhcGU6Y29ubmVjdG9yLWN1cnZhdHVyZT0iMCIgc3R5bGU9ImZpbGw6I0JGOTAwMDsiIGQ9Ik0wLDBsNTMuODIsNjcuNjJMMC4wOSw3Ny4wNUwwLDB6Ii8+JiN4YTsJCTwvZz4mI3hhOwkJPGcgaWQ9InNoYXBlODM0Mi02IiB0cmFuc2Zvcm09InRyYW5zbGF0ZSg0MC4zNjcyLC00OC4wNjYyKSI+JiN4YTsJCQk8dGl0bGUgaWQ9InRpdGxlMTMyNzg3Ij5TaGVldC44MzQyPC90aXRsZT4mI3hhOwkJCTxwYXRoIGlkPSJwYXRoMTMyNzg5IiBpbmtzY2FwZTpjb25uZWN0b3ItY3VydmF0dXJlPSIwIiBzdHlsZT0iZmlsbDojRkZGRkZGOyIgZD0iTTAsNzEuOTJjMC0yLjgyLDIuMy01LjEyLDUuMTMtNS4xMiAgICAgYzIuODYsMCw1LjE0LDIuMyw1LjE0LDUuMTJjMCwyLjg1LTIuMjgsNS4xMy01LjE0LDUuMTNDMi4zLDc3LjA1LDAsNzQuNzcsMCw3MS45MnoiLz4mI3hhOwkJPC9nPiYjeGE7CQk8ZyBpZD0ic2hhcGU4MzQzLTgiIHRyYW5zZm9ybT0idHJhbnNsYXRlKDU3LjM2MzksLTQ4LjA2NjIpIj4mI3hhOwkJCTx0aXRsZSBpZD0idGl0bGUxMzI3OTIiPlNoZWV0LjgzNDM8L3RpdGxlPiYjeGE7CQkJPHBhdGggaWQ9InBhdGgxMzI3OTQiIGlua3NjYXBlOmNvbm5lY3Rvci1jdXJ2YXR1cmU9IjAiIHN0eWxlPSJmaWxsOiNGRkZGRkY7IiBkPSJNOS45MSw3MS45MmMwLTIuODItMi4yMS01LjEyLTQuOTUtNS4xMiAgICAgQzIuMjQsNjYuOCwwLDY5LjEsMCw3MS45MmMwLDIuODUsMi4yNCw1LjEzLDQuOTYsNS4xM0M3LjcsNzcuMDUsOS45MSw3NC43Nyw5LjkxLDcxLjkyeiIvPiYjeGE7CQk8L2c+JiN4YTsJCTxnIGlkPSJzaGFwZTgzNDQtMTAiIHRyYW5zZm9ybT0idHJhbnNsYXRlKDQwLjM2NzIsLTExLjMwOTcpIj4mI3hhOwkJCTx0aXRsZSBpZD0idGl0bGUxMzI3OTciPlNoZWV0LjgzNDQ8L3RpdGxlPiYjeGE7CQkJPHBhdGggaWQ9InBhdGgxMzI3OTkiIGlua3NjYXBlOmNvbm5lY3Rvci1jdXJ2YXR1cmU9IjAiIHN0eWxlPSJmaWxsOiNGRkZGRkY7IiBkPSJNMCw3Mi4xYzAtMi43MiwyLjMtNC45NSw1LjEzLTQuOTUgICAgIGMyLjg2LDAsNS4xNCwyLjIzLDUuMTQsNC45NWMwLDIuNzQtMi4yOCw0Ljk1LTUuMTQsNC45NUMyLjMsNzcuMDUsMCw3NC44NCwwLDcyLjF6Ii8+JiN4YTsJCTwvZz4mI3hhOwkJPGcgaWQ9InNoYXBlODM0NS0xMiIgdHJhbnNmb3JtPSJ0cmFuc2xhdGUoNTcuMzYzOSwtMTEuMzA5NykiPiYjeGE7CQkJPHRpdGxlIGlkPSJ0aXRsZTEzMjgwMiI+U2hlZXQuODM0NTwvdGl0bGU+JiN4YTsJCQk8cGF0aCBpZD0icGF0aDEzMjgwNCIgaW5rc2NhcGU6Y29ubmVjdG9yLWN1cnZhdHVyZT0iMCIgc3R5bGU9ImZpbGw6I0ZGRkZGRjsiIGQ9Ik05LjkxLDcyLjFjMC0yLjcyLTIuMjEtNC45NS00Ljk1LTQuOTUgICAgIEMyLjI0LDY3LjE1LDAsNjkuMzgsMCw3Mi4xYzAsMi43NCwyLjI0LDQuOTUsNC45Niw0Ljk1QzcuNyw3Ny4wNSw5LjkxLDc0Ljg0LDkuOTEsNzIuMXoiLz4mI3hhOwkJPC9nPiYjeGE7CQk8ZyBpZD0ic2hhcGU4MzQ2LTE0IiB0cmFuc2Zvcm09InRyYW5zbGF0ZSg3MS4xNzM4LC0xMy43ODM3KSI+JiN4YTsJCQk8dGl0bGUgaWQ9InRpdGxlMTMyODA3Ij5TaGVldC44MzQ2PC90aXRsZT4mI3hhOwkJCTxwYXRoIGlkPSJwYXRoMTMyODA5IiBpbmtzY2FwZTpjb25uZWN0b3ItY3VydmF0dXJlPSIwIiBzdHlsZT0iZmlsbDojRkZGRkZGOyIgZD0iTTEwLjI3LDcxLjkyYzAtMi44Mi0yLjI4LTUuMTItNS4xNC01LjEyICAgICBDMi4zLDY2LjgsMCw2OS4xLDAsNzEuOTJjMCwyLjg1LDIuMyw1LjEzLDUuMTMsNS4xM0M3Ljk5LDc3LjA1LDEwLjI3LDc0Ljc3LDEwLjI3LDcxLjkyeiIvPiYjeGE7CQk8L2c+JiN4YTsJCTxnIGlkPSJzaGFwZTgzNDctMTYiIHRyYW5zZm9ybT0idHJhbnNsYXRlKDI2LjU1NzQsLTEzLjc4MzcpIj4mI3hhOwkJCTx0aXRsZSBpZD0idGl0bGUxMzI4MTIiPlNoZWV0LjgzNDc8L3RpdGxlPiYjeGE7CQkJPHBhdGggaWQ9InBhdGgxMzI4MTQiIGlua3NjYXBlOmNvbm5lY3Rvci1jdXJ2YXR1cmU9IjAiIHN0eWxlPSJmaWxsOiNGRkZGRkY7IiBkPSJNMCw3MS45MmMwLTIuODIsMi4zLTUuMTIsNS4xMy01LjEyICAgICBjMi44NiwwLDUuMTQsMi4zLDUuMTQsNS4xMmMwLDIuODUtMi4yOCw1LjEzLTUuMTQsNS4xM0MyLjMsNzcuMDUsMCw3NC43NywwLDcxLjkyeiIvPiYjeGE7CQk8L2c+JiN4YTsJCTxnIGlkPSJzaGFwZTgzNDgtMTgiIHRyYW5zZm9ybT0idHJhbnNsYXRlKDg1LjMzNzcsLTE1LjU1MDgpIj4mI3hhOwkJCTx0aXRsZSBpZD0idGl0bGUxMzI4MTciPlNoZWV0LjgzNDg8L3RpdGxlPiYjeGE7CQkJPHBhdGggaWQ9InBhdGgxMzI4MTkiIGlua3NjYXBlOmNvbm5lY3Rvci1jdXJ2YXR1cmU9IjAiIHN0eWxlPSJmaWxsOiNGRkZGRkY7IiBkPSJNMTAuMjcsNzEuOTJjMC0yLjgyLTIuMjgtNS4xMi01LjE0LTUuMTIgICAgIEMyLjMsNjYuOCwwLDY5LjEsMCw3MS45MmMwLDIuODUsMi4zLDUuMTMsNS4xMyw1LjEzQzcuOTksNzcuMDUsMTAuMjcsNzQuNzcsMTAuMjcsNzEuOTJ6Ii8+JiN4YTsJCTwvZz4mI3hhOwkJPGcgaWQ9InNoYXBlODM0OS0yMCIgdHJhbnNmb3JtPSJ0cmFuc2xhdGUoMTIuNzQ3NSwtMTUuNTUwOCkiPiYjeGE7CQkJPHRpdGxlIGlkPSJ0aXRsZTEzMjgyMiI+U2hlZXQuODM0OTwvdGl0bGU+JiN4YTsJCQk8cGF0aCBpZD0icGF0aDEzMjgyNCIgaW5rc2NhcGU6Y29ubmVjdG9yLWN1cnZhdHVyZT0iMCIgc3R5bGU9ImZpbGw6I0ZGRkZGRjsiIGQ9Ik0xMC4yNyw3MS45MmMwLTIuODItMi4yOC01LjEyLTUuMTQtNS4xMiAgICAgQzIuMyw2Ni44LDAsNjkuMSwwLDcxLjkyYzAsMi44NSwyLjMsNS4xMyw1LjEzLDUuMTNDNy45OSw3Ny4wNSwxMC4yNyw3NC43NywxMC4yNyw3MS45MnoiLz4mI3hhOwkJPC9nPiYjeGE7CQk8ZyBpZD0ic2hhcGU4MzUwLTIyIiB0cmFuc2Zvcm09InRyYW5zbGF0ZSg1MC4wMTY0LC0xOS4wMTMxKSI+JiN4YTsJCQk8dGl0bGUgaWQ9InRpdGxlMTMyODI3Ij5TaGVldC44MzUwPC90aXRsZT4mI3hhOwkJCSYjeGE7CQkJCTxwYXRoIGlkPSJwYXRoMTMyODI5IiBpbmtzY2FwZTpjb25uZWN0b3ItY3VydmF0dXJlPSIwIiBzdHlsZT0iZmlsbDpub25lO3N0cm9rZTojRkZGRkZGO3N0cm9rZS13aWR0aDowLjUwMjM7c3Ryb2tlLWxpbmVjYXA6cm91bmQ7c3Ryb2tlLWxpbmVqb2luOnJvdW5kO3N0cm9rZS1taXRlcmxpbWl0OjM7IiBkPSIgICAgIE0xMS4wNyw2NC45NkMxMS43Myw3MS4wMSw3Ljk1LDc2LjM4LDIuNTksNzdDMS43Myw3Ny4wOSwwLjg2LDc3LjA2LDAsNzYuODkiLz4mI3hhOwkJPC9nPiYjeGE7CQk8ZyBpZD0ic2hhcGU4MzUxLTI1IiB0cmFuc2Zvcm09InRyYW5zbGF0ZSg0Ny40NTc0LC0xOS4wMTMxKSI+JiN4YTsJCQk8dGl0bGUgaWQ9InRpdGxlMTMyODMyIj5TaGVldC44MzUxPC90aXRsZT4mI3hhOwkJCSYjeGE7CQkJCTxwYXRoIGlkPSJwYXRoMTMyODM0IiBpbmtzY2FwZTpjb25uZWN0b3ItY3VydmF0dXJlPSIwIiBzdHlsZT0iZmlsbDpub25lO3N0cm9rZTojRkZGRkZGO3N0cm9rZS13aWR0aDowLjUwMjM7c3Ryb2tlLWxpbmVjYXA6cm91bmQ7c3Ryb2tlLWxpbmVqb2luOnJvdW5kO3N0cm9rZS1taXRlcmxpbWl0OjM7IiBkPSIgICAgIE0wLjA4LDY0Ljk2Qy0wLjYxLDcxLjAxLDMuMTgsNzYuMzgsOC41Myw3N2MwLjg3LDAuMDksMS43NSwwLjA2LDIuNjItMC4xMSIvPiYjeGE7CQk8L2c+JiN4YTsJCTxnIGlkPSJzaGFwZTgzNTItMjgiIHRyYW5zZm9ybT0idHJhbnNsYXRlKDQ2LjUxOTcsLTQ2LjM3MDYpIj4mI3hhOwkJCTx0aXRsZSBpZD0idGl0bGUxMzI4MzciPlNoZWV0LjgzNTI8L3RpdGxlPiYjeGE7CQkJJiN4YTsJCQkJPHBhdGggaWQ9InBhdGgxMzI4MzkiIGlua3NjYXBlOmNvbm5lY3Rvci1jdXJ2YXR1cmU9IjAiIHN0eWxlPSJmaWxsOm5vbmU7c3Ryb2tlOiNGRkZGRkY7c3Ryb2tlLXdpZHRoOjAuNTAyMztzdHJva2UtbGluZWNhcDpyb3VuZDtzdHJva2UtbGluZWpvaW46cm91bmQ7c3Ryb2tlLW1pdGVybGltaXQ6MzsiIGQ9IiAgICAgTTEyLjQ4LDczLjU2QzEwLDc3LjM2LDQuNDcsNzguMTgsMCw3NS40NCIvPiYjeGE7CQk8L2c+JiN4YTsJCTxnIGlkPSJzaGFwZTgzNTMtMzEiIHRyYW5zZm9ybT0idHJhbnNsYXRlKDQ1LjY3ODcsLTIxLjMxNjEpIj4mI3hhOwkJCTx0aXRsZSBpZD0idGl0bGUxMzI4NDIiPlNoZWV0LjgzNTM8L3RpdGxlPiYjeGE7CQkJJiN4YTsJCQkJPHBhdGggaWQ9InBhdGgxMzI4NDQiIGlua3NjYXBlOmNvbm5lY3Rvci1jdXJ2YXR1cmU9IjAiIHN0eWxlPSJmaWxsOm5vbmU7c3Ryb2tlOiNGRkZGRkY7c3Ryb2tlLXdpZHRoOjAuNDc5ODtzdHJva2UtbGluZWNhcDpyb3VuZDtzdHJva2UtbGluZWpvaW46cm91bmQ7c3Ryb2tlLW1pdGVybGltaXQ6MzsiIGQ9IiAgICAgTTAsNTAuM3YyNi43NSIvPiYjeGE7CQk8L2c+JiN4YTsJCTxnIGlkPSJzaGFwZTgzNTQtMzQiIHRyYW5zZm9ybT0idHJhbnNsYXRlKDQwLjM2NzIsLTMxLjEwMTYpIj4mI3hhOwkJCTx0aXRsZSBpZD0idGl0bGUxMzI4NDciPlNoZWV0LjgzNTQ8L3RpdGxlPiYjeGE7CQkJPHBhdGggaWQ9InBhdGgxMzI4NDkiIGlua3NjYXBlOmNvbm5lY3Rvci1jdXJ2YXR1cmU9IjAiIHN0eWxlPSJmaWxsOiNGRkZGRkY7IiBkPSJNMCw3Mi4xYzAtMi43MiwyLjMtNC45NSw1LjEzLTQuOTUgICAgIGMyLjg2LDAsNS4xNCwyLjIzLDUuMTQsNC45NWMwLDIuNzQtMi4yOCw0Ljk1LTUuMTQsNC45NUMyLjMsNzcuMDUsMCw3NC44NCwwLDcyLjF6Ii8+JiN4YTsJCTwvZz4mI3hhOwkJPGcgaWQ9InNoYXBlODM1NS0zNiIgdHJhbnNmb3JtPSJ0cmFuc2xhdGUoNjIuMzIxMywtMjEuMzE2MSkiPiYjeGE7CQkJPHRpdGxlIGlkPSJ0aXRsZTEzMjg1MiI+U2hlZXQuODM1NTwvdGl0bGU+JiN4YTsJCQkmI3hhOwkJCQk8cGF0aCBpZD0icGF0aDEzMjg1NCIgaW5rc2NhcGU6Y29ubmVjdG9yLWN1cnZhdHVyZT0iMCIgc3R5bGU9ImZpbGw6bm9uZTtzdHJva2U6I0ZGRkZGRjtzdHJva2Utd2lkdGg6MC40Nzk4O3N0cm9rZS1saW5lY2FwOnJvdW5kO3N0cm9rZS1saW5lam9pbjpyb3VuZDtzdHJva2UtbWl0ZXJsaW1pdDozOyIgZD0iICAgICBNMCw1MC4zdjI2Ljc1Ii8+JiN4YTsJCTwvZz4mI3hhOwkJPGcgaWQ9InNoYXBlODM1Ni0zOSIgdHJhbnNmb3JtPSJ0cmFuc2xhdGUoNTcuMzYzOSwtMzEuMTAxNikiPiYjeGE7CQkJPHRpdGxlIGlkPSJ0aXRsZTEzMjg1NyI+U2hlZXQuODM1NjwvdGl0bGU+JiN4YTsJCQk8cGF0aCBpZD0icGF0aDEzMjg1OSIgaW5rc2NhcGU6Y29ubmVjdG9yLWN1cnZhdHVyZT0iMCIgc3R5bGU9ImZpbGw6I0ZGRkZGRjsiIGQ9Ik05LjkxLDcyLjFjMC0yLjcyLTIuMjEtNC45NS00Ljk1LTQuOTUgICAgIEMyLjI0LDY3LjE1LDAsNjkuMzgsMCw3Mi4xYzAsMi43NCwyLjI0LDQuOTUsNC45Niw0Ljk1QzcuNyw3Ny4wNSw5LjkxLDc0Ljg0LDkuOTEsNzIuMXoiLz4mI3hhOwkJPC9nPiYjeGE7CQk8ZyBpZD0ic2hhcGU4MzU3LTQxIiB0cmFuc2Zvcm09InRyYW5zbGF0ZSg2NS44NjIzLC0yNC4xMjE0KSI+JiN4YTsJCQk8dGl0bGUgaWQ9InRpdGxlMTMyODYyIj5TaGVldC44MzU3PC90aXRsZT4mI3hhOwkJCSYjeGE7CQkJCTxwYXRoIGlkPSJwYXRoMTMyODY0IiBpbmtzY2FwZTpjb25uZWN0b3ItY3VydmF0dXJlPSIwIiBzdHlsZT0iZmlsbDpub25lO3N0cm9rZTojRkZGRkZGO3N0cm9rZS13aWR0aDowLjQ3OTg7c3Ryb2tlLWxpbmVjYXA6cm91bmQ7c3Ryb2tlLWxpbmVqb2luOnJvdW5kO3N0cm9rZS1taXRlcmxpbWl0OjM7IiBkPSIgICAgIE0wLDUxLjY5bDIwLjk4LDI1LjM2Ii8+JiN4YTsJCTwvZz4mI3hhOwkJPGcgaWQ9InNoYXBlODM1OC00NCIgdHJhbnNmb3JtPSJ0cmFuc2xhdGUoNzEuMTczOCwtMzEuODA4NSkiPiYjeGE7CQkJPHRpdGxlIGlkPSJ0aXRsZTEzMjg2NyI+U2hlZXQuODM1ODwvdGl0bGU+JiN4YTsJCQk8cGF0aCBpZD0icGF0aDEzMjg2OSIgaW5rc2NhcGU6Y29ubmVjdG9yLWN1cnZhdHVyZT0iMCIgc3R5bGU9ImZpbGw6I0ZGRkZGRjsiIGQ9Ik0xMC4yNyw3MS45MmMwLTIuODItMi4yOC01LjEyLTUuMTQtNS4xMiAgICAgQzIuMyw2Ni44LDAsNjkuMSwwLDcxLjkyYzAsMi44NSwyLjMsNS4xMyw1LjEzLDUuMTNDNy45OSw3Ny4wNSwxMC4yNyw3NC43NywxMC4yNyw3MS45MnoiLz4mI3hhOwkJPC9nPiYjeGE7CQk8ZyBpZD0ic2hhcGU4MzU5LTQ2IiB0cmFuc2Zvcm09InRyYW5zbGF0ZSgyMS42LC0yNC4xMjE0KSI+JiN4YTsJCQk8dGl0bGUgaWQ9InRpdGxlMTMyODcyIj5TaGVldC44MzU5PC90aXRsZT4mI3hhOwkJCSYjeGE7CQkJCTxwYXRoIGlkPSJwYXRoMTMyODc0IiBpbmtzY2FwZTpjb25uZWN0b3ItY3VydmF0dXJlPSIwIiBzdHlsZT0iZmlsbDpub25lO3N0cm9rZTojRkZGRkZGO3N0cm9rZS13aWR0aDowLjQ3OTg7c3Ryb2tlLWxpbmVjYXA6cm91bmQ7c3Ryb2tlLWxpbmVqb2luOnJvdW5kO3N0cm9rZS1taXRlcmxpbWl0OjM7IiBkPSIgICAgIE0yMC41Niw1MS42OUwwLDc3LjA1Ii8+JiN4YTsJCTwvZz4mI3hhOwkJPGcgaWQ9InNoYXBlODM2MC00OSIgdHJhbnNmb3JtPSJ0cmFuc2xhdGUoMjcuMjY1NiwtMzEuODA4NSkiPiYjeGE7CQkJPHRpdGxlIGlkPSJ0aXRsZTEzMjg3NyI+U2hlZXQuODM2MDwvdGl0bGU+JiN4YTsJCQk8cGF0aCBpZD0icGF0aDEzMjg3OSIgaW5rc2NhcGU6Y29ubmVjdG9yLWN1cnZhdHVyZT0iMCIgc3R5bGU9ImZpbGw6I0ZGRkZGRjsiIGQ9Ik0wLDcxLjkyYzAtMi44MiwyLjI0LTUuMTIsNC45Ni01LjEyICAgICBjMi43NCwwLDQuOTUsMi4zLDQuOTUsNS4xMmMwLDIuODUtMi4yMSw1LjEzLTQuOTUsNS4xM0MyLjI0LDc3LjA1LDAsNzQuNzcsMCw3MS45MnoiLz4mI3hhOwkJPC9nPiYjeGE7CQk8ZyBpZD0ic2hhcGU4MzYxLTUxIiB0cmFuc2Zvcm09InRyYW5zbGF0ZSgzNS40MDk4LC0yMi42MTk0KSI+JiN4YTsJCQk8dGl0bGUgaWQ9InRpdGxlMTMyODgyIj5TaGVldC44MzYxPC90aXRsZT4mI3hhOwkJCSYjeGE7CQkJCTxwYXRoIGlkPSJwYXRoMTMyODg0IiBpbmtzY2FwZTpjb25uZWN0b3ItY3VydmF0dXJlPSIwIiBzdHlsZT0iZmlsbDpub25lO3N0cm9rZTojRkZGRkZGO3N0cm9rZS13aWR0aDowLjQ3OTg7c3Ryb2tlLWxpbmVjYXA6cm91bmQ7c3Ryb2tlLWxpbmVqb2luOnJvdW5kO3N0cm9rZS1taXRlcmxpbWl0OjM7IiBkPSIgICAgIE02LjY2LDY3LjE1TDAsNzcuMDUiLz4mI3hhOwkJPC9nPiYjeGE7CQk8ZyBpZD0ic2hhcGU4MzYyLTU0IiB0cmFuc2Zvcm09InRyYW5zbGF0ZSg2NS44NjIzLC0yMi42MTk0KSI+JiN4YTsJCQk8dGl0bGUgaWQ9InRpdGxlMTMyODg3Ij5TaGVldC44MzYyPC90aXRsZT4mI3hhOwkJCSYjeGE7CQkJCTxwYXRoIGlkPSJwYXRoMTMyODg5IiBpbmtzY2FwZTpjb25uZWN0b3ItY3VydmF0dXJlPSIwIiBzdHlsZT0iZmlsbDpub25lO3N0cm9rZTojRkZGRkZGO3N0cm9rZS13aWR0aDowLjQ3OTg7c3Ryb2tlLWxpbmVjYXA6cm91bmQ7c3Ryb2tlLWxpbmVqb2luOnJvdW5kO3N0cm9rZS1taXRlcmxpbWl0OjM7IiBkPSIgICAgIE0wLDY3LjE1bDYuODgsOS45Ii8+JiN4YTsJCTwvZz4mI3hhOwk8L2c+JiN4YTs8L2c+JiN4YTs8L3N2Zz4=;fillColor=#007FFF;fontSize=16;fontColor=#FFFFFF;fontStyle=1" parent="1" vertex="1">
          <mxGeometry x="1541" y="430.5" width="108" height="77" as="geometry" />
        </mxCell>
        <mxCell id="4g_t7paAZGqGhglVZUK9-44" style="edgeStyle=orthogonalEdgeStyle;html=1;startArrow=none;startFill=0;startSize=10;endArrow=none;endFill=0;endSize=10;strokeWidth=3;fontSize=11;fontColor=#FFFFFF;strokeColor=#FFFFFF;dashed=1;rounded=0;jumpStyle=none;targetPerimeterSpacing=28;" parent="1" source="4g_t7paAZGqGhglVZUK9-2" target="4g_t7paAZGqGhglVZUK9-21" edge="1">
          <mxGeometry relative="1" as="geometry">
            <mxPoint x="250" y="526" as="sourcePoint" />
            <Array as="points">
              <mxPoint x="250" y="800" />
              <mxPoint x="1600" y="800" />
            </Array>
            <mxPoint x="1434" y="538" as="targetPoint" />
          </mxGeometry>
        </mxCell>
        <mxCell id="4g_t7paAZGqGhglVZUK9-45" value="&lt;font style=&quot;font-size: 16px&quot;&gt;OpenID Connect Authentication&lt;/font&gt;" style="edgeLabel;html=1;align=center;verticalAlign=middle;resizable=0;points=[];labelBackgroundColor=none;fontColor=#FFFFFF;" parent="4g_t7paAZGqGhglVZUK9-44" vertex="1" connectable="0">
          <mxGeometry x="0.1311" y="-3" relative="1" as="geometry">
            <mxPoint x="-389" y="-23" as="offset" />
          </mxGeometry>
        </mxCell>
        <mxCell id="0OvXsAyV9BNMVg2fV95p-1" style="edgeStyle=orthogonalEdgeStyle;html=1;startArrow=none;startFill=0;startSize=10;endArrow=none;endFill=0;endSize=10;strokeWidth=3;fontSize=11;fontColor=#FFFFFF;strokeColor=#FFFFFF;dashed=1;rounded=0;targetPerimeterSpacing=3;sourcePerimeterSpacing=15;" edge="1" parent="1" source="4g_t7paAZGqGhglVZUK9-8" target="4g_t7paAZGqGhglVZUK9-21">
          <mxGeometry relative="1" as="geometry">
            <mxPoint x="848" y="722.5" as="sourcePoint" />
            <Array as="points">
              <mxPoint x="1360" y="485" />
              <mxPoint x="1360" y="485" />
            </Array>
            <mxPoint x="1541" y="637" as="targetPoint" />
          </mxGeometry>
        </mxCell>
        <mxCell id="0OvXsAyV9BNMVg2fV95p-2" value="&lt;font style=&quot;font-size: 16px&quot; color=&quot;#FFFFFF&quot;&gt;OAuth2 Token Validation&lt;/font&gt;" style="edgeLabel;html=1;align=center;verticalAlign=middle;resizable=0;points=[];labelBackgroundColor=none;fontStyle=1;fontSize=15;" vertex="1" connectable="0" parent="0OvXsAyV9BNMVg2fV95p-1">
          <mxGeometry x="0.1311" y="-3" relative="1" as="geometry">
            <mxPoint x="-8" y="-28" as="offset" />
          </mxGeometry>
        </mxCell>
      </root>
    </mxGraphModel>
  </diagram>
</mxfile>
